<?xml version="1.0" encoding="utf-8"?>
<!-- Generator: Adobe Illustrator 16.0.0, SVG Export Plug-In . SVG Version: 6.00 Build 0)  -->
<!DOCTYPE svg PUBLIC "-//W3C//DTD SVG 1.1//EN" "http://www.w3.org/Graphics/SVG/1.1/DTD/svg11.dtd">
<svg version="1.1" id="Layer_1" xmlns="http://www.w3.org/2000/svg" xmlns:xlink="http://www.w3.org/1999/xlink" x="0px" y="0px"
	 width="612px" height="612px" viewBox="0 90 612 612" enable-background="new 0 90 612 612" xml:space="preserve">
<g>
	<circle fill="#55C9EF" cx="305.999" cy="396" r="305.789"/>
	<g>
		<g>
			<defs>
				<circle id="SVGID_1_" cx="305.999" cy="396" r="305.789"/>
			</defs>
			<clipPath id="SVGID_2_">
				<use xlink:href="#SVGID_1_"  overflow="visible"/>
			</clipPath>
			<g clip-path="url(#SVGID_2_)">
				<path fill="#FFFFFF" d="M577.529,487.779c-2.114-0.424-3.807-1.691-5.498-2.961c-6.768-5.922-16.495-8.459-24.954-9.305
					c-2.96,0-5.075-1.27-6.767-2.537c-1.691,0.422-3.384,0.846-5.075,0.846c-2.115,0-4.229-0.424-5.922-1.27
					c-79.936,81.205-137.879,22.84-137.879,22.84l2.114,56.25c112.926,59.213,181.866-37.219,181.866-37.219
					C579.222,505.543,579.222,496.238,577.529,487.779z"/>
				<path opacity="0.14" fill="#3560AD" enable-background="new    " d="M393.549,552.066
					c41.448,21.57,76.976,22.416,105.313,14.803c-48.639,1.27-85.858-20.301-106.159-35.527L393.549,552.066z"/>
				<path fill="#FFFFFF" d="M182.5,689.523c0,0,11.842,76.129,25.799,104.891c0,0,47.792,5.074,60.481,0
					c12.688-5.076,7.613-105.736,17.764-105.736C297.118,688.678,182.5,689.523,182.5,689.523z"/>
				<path fill="#FFFFFF" d="M431.614,689.523c0,0-11.843,76.129-25.8,104.891c0,0-47.793,5.074-60.481,0
					c-12.688-5.076-7.612-105.736-17.764-105.736C317.419,688.678,431.614,689.523,431.614,689.523z"/>
				<path fill="#FFFFFF" d="M230.292,495.814c0,0-108.697,44.41-136.611,159.873c0,0,5.075,19.879,26.223,28.76
					c0-1.268-0.423-2.113-0.423-3.383c-0.423-7.189,6.344-13.111,13.111-13.111c3.384,0,5.921,1.27,8.036,2.961
					c1.692,1.268,3.383,2.537,4.229,4.652c16.495-36.797,63.864-137.035,96.008-145.07L230.292,495.814z"/>
				<path fill="#FFFFFF" d="M231.138,473.398c0,0-63.019,163.256-45.678,232.619c0,0,68.094,32.145,126.46,32.145
					c52.868,0,118.847-32.145,118.847-32.145s9.729-80.359-46.523-230.504L231.138,473.398z"/>
				<path opacity="0.14" fill="#3560AD" enable-background="new    " d="M425.27,624.391
					c-95.162,69.361-198.361,24.529-238.117,2.113c-4.652,27.068-6.767,52.445-3.384,72.324
					c71.055,1.27,186.096,3.807,246.576,4.652C431.19,695.867,432.46,669.223,425.27,624.391z"/>
				<path opacity="0.14" fill="#3560AD" enable-background="new    " d="M212.106,521.615c29.606,6.766,62.596,10.572,97.277,10.572
					c35.95-0.422,69.786-4.652,99.392-12.688c-5.075-10.996-10.996-19.879-17.34-25.801l-167.909-1.691
					C223.525,492.008,218.873,503.428,212.106,521.615z"/>
				<ellipse fill="#FFFFFF" cx="152.471" cy="655.265" rx="10.574" ry="16.495"/>
				
					<ellipse transform="matrix(0.2309 0.973 -0.973 0.2309 873.5391 -129.3501)" fill="#FFFFFF" cx="518.588" cy="487.868" rx="16.496" ry="10.574"/>
				<path fill="#0091D2" d="M183.346,655.264c-5.921,24.531,2.115,68.941,7.613,99.816c40.603,7.189,76.976,2.537,90.933,0
					c0.423-6.346,2.96-19.033,6.344-18.609c8.036,0.846,15.649,1.691,23.685,1.691c5.075,0,9.728-0.424,14.803-0.846
					c2.961-0.424,4.652,11.842,5.075,18.186c34.682,5.498,71.055,2.961,90.087,0.424c3.384-17.764,14.804-65.133,7.19-100.66
					C315.305,678.527,213.375,661.186,183.346,655.264z"/>
				<path fill="#0091D2" d="M219.296,500.467c0,0,31.298,41.449,22.416,164.949l-26.646-1.693c0,0,20.724-93.047-12.265-152.26
					C202.801,511.041,210.837,502.158,219.296,500.467z"/>
				<path fill="#0091D2" d="M401.162,500.467c0,0-31.298,41.449-22.416,164.949l26.646-1.693c0,0-20.725-93.047,12.265-152.26
					C417.656,511.041,409.621,502.158,401.162,500.467z"/>
				<path fill="#007DB5" d="M229.87,677.68c-6.767,0-12.688-5.92-13.111-13.533c0,0.424,0,0.846,0,1.27
					c0,8.035,5.921,14.379,13.111,14.379s13.111-6.344,13.111-14.379c0-0.424,0-0.846,0-1.27
					C242.135,671.76,236.637,677.68,229.87,677.68z"/>
				<path fill="#007DB5" d="M391.857,677.68c6.767,0,12.688-5.92,13.111-13.533c0,0.424,0,0.846,0,1.27
					c0,8.035-5.922,14.379-13.111,14.379c-7.19,0-13.111-6.344-13.111-14.379c0-0.424,0-0.846,0-1.27
					C379.592,671.76,385.09,677.68,391.857,677.68z"/>
				<ellipse fill="#EBE720" cx="229.87" cy="662.031" rx="10.15" ry="10.996"/>
				<ellipse fill="#EBE720" cx="392.703" cy="662.031" rx="10.15" ry="10.996"/>
				
					<linearGradient id="SVGID_3_" gradientUnits="userSpaceOnUse" x1="94.3599" y1="714.0742" x2="89.7498" y2="724.9409" gradientTransform="matrix(4.0611 1.1821 1.1821 -4.0611 -835.5706 3215.1382)">
					<stop  offset="0" style="stop-color:#FFFFFF"/>
					<stop  offset="1" style="stop-color:#FFFFFF;stop-opacity:0"/>
				</linearGradient>
				<path fill="url(#SVGID_3_)" d="M401.162,374.007c0-2.115-0.423-4.229-1.27-5.921c-1.691,7.19-7.612,12.266-15.226,12.266
					c-6.767,0-12.266-3.807-14.38-9.728c-0.423,1.269-0.423,2.114-0.423,3.383c0,8.458,7.189,15.649,15.648,15.649
					S401.162,382.889,401.162,374.007z"/>
				<path opacity="0.14" fill="#3560AD" enable-background="new    " d="M374.094,551.221c9.305-12.266,9.728-54.982-2.538-60.904
					c-9.728-4.652-36.796,5.922-42.717,15.648c-4.229-4.652-10.574-8.035-18.187-8.035c-7.19,0-13.535,2.961-17.764,7.189
					c-6.767-9.305-32.567-19.455-42.294-14.803c-11.419,5.498-11.842,44.408-3.807,58.789l0,0l0,0
					c0.423,0.846,0.846,1.27,1.269,2.115c0,0,0,0,0.423,0.422c0.423,0.424,0.846,1.27,1.269,1.693
					c7.613,6.344,34.258-15.65,42.717-23.264c4.229,5.076,10.997,8.037,18.61,8.037c7.612,0,14.803-3.385,19.032-8.459
					c8.036,7.189,35.527,30.451,43.141,23.686C372.824,552.488,373.248,552.066,374.094,551.221
					C373.671,551.221,374.094,551.221,374.094,551.221z"/>
				<circle fill="#FFFFFF" cx="547.924" cy="499.622" r="35.95"/>
				<circle fill="#FFFFFF" cx="124.979" cy="653.15" r="33.836"/>
				<g>
					<g>
						<path fill="#FFFFFF" d="M507.32,376.544c-2.96-34.258-11.842-76.13-16.494-94.316c21.147-8.459,36.373-29.606,36.373-54.137
							c0-32.144-25.377-58.366-56.675-58.366c-22.416,0-41.448,13.111-50.753,32.144c-2.115-1.692-3.384-2.96-3.384-2.96
							c0.423-0.423-24.107-17.341-72.746-23.262c-4.229-12.688-19.455-31.721-28.337-34.681
							c-21.994-6.767,0.846,21.147,5.498,25.799c-8.036-4.652-28.337-26.646-39.757-16.072c-6.767,6.344-1.269,10.997,6.344,13.957
							c-13.958-2.96-31.298-5.498-27.069,10.151c0.423,0.846,0.846,1.692,1.269,2.538c-39.757,7.19-58.789,21.147-57.943,21.57
							c0,0-0.846,0.423-2.115,1.691c-9.728-18.187-28.337-30.875-50.33-30.875c-31.298,0-56.675,26.222-56.675,58.366
							c0,22.839,13.111,42.717,31.721,52.022c-4.652,16.495-15.226,58.789-18.187,94.739l-0.423-2.96
							c-0.423,6.344-19.032,23.262-3.807,20.302c-2.96,4.229-5.498,8.458-5.921,13.533c1.691-0.846,3.806-0.846,5.498-2.113
							c-7.19,9.727,1.692,21.57,10.151,21.146c16.917,51.176,97.7,89.664,194.977,89.664s178.06-38.488,194.978-89.664
							c0-0.422,0.423-0.422,0.423-0.846c6.767-2.537,12.688-12.266,6.344-20.725c2.115,1.27,4.229,1.27,5.498,2.115
							c-0.423-5.076-2.96-9.728-5.921-13.535C521.278,394.308,511.974,384.158,507.32,376.544z"/>
						<path opacity="0.38" fill="#133B62" enable-background="new    " d="M157.969,233.589c4.652-4.652,9.728-8.036,15.649-10.15
							c-1.269-10.997-10.151-19.878-21.147-19.878c-11.842,0-21.57,9.728-21.57,21.993c0,10.997,7.613,19.878,17.764,21.57
							C151.202,242.048,154.163,237.819,157.969,233.589z"/>
						<path opacity="0.38" fill="#133B62" enable-background="new    " d="M466.718,233.589c-4.652-4.652-9.728-8.036-15.648-10.15
							c0.846-10.997,10.15-19.878,21.147-19.878c11.842,0,21.57,9.728,21.57,21.993c0,10.997-7.613,19.878-17.764,21.57
							C473.485,242.048,470.524,237.819,466.718,233.589z"/>
					</g>
					<path fill="#133B62" d="M274.702,373.584c0,0,33.413-17.341,60.481,0c0,0-13.111,16.917-31.721,16.917
						C284.852,390.924,274.702,373.584,274.702,373.584z"/>
					<path fill="#133B62" d="M250.594,343.555c0,10.574-8.459,19.033-19.032,19.033c-10.574,0-19.033-8.459-19.033-19.033
						c0-10.573,8.459-19.032,19.033-19.032C242.135,324.522,250.594,332.981,250.594,343.555z"/>
					<path fill="#133B62" d="M395.664,343.555c0,10.574-8.459,19.033-19.033,19.033c-10.573,0-19.032-8.459-19.032-19.033
						c0-10.573,8.459-19.032,19.032-19.032C386.782,324.522,395.664,332.981,395.664,343.555z"/>
					<polygon fill="#133B62" points="305.999,417.57 304.308,417.146 302.616,387.118 307.269,387.118 					"/>
					<path fill="#133B62" d="M330.53,407.842C330.53,407.842,330.53,407.42,330.53,407.842c0.423-2.115-0.846-4.229-2.961-4.229
						c-0.423,0-0.846,0-1.269,0l0,0l0,0l0,0c-18.609,5.074-33.835,2.113-42.717-0.846c0,0-0.423,0-0.423-0.424
						c-2.115-0.422-3.807,0.846-4.229,2.961c0,1.27,0.423,2.115,0.846,2.961c4.652,7.613,12.266,16.918,23.685,18.186
						C315.305,428.145,325.455,416.301,330.53,407.842L330.53,407.842z"/>
					<ellipse opacity="0.3" fill="#F9B3A4" enable-background="new    " cx="434.151" cy="386.695" rx="15.649" ry="10.151"/>
					<path opacity="0.3" fill="#F9B3A4" enable-background="new    " d="M197.726,390.924c0-5.498-6.767-10.15-15.649-10.15
						c-8.458,0-15.649,4.652-15.649,10.15s6.767,10.15,15.649,10.15C190.536,401.074,197.726,396.422,197.726,390.924z"/>
					<g opacity="0.8">
						
							<linearGradient id="SVGID_4_" gradientUnits="userSpaceOnUse" x1="70.3716" y1="682.4023" x2="70.3716" y2="703.5139" gradientTransform="matrix(4.2294 0 0 -4.2294 6.8853 3417.3313)">
							<stop  offset="0" style="stop-color:#133B62"/>
							<stop  offset="1" style="stop-color:#133B62;stop-opacity:0"/>
						</linearGradient>
						<path fill="url(#SVGID_4_)" d="M305.153,451.828L305.153,451.828c-12.265,0-20.724-6.344-21.147-6.344
							c-1.269-0.846-1.269-2.115,0-2.961s2.96-0.846,4.229,0c0,0,7.19,5.076,16.917,5.076l0,0c5.499,0,10.574-1.691,15.649-5.076
							c1.269-0.846,2.96-0.846,4.229,0c1.269,0.846,1.269,2.115,0,2.961C319.11,449.713,312.344,451.828,305.153,451.828z"/>
					</g>
				</g>
				<g>
					<path fill="#F47521" d="M293.311,502.582c-5.498-9.729-32.99-20.725-43.14-16.072c-12.688,5.922-11.419,53.291-0.846,62.596
						c8.882,8.037,45.255-25.799,45.255-25.799S296.272,506.811,293.311,502.582z"/>
					<path fill="#D25F27" d="M246.364,545.299c0.846,1.691,1.692,2.961,2.961,3.807c8.882,8.037,45.255-25.799,45.255-25.799
						s0.423-5.498,0.423-10.998c-2.115-1.268-4.229-2.537-6.767-3.383C288.236,509.35,268.357,546.568,246.364,545.299z"/>
					<path fill="#D25F27" d="M288.236,509.35c0,0-10.151-17.764-27.915-20.303C242.558,486.934,288.236,509.35,288.236,509.35z"/>
					<path fill="#F47521" d="M328.415,502.582c5.499-9.729,32.99-20.725,43.141-16.072c12.688,5.922,11.42,53.291,0.846,62.596
						c-8.882,8.037-45.255-25.799-45.255-25.799S325.878,506.811,328.415,502.582z"/>
					<path fill="#D25F27" d="M375.362,545.299c-0.846,1.691-1.691,2.961-2.961,3.807c-8.882,8.037-45.255-25.799-45.255-25.799
						s-0.423-5.498-0.423-10.998c2.115-1.268,4.229-2.537,6.768-3.383C333.491,509.35,353.369,546.568,375.362,545.299z"/>
					<path fill="#D25F27" d="M333.491,509.35c0,0,10.15-17.764,27.914-20.303C379.169,486.934,333.491,509.35,333.491,509.35z"/>
					<ellipse fill="#F47521" cx="310.652" cy="514.001" rx="22.839" ry="19.878"/>
					<path fill="#D25F27" d="M310.652,524.574c-10.574,0-19.879-6.344-22.417-15.225c-0.423,1.691-0.846,3.383-0.846,5.074
						c0,10.996,10.15,19.879,22.838,19.879c12.688,0,22.84-8.883,22.84-19.879c0-1.691-0.424-3.383-0.847-5.074
						C330.107,517.809,321.226,524.574,310.652,524.574z"/>
				</g>
			</g>
		</g>
	</g>
</g>
</svg>
