<?xml version="1.0" encoding="utf-8"?>
<!-- Generator: Adobe Illustrator 16.0.0, SVG Export Plug-In . SVG Version: 6.00 Build 0)  -->
<!DOCTYPE svg PUBLIC "-//W3C//DTD SVG 1.1//EN" "http://www.w3.org/Graphics/SVG/1.1/DTD/svg11.dtd">
<svg version="1.1" id="Layer_1" xmlns="http://www.w3.org/2000/svg" xmlns:xlink="http://www.w3.org/1999/xlink" x="0px" y="0px"
	 width="612px" height="612px" viewBox="0 0 612 612" enable-background="new 0 0 612 612" xml:space="preserve">
<g>
	<circle fill="#55C9EF" cx="306" cy="306.211" r="305.789"/>
	<g>
		<g>
			<g>
				<defs>
					<circle id="SVGID_1_" cx="306" cy="306.211" r="305.789"/>
				</defs>
				<clipPath id="SVGID_2_">
					<use xlink:href="#SVGID_1_"  overflow="visible"/>
				</clipPath>
				<g clip-path="url(#SVGID_2_)">
					<path fill="#FFFFFF" d="M577.53,397.99c-2.114-0.424-3.808-1.691-5.498-2.961c-6.769-5.922-16.495-8.459-24.954-9.306
						c-2.96,0-5.075-1.27-6.768-2.537c-1.69,0.423-3.384,0.847-5.074,0.847c-2.115,0-4.229-0.424-5.923-1.271
						c-79.936,81.205-137.879,22.84-137.879,22.84l2.114,56.25c112.926,59.214,181.866-37.219,181.866-37.219
						C579.223,415.754,579.223,406.449,577.53,397.99z"/>
					<path opacity="0.14" fill="#3560AD" enable-background="new    " d="M393.55,462.277
						c41.448,21.569,76.977,22.416,105.313,14.803c-48.64,1.27-85.858-20.301-106.159-35.527L393.55,462.277z"/>
					<path fill="#FFFFFF" d="M182.501,599.734c0,0,11.842,76.129,25.799,104.891c0,0,47.792,5.074,60.481,0
						c12.688-5.076,7.613-105.736,17.764-105.736C297.119,598.889,182.501,599.734,182.501,599.734z"/>
					<path fill="#FFFFFF" d="M431.615,599.734c0,0-11.843,76.129-25.8,104.891c0,0-47.793,5.074-60.481,0
						c-12.688-5.076-7.612-105.736-17.764-105.736C317.42,598.889,431.615,599.734,431.615,599.734z"/>
					<path fill="#FFFFFF" d="M230.293,406.025c0,0-108.697,44.409-136.611,159.873c0,0,5.075,19.879,26.223,28.76
						c0-1.269-0.423-2.113-0.423-3.383c-0.423-7.189,6.344-13.111,13.111-13.111c3.384,0,5.921,1.27,8.036,2.961
						c1.692,1.268,3.383,2.537,4.229,4.652c16.495-36.798,63.864-137.035,96.008-145.07L230.293,406.025z"/>
					<path fill="#FFFFFF" d="M231.139,383.609c0,0-63.019,163.256-45.678,232.618c0,0,68.094,32.146,126.46,32.146
						c52.868,0,118.847-32.146,118.847-32.146s9.729-80.358-46.522-230.504L231.139,383.609z"/>
					<path opacity="0.14" fill="#3560AD" enable-background="new    " d="M425.271,534.602
						c-95.161,69.361-198.36,24.529-238.117,2.113c-4.652,27.068-6.767,52.445-3.384,72.324
						c71.055,1.27,186.096,3.807,246.576,4.651C431.191,606.078,432.461,579.434,425.271,534.602z"/>
					<path opacity="0.14" fill="#3560AD" enable-background="new    " d="M212.107,431.826
						c29.606,6.766,62.596,10.572,97.277,10.572c35.95-0.423,69.786-4.652,99.393-12.688c-5.075-10.996-10.996-19.879-17.341-25.801
						l-167.909-1.691C223.526,402.219,218.874,413.639,212.107,431.826z"/>
					<ellipse fill="#FFFFFF" cx="152.472" cy="565.476" rx="10.574" ry="16.495"/>
					
						<ellipse transform="matrix(0.973 -0.2309 0.2309 0.973 -77.9017 130.488)" fill="#FFFFFF" cx="518.586" cy="398.096" rx="10.574" ry="16.497"/>
					<path fill="#0091D2" d="M183.347,565.475c-5.921,24.531,2.115,68.941,7.613,99.816c40.603,7.188,76.976,2.537,90.933,0
						c0.423-6.346,2.96-19.033,6.344-18.609c8.036,0.847,15.649,1.691,23.685,1.691c5.075,0,9.729-0.424,14.803-0.846
						c2.961-0.425,4.652,11.842,5.075,18.186c34.683,5.498,71.055,2.961,90.087,0.424c3.384-17.764,14.805-65.133,7.19-100.66
						C315.306,588.738,213.376,571.396,183.347,565.475z"/>
					<path fill="#0091D2" d="M219.297,410.678c0,0,31.298,41.449,22.416,164.949l-26.646-1.693c0,0,20.724-93.047-12.265-152.26
						C202.802,421.252,210.838,412.369,219.297,410.678z"/>
					<path fill="#0091D2" d="M401.163,410.678c0,0-31.298,41.449-22.416,164.949l26.646-1.693c0,0-20.725-93.047,12.266-152.26
						C417.657,421.252,409.622,412.369,401.163,410.678z"/>
					<path fill="#007DB5" d="M229.871,587.891c-6.767,0-12.688-5.92-13.111-13.533c0,0.425,0,0.847,0,1.271
						c0,8.035,5.921,14.379,13.111,14.379s13.111-6.344,13.111-14.379c0-0.424,0-0.846,0-1.271
						C242.136,581.971,236.638,587.891,229.871,587.891z"/>
					<path fill="#007DB5" d="M391.858,587.891c6.767,0,12.688-5.92,13.11-13.533c0,0.425,0,0.847,0,1.271
						c0,8.035-5.922,14.379-13.11,14.379c-7.19,0-13.111-6.344-13.111-14.379c0-0.424,0-0.846,0-1.271
						C379.593,581.971,385.091,587.891,391.858,587.891z"/>
					<ellipse fill="#EBE720" cx="229.871" cy="572.242" rx="10.15" ry="10.996"/>
					<ellipse fill="#EBE720" cx="392.704" cy="572.242" rx="10.149" ry="10.996"/>
					
						<linearGradient id="SVGID_3_" gradientUnits="userSpaceOnUse" x1="94.4556" y1="-5.3721" x2="89.8455" y2="-16.2388" gradientTransform="matrix(4.0611 1.1821 -1.1821 4.0611 1.8244 247.1267)">
						<stop  offset="0" style="stop-color:#FFFFFF"/>
						<stop  offset="1" style="stop-color:#FFFFFF;stop-opacity:0"/>
					</linearGradient>
					<path fill="url(#SVGID_3_)" d="M401.163,284.218c0-2.114-0.423-4.229-1.271-5.921c-1.69,7.189-7.611,12.266-15.226,12.266
						c-6.767,0-12.266-3.807-14.38-9.728c-0.423,1.269-0.423,2.114-0.423,3.383c0,8.458,7.188,15.649,15.647,15.649
						S401.163,293.1,401.163,284.218z"/>
					<path opacity="0.14" fill="#3560AD" enable-background="new    " d="M374.095,461.432c9.306-12.266,9.729-54.981-2.538-60.903
						c-9.728-4.652-36.796,5.922-42.717,15.647c-4.229-4.651-10.574-8.035-18.187-8.035c-7.19,0-13.535,2.961-17.764,7.189
						c-6.767-9.305-32.567-19.455-42.294-14.803c-11.419,5.498-11.842,44.407-3.807,58.789l0,0l0,0
						c0.423,0.846,0.846,1.27,1.269,2.114c0,0,0,0,0.423,0.422c0.423,0.425,0.846,1.271,1.269,1.693
						c7.613,6.344,34.258-15.65,42.717-23.264c4.229,5.075,10.997,8.037,18.61,8.037c7.611,0,14.803-3.386,19.032-8.459
						c8.035,7.188,35.526,30.45,43.141,23.686C372.825,462.699,373.249,462.277,374.095,461.432
						C373.672,461.432,374.095,461.432,374.095,461.432z"/>
					<circle fill="#FFFFFF" cx="547.925" cy="409.833" r="35.95"/>
					<circle fill="#FFFFFF" cx="124.98" cy="563.361" r="33.836"/>
					<g>
						<g>
							<path fill="#FFFFFF" d="M507.321,286.755c-2.96-34.258-11.843-76.13-16.494-94.316c21.146-8.459,36.373-29.606,36.373-54.137
								c0-32.144-25.377-58.366-56.675-58.366c-22.416,0-41.448,13.111-50.753,32.144c-2.115-1.692-3.385-2.96-3.385-2.96
								c0.424-0.423-24.106-17.341-72.746-23.262c-4.229-12.688-19.454-31.721-28.337-34.681
								c-21.994-6.767,0.847,21.147,5.498,25.799c-8.036-4.652-28.337-26.646-39.757-16.072c-6.767,6.344-1.269,10.997,6.344,13.957
								c-13.958-2.96-31.298-5.498-27.069,10.151c0.423,0.846,0.846,1.692,1.269,2.538c-39.757,7.19-58.789,21.147-57.943,21.57
								c0,0-0.846,0.423-2.115,1.691c-9.728-18.187-28.337-30.875-50.33-30.875c-31.298,0-56.675,26.222-56.675,58.366
								c0,22.839,13.111,42.717,31.721,52.022c-4.652,16.495-15.226,58.79-18.187,94.739l-0.423-2.959
								c-0.423,6.344-19.032,23.262-3.807,20.301c-2.96,4.229-5.498,8.459-5.921,13.533c1.691-0.846,3.806-0.846,5.498-2.113
								c-7.19,9.728,1.692,21.57,10.151,21.146c16.917,51.176,97.7,89.664,194.977,89.664s178.06-38.488,194.978-89.664
								c0-0.422,0.423-0.422,0.423-0.846c6.768-2.537,12.688-12.266,6.345-20.725c2.115,1.27,4.229,1.27,5.498,2.114
								c-0.423-5.075-2.96-9.728-5.921-13.534C521.279,304.52,511.975,294.369,507.321,286.755z"/>
							<path opacity="0.38" fill="#133B62" enable-background="new    " d="M157.97,143.8c4.652-4.652,9.728-8.036,15.649-10.15
								c-1.269-10.997-10.151-19.878-21.147-19.878c-11.842,0-21.57,9.728-21.57,21.993c0,10.997,7.613,19.878,17.764,21.57
								C151.203,152.259,154.164,148.03,157.97,143.8z"/>
							<path opacity="0.38" fill="#133B62" enable-background="new    " d="M466.719,143.8c-4.651-4.652-9.728-8.036-15.647-10.15
								c0.846-10.997,10.149-19.878,21.146-19.878c11.842,0,21.57,9.728,21.57,21.993c0,10.997-7.613,19.878-17.764,21.57
								C473.486,152.259,470.525,148.03,466.719,143.8z"/>
						</g>
						<path fill="#133B62" d="M274.703,283.795c0,0,33.413-17.341,60.48,0c0,0-13.11,16.917-31.721,16.917
							C284.853,301.135,274.703,283.795,274.703,283.795z"/>
						<path fill="#133B62" d="M250.595,253.766c0,10.574-8.459,19.033-19.032,19.033c-10.574,0-19.033-8.459-19.033-19.033
							c0-10.572,8.459-19.031,19.033-19.031C242.136,234.732,250.595,243.191,250.595,253.766z"/>
						<path fill="#133B62" d="M395.665,253.766c0,10.574-8.459,19.033-19.033,19.033c-10.573,0-19.032-8.459-19.032-19.033
							c0-10.572,8.459-19.031,19.032-19.031C386.783,234.732,395.665,243.191,395.665,253.766z"/>
						<polygon fill="#133B62" points="306,327.781 304.309,327.357 302.617,297.329 307.27,297.329 						"/>
						<path fill="#133B62" d="M330.531,318.053C330.531,318.053,330.531,317.631,330.531,318.053
							c0.423-2.115-0.847-4.229-2.961-4.229c-0.423,0-0.847,0-1.27,0l0,0l0,0l0,0c-18.608,5.074-33.835,2.113-42.717-0.846
							c0,0-0.423,0-0.423-0.425c-2.115-0.422-3.807,0.847-4.229,2.962c0,1.27,0.423,2.114,0.846,2.961
							c4.652,7.612,12.266,16.917,23.685,18.186C315.306,338.355,325.456,326.512,330.531,318.053L330.531,318.053z"/>
						<ellipse opacity="0.3" fill="#F9B3A4" enable-background="new    " cx="434.152" cy="296.906" rx="15.648" ry="10.151"/>
						<path opacity="0.3" fill="#F9B3A4" enable-background="new    " d="M197.727,301.135c0-5.498-6.767-10.15-15.649-10.15
							c-8.458,0-15.649,4.652-15.649,10.15s6.767,10.15,15.649,10.15C190.537,311.285,197.727,306.633,197.727,301.135z"/>
						<g opacity="0.8">
							
								<linearGradient id="SVGID_4_" gradientUnits="userSpaceOnUse" x1="68.7451" y1="25.9404" x2="68.7451" y2="4.8288" gradientTransform="matrix(4.2294 0 0 4.2294 13.772 331.6785)">
								<stop  offset="0" style="stop-color:#133B62"/>
								<stop  offset="1" style="stop-color:#133B62;stop-opacity:0"/>
							</linearGradient>
							<path fill="url(#SVGID_4_)" d="M305.154,362.039L305.154,362.039c-12.265,0-20.724-6.344-21.147-6.344
								c-1.269-0.847-1.269-2.115,0-2.961c1.269-0.847,2.96-0.847,4.229,0c0,0,7.19,5.075,16.917,5.075l0,0
								c5.499,0,10.573-1.69,15.648-5.075c1.27-0.847,2.96-0.847,4.229,0c1.269,0.846,1.269,2.114,0,2.961
								C319.111,359.924,312.345,362.039,305.154,362.039z"/>
						</g>
					</g>
					<g>
						<path fill="#F47521" d="M293.312,412.793c-5.498-9.729-32.99-20.725-43.14-16.072c-12.688,5.922-11.419,53.291-0.846,62.597
							c8.882,8.036,45.255-25.8,45.255-25.8S296.273,417.021,293.312,412.793z"/>
						<path fill="#D25F27" d="M246.365,455.51c0.846,1.691,1.692,2.961,2.961,3.808c8.882,8.036,45.255-25.8,45.255-25.8
							s0.423-5.498,0.423-10.998c-2.115-1.268-4.229-2.536-6.767-3.383C288.237,419.561,268.358,456.779,246.365,455.51z"/>
						<path fill="#D25F27" d="M288.237,419.561c0,0-10.151-17.764-27.915-20.303C242.559,397.145,288.237,419.561,288.237,419.561z"
							/>
						<path fill="#F47521" d="M328.416,412.793c5.499-9.729,32.99-20.725,43.141-16.072c12.688,5.922,11.42,53.291,0.847,62.597
							c-8.883,8.036-45.255-25.8-45.255-25.8S325.879,417.021,328.416,412.793z"/>
						<path fill="#D25F27" d="M375.363,455.51c-0.847,1.691-1.691,2.961-2.961,3.808c-8.883,8.036-45.255-25.8-45.255-25.8
							s-0.424-5.498-0.424-10.998c2.115-1.268,4.229-2.536,6.769-3.383C333.492,419.561,353.37,456.779,375.363,455.51z"/>
						<path fill="#D25F27" d="M333.492,419.561c0,0,10.149-17.764,27.914-20.303C379.17,397.145,333.492,419.561,333.492,419.561z"
							/>
						<ellipse fill="#F47521" cx="310.653" cy="424.212" rx="22.839" ry="19.878"/>
						<path fill="#D25F27" d="M310.653,434.785c-10.574,0-19.879-6.344-22.417-15.226c-0.423,1.691-0.846,3.384-0.846,5.074
							c0,10.996,10.15,19.879,22.837,19.879c12.688,0,22.841-8.883,22.841-19.879c0-1.69-0.425-3.383-0.848-5.074
							C330.108,428.02,321.227,434.785,310.653,434.785z"/>
					</g>
				</g>
			</g>
		</g>
	</g>
</g>
</svg>
