<?xml version="1.0" encoding="utf-8"?>
<!-- Generator: Adobe Illustrator 16.0.0, SVG Export Plug-In . SVG Version: 6.00 Build 0)  -->
<!DOCTYPE svg PUBLIC "-//W3C//DTD SVG 1.1//EN" "http://www.w3.org/Graphics/SVG/1.1/DTD/svg11.dtd">
<svg version="1.1" id="Layer_1" xmlns="http://www.w3.org/2000/svg" xmlns:xlink="http://www.w3.org/1999/xlink" x="0px" y="0px"
	 width="660px" height="440px" viewBox="0 0 660 440" enable-background="new 0 0 660 440" xml:space="preserve">
<g>
	<g>
		<path fill="#FAFAF4" d="M110,220C49.248,220,0,170.551,0,110C0,49.248,49.248,0,110,0c60.551,0,110,49.248,110,110
			C220,170.551,170.55,220,110,220z M110,20.184c-49.449,0-89.816,40.367-89.816,89.816S60.55,199.816,110,199.816
			S199.816,159.45,199.816,110S159.449,20.184,110,20.184z"/>
		<circle fill="#FAFAF4" cx="110" cy="110" r="99.908"/>
		<g>
			<g>
				<g>
					<path fill="#7BD1EC" d="M108.183,132v-24.22c-6.458,0-13.119-0.605-20.385-1.615c-3.229,5.651-6.459,12.917-9.083,23.009
						C89.211,130.992,98.899,132,108.183,132z"/>
					<path fill="#7BD1EC" d="M140.678,129.779c-2.624-10.092-5.853-17.76-9.082-23.412c-5.854,0.807-12.716,1.413-19.982,1.613
						v24.221C122.312,132,132.201,131.193,140.678,129.779z"/>
					<g>
						<path fill="#7BD1EC" d="M163.688,124.734c-3.028-7.871-7.267-15.742-13.322-22.201c-3.835,1.009-8.88,2.22-14.734,3.229
							c3.431,6.055,6.459,13.725,8.881,23.413C151.981,127.762,158.44,126.146,163.688,124.734z"/>
						<path fill="#7BD1EC" d="M145.119,132.605c2.221,9.892,3.633,21.598,4.239,35.726c11.504,0,21.193,0,22,0
							c0,0,0.605-19.981-6.459-40.367C159.651,129.579,152.789,131.193,145.119,132.605z"/>
					</g>
					<path fill="#7BD1EC" d="M107.577,135.432c-9.284-0.201-19.174-1.009-29.468-3.027c-2.22,9.688-3.834,21.396-4.44,35.726
						c4.44,0,9.083,0,13.321,0C88.403,156.221,92.844,137.45,107.577,135.432z"/>
					<path fill="#7BD1EC" d="M132.807,168.331c4.239,0,8.679,0,12.917,0c-0.403-14.128-2.019-25.633-4.238-35.119
						c-8.477,1.413-18.367,2.422-28.862,2.422C127.155,137.652,131.596,156.221,132.807,168.331z"/>
					<path fill="#7BD1EC" d="M85.981,102.331c6.055-9.486,12.513-14.129,17.357-16.349c-13.119,1.412-23.009,6.457-30.679,13.32
						C77.302,100.716,81.743,101.725,85.981,102.331z"/>
					<path fill="#7BD1EC" d="M133.614,102.533c5.449-0.809,10.091-2.02,13.927-3.027c-7.67-7.266-17.963-12.312-31.285-13.523
						C120.898,88.202,127.357,93.046,133.614,102.533z"/>
					<g>
						<path fill="#7BD1EC" d="M75.485,128.568c2.422-9.485,5.45-16.954,8.679-22.807c-4.642-0.808-9.486-2.019-14.33-3.431
							c-5.853,6.257-10.092,13.726-13.119,21.192C63.173,125.542,69.229,127.156,75.485,128.568z"/>
						<path fill="#7BD1EC" d="M55.504,126.753c-7.468,20.789-6.862,41.578-6.862,41.578c0.807,0,10.293,0,21.597,0
							c0.403-14.531,2.018-26.438,4.44-36.532C68.421,130.587,61.963,128.973,55.504,126.753z"/>
					</g>
					<g>
						<path fill="#7BD1EC" d="M111.816,104.35c6.458,0,12.513-0.605,17.963-1.211c-0.807-1.01-1.413-2.02-2.22-3.029
							c-6.257-8.072-12.514-11.101-15.743-12.109V104.35z"/>
						<path fill="#7BD1EC" d="M108.183,87.799c-3.229,1.01-9.688,3.834-16.146,12.312c-0.605,0.808-1.413,1.816-2.018,2.826
							c6.458,1.009,12.514,1.412,18.367,1.412V87.8L108.183,87.799L108.183,87.799z"/>
					</g>
					<path fill="#7BD1EC" d="M110,144.514L110,144.514L110,144.514L110,144.514L110,144.514
						c-13.523,0.202-13.119,24.02-13.119,24.02c0.403,0,11.505,0,12.917,0H110c1.413,0,12.514,0,12.917,0
						C122.917,168.533,123.522,144.716,110,144.514z"/>
				</g>
			</g>
			<rect x="108.587" y="42.991" fill="#7BD1EC" width="2.825" height="41.981"/>
			<path fill="#7BD1EC" d="M159.651,109.799c6.257-2.221,10.697-8.074,10.697-15.138c0-8.881-7.064-15.945-15.945-15.945
				c-7.267,0-13.523,4.845-15.339,11.707C145.926,94.057,153.394,100.109,159.651,109.799z"/>
			<path fill="#7BD1EC" d="M60.348,109.799c6.055-9.486,13.523-15.542,20.385-19.376c-1.817-6.862-8.074-11.907-15.339-11.907
				c-8.881,0-15.945,7.063-15.945,15.944C49.247,101.725,53.89,107.78,60.348,109.799z"/>
			<circle fill="#7BD1EC" cx="110" cy="36.331" r="4.642"/>
			<polygon fill="#7BD1EC" points="113.632,47.027 135.431,55.505 113.632,62.568 			"/>
		</g>
	</g>
	<g>
		<path fill="#FAFAF4" d="M330,220c-60.551,0-110-49.248-110-110C220,49.449,269.248,0,330,0c60.549,0,110,49.248,110,110
			C440,170.551,390.549,220,330,220z M330,20.184c-49.449,0-89.816,40.367-89.816,89.816s40.367,89.816,89.816,89.816
			S419.816,159.45,419.816,110S379.449,20.184,330,20.184z"/>
		<circle fill="#FAFAF4" cx="330" cy="110" r="99.908"/>
		<g>
			<path fill="#A2D077" d="M384.494,48.037l-2.824,2.624c13.521,13.926,21.393,33.303,20.385,54.293
				c-2.221,39.964-36.33,70.44-76.092,68.221c-19.376-1.01-36.734-9.688-49.046-23.01l-2.825,2.624
				c12.917,13.927,31.082,23.009,51.668,24.221c41.982,2.219,77.908-29.873,80.332-72.056
				C407.1,82.955,398.623,62.568,384.494,48.037z"/>
			<g>
				<g>
					<path fill="#A2D077" d="M384.092,132.202c0.402-0.604,0.605-1.21,1.01-1.816C384.697,131.193,384.293,131.799,384.092,132.202z
						"/>
					<path fill="#A2D077" d="M386.918,126.551c0.201-0.605,0.605-1.211,0.807-1.816C387.523,125.34,387.32,125.945,386.918,126.551z
						"/>
					<path fill="#A2D077" d="M390.146,117.268c0.2-0.605,0.401-1.211,0.401-1.816C390.549,116.057,390.348,116.661,390.146,117.268z
						"/>
					<path fill="#A2D077" d="M389.338,120.496c0.203-0.605,0.404-1.21,0.605-1.816C389.742,119.285,389.541,119.891,389.338,120.496
						z"/>
					<path fill="#A2D077" d="M385.504,129.376c0.203-0.604,0.605-1.21,0.809-1.815C386.109,128.368,385.908,128.771,385.504,129.376
						z"/>
					<path fill="#A2D077" d="M378.844,61.357c3.027,3.634,5.449,7.67,7.469,12.11C384.293,69.229,381.67,65.193,378.844,61.357z"/>
					<path fill="#A2D077" d="M382.678,84.368c1.011,0.807,1.211,1.21,3.029,1.21c0.402,0.404,0.605,0.808,1.008,1.211
						c0.203-0.605,0.81-1.01,1.01-2.02c0.808,0,1.816,0,2.824,0c0.404,1.211,0.605,2.422,0.81,3.633
						c-1.011-5.246-2.625-10.293-4.845-14.935c-1.211-0.604-2.422-1.211-3.836-1.414c0.404,2.222,2.826,4.037,4.644,5.046
						c-1.613,2.019-4.644,3.432-6.056,1.614c1.816,0.404,3.433,0.202,3.433-1.614c-0.81-1.211-2.625-2.22-3.433-3.834
						c-0.807-0.203-1.211-0.404-2.018-0.606c0-0.808-0.404-1.211-0.404-1.614c-0.201,0.202-0.201,0.605-0.403,0.807
						c-0.808,0.202-1.615,0-2.423,0c-0.2-0.403,0-0.807-0.2-1.211c-1.011-0.201-1.615,0-2.422,0.404
						c-0.201,0.403-0.201,1.01-0.201,1.614c-0.605,0.202-1.013,0-1.617,0.202c0,0.404,0,1.211-0.201,1.615
						c-1.613,1.211-3.633,2.219-5.854,1.816c0,0.202,0,1.009,0,1.21c4.44,1.413,9.891,1.009,14.332,2.222
						C378.643,81.945,379.65,84.973,382.678,84.368z"/>
					<path fill="#A2D077" d="M382.275,135.027c0.401-0.604,0.807-1.211,1.008-1.816C383.082,134.02,382.678,134.625,382.275,135.027
						z"/>
					<path fill="#A2D077" d="M379.854,138.661c-0.403,0.604-1.01,1.21-1.413,1.815C379.045,139.872,379.449,139.268,379.854,138.661
						z"/>
					<path fill="#A2D077" d="M380.459,137.854c0.402-0.605,0.807-1.211,1.211-1.816
						C381.266,136.643,380.861,137.248,380.459,137.854z"/>
					<path fill="#A2D077" d="M392.367,100.716c0-1.21,0-2.624-0.203-3.834C392.367,98.294,392.367,99.505,392.367,100.716z"/>
					<path fill="#A2D077" d="M391.762,92.037c-0.201-1.01-0.201-2.018-0.403-2.826C391.561,90.02,391.561,91.027,391.762,92.037z"/>
					<path fill="#A2D077" d="M392.166,95.872c0-1.009-0.203-1.815-0.203-2.826C391.963,94.057,392.166,94.863,392.166,95.872z"/>
					<path fill="#A2D077" d="M376.219,143.303c0.605-0.807,1.211-1.412,1.816-2.22C377.43,141.891,376.824,142.698,376.219,143.303z
						"/>
					<path fill="#A2D077" d="M371.375,148.146c1.615-1.412,3.23-3.026,4.643-4.643C374.402,145.12,372.99,146.734,371.375,148.146z"
						/>
					<path fill="#A2D077" d="M392.367,100.716c0,1.211,0,2.222,0,3.431C392.367,103.139,392.367,101.927,392.367,100.716z"/>
					<path fill="#A2D077" d="M391.963,107.578c0-0.807,0.203-1.413,0.203-2.221C392.166,105.964,392.166,106.771,391.963,107.578z"
						/>
					<path fill="#A2D077" d="M388.129,123.523c0.201-0.605,0.402-1.211,0.605-1.816C388.734,122.312,388.33,122.918,388.129,123.523
						z"/>
					<path fill="#A2D077" d="M391.561,110.809c0.201-0.605,0.201-1.414,0.201-2.019
						C391.762,109.395,391.762,110.202,391.561,110.809z"/>
					<path fill="#A2D077" d="M390.953,114.037c0.201-0.605,0.201-1.211,0.404-1.816
						C391.154,112.826,391.154,113.432,390.953,114.037z"/>
					<path fill="#A2D077" d="M378.238,72.863c0.201,0.604,0,1.009,0,1.613c0.201,0,0.807,0,1.211,0
						c0.201-1.412-0.605-1.613-1.615-2.019"/>
					<path fill="#A2D077" d="M328.586,36.936c-35.32,0-63.779,28.662-63.779,63.78c0,35.321,28.661,63.781,63.779,63.781
						c7.67,0,15.139-1.414,22-3.836c-1.412,0.403-2.623,1.01-4.035,1.413c-1.615-1.614-3.028-3.229-3.635-4.844
						c-0.201,0-0.402,0-0.605-0.203c-0.2-1.411-1.411-2.219-3.026-2.018c-0.605-4.643-4.238-6.66-5.246-10.496
						c-0.404-0.201-1.01,0-1.615-0.201c-0.809-2.221-8.477-3.229-10.697-5.045c-2.22-1.817-3.229-0.808-3.229-4.643
						c-0.201-3.027,0.807-3.633-0.605-6.661c-0.402-0.403-1.211-1.211-1.613-1.614c-0.404,0.201-1.01,0.201-1.414,0.403h-0.201l0,0
						c0,0.403,0,0.403,0,0c-2.826,1.211-7.064-0.808-9.285-2.221c-2.422-1.413-2.623-1.816-5.045-2.421
						c-2.02-0.404-4.037,0.201-6.055-1.01c-4.037-2.019-1.615-2.019-3.23-5.651c-0.605-1.413-3.027-3.634-4.238-4.037
						c-5.854-2.825,1.413,4.644,0.605,7.67c-5.046-2.019-4.844-9.284-7.467-13.119c-1.414-2.019-4.24-3.431-4.24-6.458
						c0-1.211,1.615-2.624,1.817-4.238c0-1.211-1.413-2.019-1.413-3.834c-2.22,0-2.623-2.019-3.432-3.432
						c-1.412,3.027-3.834,5.45-5.449,8.477c-0.605,1.01-1.412,2.222-2.22,3.634c0-1.21,0-2.624,0.202-3.835
						c1.008-3.229,2.422-4.036,4.238-6.66c2.825-4.44,4.037-10.092,7.871-14.734c0.808-1.009,2.221-2.826,3.229-3.432
						c1.614-1.01,3.229-0.605,4.642-1.614c2.02-1.211,3.432-3.026,5.652-4.239c4.642-2.421,10.293-2.421,15.138-4.844
						c0-2.624,3.229-3.633,5.046-4.037c0.201,0.404,0.201,0.807,0.403,1.01c1.816-0.808,3.229-1.816,5.247-1.816
						c0,0.605,0,1.009,0,1.615c-2.018,0.807-4.642,0.604-5.045,3.027c-4.238,1.211-11.303,12.715-1.211,12.109
						c-0.605,0.809-0.404,2.02-0.808,2.826c3.633,0.404,1.614-3.027,2.624-4.844c1.009-2.221,4.439-2.221,1.614-5.047
						c3.835,0.202,1.009-2.826,2.624-4.037c1.211-1.009,4.238-0.403,5.854-0.403c-0.201,0.403-0.404,1.009-0.808,1.614
						c2.019,0.404,7.267-4.237,6.457,1.615c0.81,0.202,1.212,0.605,2.021,0.605c0,0.404,0,1.211,0.201,1.615
						c3.229-1.414,4.237,4.439,4.037,6.861c-1.816,0-3.836,0-5.449,0.403c0.401-1.413,1.412-2.624,1.613-4.037
						c-3.431,3.229-6.66,1.815-10.293,4.642c2.02-1.613,6.256-1.816,5.854,1.615c1.412-0.201,2.422,0.404,3.633,0.605
						c-3.633,4.844-10.496,1.412-10.697,8.679c-0.605,0-1.01,0.202-1.615,0.202c-1.008,1.816-2.422,3.431-3.026,5.449
						c-0.808,2.625-0.202,3.836-1.817,6.258c-1.211,1.816-2.623,2.422-2.825,4.845c-0.202,2.019,1.816,3.834,1.211,6.257
						c-3.028,0.403-1.211-2.019-2.825-2.826c-2.019-1.01-1.413-1.01-4.238-0.403c-3.23,0.807-5.652,2.825-8.881,3.431
						c-0.203,1.816,1.614,6.458,2.422,8.073c0.807,1.614,1.009,3.431,3.431,2.422c1.614-0.808,0-2.826,1.817-3.633
						c4.439-2.22,1.815,4.036,3.633,5.853c2.824,2.826,4.439-0.807,5.65,5.047c0.808,0,2.019,0.201,3.027,0.201
						c0-0.201,0-0.402,0-0.807c1.414,0,2.625,0,3.633,0.807c-0.605-1.211,0-1.613,0.203-2.826c0.604-0.201,1.412-0.201,2.018-0.201
						c0.404-0.808,0.81-1.01,1.211-1.615c0.203,2.018,0,1.816,1.816,2.422c-0.605-0.605-0.402-1.211-0.808-2.018
						c0.605-0.404,2.22-1.211,2.824-1.211c0.203,0.403,0.404,0.808,0.404,1.211c3.229-2.625,6.459-1.011,9.688-0.203
						c2.423,0.605,9.283,0.203,9.89,2.826c0.403,0,1.211,0,1.614,0.203c-0.2,0.403-0.604,0.807-0.807,1.008
						c0.402,0.403,0.807,0,0.807,0.808c2.423-0.404,7.064,0.403,8.074-1.815c7.267,0.807,5.65,1.614,4.238,7.467
						c-0.809,2.826,0,4.643-1.615,7.267c-0.809,1.614-2.422,2.825-3.633,4.037c0.404,0.403,0.605,1.01,1.01,1.211
						c-2.625,1.01-2.02,4.44-4.846,4.644c0.404,0.402,0.404,0.2,0.809,0.604c-0.604,0.807-0.809,1.211-1.211,2.422
						c-1.01,0.201-1.815,1.01-2.422,1.211c0.201,0,0.402,0.202,0.605,0c-1.011,1.211,1.211,4.237,2.823,7.267
						c7.671-2.826,14.533-7.063,20.589-12.515c-1.011-2.222-0.81-5.854,1.01-7.063c-2.221-1.816-1.01-5.045-1.01-7.67
						c0-3.229,0.202-4.439,1.01-6.66c0.807-2.623,1.613-3.633,1.613-6.862c0-2.826-1.814-5.651-1.613-8.073
						c1.613-1.01,1.815-3.229,1.613-5.046c-1.209,0.404-2.623,0.604-4.035,0.808c-0.203-0.403,0-0.808-0.203-1.211
						c-4.439-0.203-10.695,0.808-14.531-1.412c-3.229-1.817-4.037-7.268-7.063-9.084c0-1.815,1.211-2.22,1.614-3.834
						c0.201-1.211,0-3.229,0.402-4.24c0.605-1.613,3.432-3.43,4.846-4.642c2.22-1.614,11.101-7.872,6.66-9.89
						c0.201-1.615,0.402-3.432,0.808-4.844c3.026-0.605,4.844,1.615,7.467,1.211c-0.402-1.615-1.008-3.432-2.019-5.047
						c2.623,0.203,4.441-1.008,7.064-1.008c0.807-1.211,2.221-2.02,3.633-2.423C367.137,46.422,348.973,36.936,328.586,36.936z
						 M346.348,51.268c-0.2,0.403,0,0.807-0.2,1.211c-2.021,0.201-3.634,1.614-3.433,3.834c-1.815-0.605-3.836-0.403-5.854-0.403
						c-0.605-2.22-1.211-4.44-1.412-6.257l0,0c-0.404,0-0.404,0,0,0l0,0c0-0.202,0.403-0.808,0.403-1.211
						c-0.604,0.201-1.413,0.201-2.02,0.201c0.404-0.402,0.809-1.211,1.211-1.613c-2.221-1.817-8.68-0.809-8.272-1.01
						c0.807-0.808,1.612-1.414,2.823-2.019c-4.643,0.808-8.275,4.642-12.916,4.239c1.412,0,2.219,0.402,3.229,0.807
						c-1.615,0.202-3.432,0.403-5.047,0.605c1.01,0.402,2.422,0.402,3.836,0.402l0,0c4.037-0.604,5.649,2.422,9.285,3.028
						c-0.81,0.606-0.203,1.009-2.021,1.211c0,0.604-0.203,1.413-0.203,2.019c-0.604,0.201-1.008,0-1.612,0.201
						c0,0.404,0,1.211-0.201,1.615c-2.021,0.807-3.834,0.605-5.854,0c2.02-4.238-0.404-4.037-3.835-4.037
						c-2.221,0-6.459-1.615-6.862,1.615c-1.211,0.202-2.826,0.202-4.238,0c0.201-0.404,0.605-0.809,0.807-1.009
						c-3.229,0.202-6.459,1.009-9.285,2.019c0.404-3.229,10.697-3.027,17.762-3.835c-0.201-0.202-1.211-1.614-1.211-1.614
						c1.01-0.807,0-1.211,2.221-1.211c-0.202-0.402-0.605-0.402-0.605-0.807c0.201-1.009,1.009-0.202,0-1.614
						c1.816-0.604,3.633-0.604,4.643-2.22c6.256-0.809,32.696-8.881,34.715,1.009c0.201,0.202,0.404,0.202,0.604,0.606
						C352.605,49.046,349.174,51.064,346.348,51.268z M354.826,51.468c-0.404-0.403-0.81-1.413-1.01-1.815
						c1.411,0.402,3.229,0.604,4.237,1.009l-0.403-0.808c0.403,0.403,0.807-0.404,0.807,0.403
						C357.852,51.67,356.439,51.872,354.826,51.468z M367.137,60.35c-1.412,0.403-3.026,0.201-4.037-0.809
						c0.203-0.202,0.81,0,1.011,0c-0.201-1.816,0.403-1.413,0.807-1.614l-0.807-0.403c1.01,0,2.02,0.403,2.825,0.403
						C367.34,58.734,367.34,59.744,367.137,60.35z M368.348,62.973c-0.2-0.201,0.404-0.402,0.404-0.604h-1.01
						c1.211-0.604,1.615-2.019,1.414-3.834c-0.404,0-0.81,0-1.211-0.202c0.604-1.21,0.604-1.413,0.807-2.826
						c0.605,0,1.412-0.201,2.018,0h-0.807c0.807,0.202,1.412,0.404,1.816,1.211c-0.404,0.404-0.81,1.01-1.211,1.413
						c1.414,2.019,1.414,4.238,3.633,5.248C372.385,62.771,370.367,62.973,368.348,62.973z"/>
				</g>
			</g>
			<circle fill="#A2D077" cx="383.283" cy="49.248" r="5.854"/>
			<circle fill="#A2D077" cx="275.101" cy="152.385" r="5.854"/>
			<path fill="#A2D077" d="M342.514,186.698L342.514,186.698L332.623,176c-0.605,0.404-1.412,0.605-2.221,0.605
				c-1.816,0-3.834-0.201-5.65-1.01c-0.404-0.201-0.807-0.404-1.211-0.605l-11.102,11.91c-0.807,0.402-1.412,1.613-1.412,2.824
				c0,1.615,1.009,3.027,2.22,3.027c0.202,0,27.651,0,28.056,0c1.211,0,2.22-1.412,2.22-3.027
				C343.725,188.109,343.119,187.102,342.514,186.698z"/>
			<path fill="#A2D077" d="M328.586,166.716c-36.33,0-66-29.67-66-66s29.67-66,66-66s66,29.669,66,66
				C394.586,137.248,364.916,166.716,328.586,166.716z M328.586,38.753c-34.109,0-61.963,27.854-61.963,61.963
				c0,34.11,27.854,61.964,61.963,61.964c34.111,0,61.963-27.854,61.963-61.964S362.697,38.753,328.586,38.753z"/>
		</g>
	</g>
	<g>
		<path fill="#FAFAF4" d="M550,220c-60.551,0-110-49.248-110-110C440,49.449,489.248,0,550,0c60.549,0,110,49.248,110,110
			C660,170.551,610.549,220,550,220z M550,20.184c-49.451,0-89.816,40.367-89.816,89.816s40.365,89.816,89.816,89.816
			c49.449,0,89.816-40.367,89.816-89.816S599.449,20.184,550,20.184z"/>
		<circle fill="#FAFAF4" cx="550" cy="110" r="99.908"/>
		<g>
			<g>
				<path fill="#FAB44A" d="M594.402,65.395c0.809-12.312-3.229-20.184-12.515-27.248h-0.2c-0.201-0.202-0.201-0.202-0.201-0.202
					c-11.304-2.221-19.982,0-28.662,8.88c4.844,5.854,11.102,10.698,18.57,14.129C578.863,64.184,586.734,65.598,594.402,65.395z"/>
				<path fill="#FAB44A" d="M522.953,124.331c0,0,9.688,12.515,34.111,15.34l-9.486,5.651l-22.404-10.092L522.953,124.331z"/>
			</g>
			<path fill="#FAB44A" d="M593.395,71.45c-8.274,0.202-16.752-1.413-24.625-5.046c-7.668-3.432-14.53-8.68-19.979-14.937
				c-19.174,20.386-30.275,55.707-30.275,55.707c1.613,1.817,3.433,3.634,5.046,5.046c-1.613,4.239-1.613,5.047-1.613,5.047
				c6.055,6.861,12.514,10.696,18.367,12.715c5.446,2.826,12.715,5.248,21.797,5.248c0,0,0.604-0.605,2.623-4.441
				c2.221,0.203,4.643,0.404,7.268,0.404C572,131.193,590.971,99.505,593.395,71.45z M551.816,104.752
				c-6.662-3.027-9.486-10.898-6.459-17.761c3.026-6.862,10.897-9.89,17.559-6.862c6.662,3.028,9.486,10.898,6.459,17.762
				C566.146,104.752,558.275,107.78,551.816,104.752z"/>
			<path fill="#FAB44A" d="M527.799,85.982c0,0-18.973-3.432-36.129,34.916l1.613,1.414c0,0,16.35-18.771,26.238-14.332
				l8.883-23.008"/>
			<path fill="#FAB44A" d="M581.283,110c0,0,15.139,11.908-2.221,50.055l-2.019-0.201c0,0,3.23-24.623-6.66-29.064l11.504-21.797"/>
			<path fill="#FAB44A" d="M533.652,143.303c0,0-23.213,6.258-19.984,46.221C513.668,189.523,545.963,164.092,533.652,143.303z"/>
			<path fill="#FAFAF4" d="M531.229,148.955c0,0-12.108,3.229-10.293,24.02C520.936,173.175,537.688,159.854,531.229,148.955z"/>
		</g>
		<path fill="#FAB44A" d="M516.697,67.211c0,2.018-1.211,2.624-2.826,1.615c-0.809-0.605-1.816-1.615-3.027-1.816
			s-2.422,0.605-3.432,1.01c-1.816,0.604-2.826-0.203-2.221-2.221c0.403-1.009,1.01-2.421,0.809-3.633
			c-0.203-1.009-1.414-2.018-2.02-2.624c-1.212-1.614-0.605-2.825,1.413-2.825c1.009,0,2.22,0.404,3.229-0.201
			s1.816-2.019,2.422-2.826c1.01-1.614,2.623-1.412,3.229,0.403c0.405,1.009,0.405,2.22,1.213,3.028
			c0.807,0.807,2.422,1.009,3.43,1.21c1.816,0.604,2.221,2.019,0.605,3.229c-0.808,0.604-2.22,1.008-2.623,2.019
			C516.293,64.587,516.494,66.404,516.697,67.211z"/>
		<path fill="#FAB44A" d="M589.156,184.881c0,1.413-0.81,2.02-2.222,1.211c-0.604-0.404-1.411-1.211-2.221-1.412
			c-0.807-0.203-1.815,0.402-2.623,0.604c-1.414,0.604-2.221-0.202-1.815-1.614c0.2-0.807,0.807-1.816,0.604-2.826
			c-0.203-0.807-1.01-1.412-1.414-2.018c-1.01-1.211-0.403-2.221,1.01-2.221c0.808,0,1.816,0.201,2.423-0.201
			c0.807-0.404,1.411-1.615,1.815-2.221c0.81-1.211,1.816-1.211,2.422,0.402c0.203,0.809,0.404,1.816,1.011,2.423
			c0.605,0.606,1.815,0.808,2.622,1.009c1.414,0.403,1.615,1.414,0.404,2.422c-0.604,0.404-1.615,0.809-2.018,1.615
			C588.752,182.864,589.156,184.074,589.156,184.881z"/>
		<path fill="#FAB44A" d="M489.045,82.35c-0.604,1.414-1.615,1.414-2.422,0.202c-0.404-0.605-0.807-1.817-1.412-2.22
			c-0.807-0.404-1.816-0.404-2.623-0.404c-1.617-0.201-2.02-1.211-0.809-2.22c0.604-0.604,1.615-1.413,1.815-2.222
			c0.203-0.807-0.401-1.815-0.401-2.42c-0.404-1.414,0.604-2.221,1.813-1.615c0.605,0.402,1.414,1.009,2.422,1.009
			c1.011,0,1.818-0.808,2.625-1.211c1.412-0.808,2.222-0.202,2.019,1.413c0,0.808-0.402,1.816-0.201,2.624
			c0.404,0.808,1.412,1.614,2.018,2.019c1.214,1.01,0.808,2.02-0.604,2.422c-0.808,0.202-1.816,0-2.623,0.605
			C489.65,80.331,489.449,81.744,489.045,82.35z"/>
	</g>
	<g>
		<path fill="#FAFAF4" d="M550,440c-60.551,0-110-49.248-110-110s49.248-110,110-110s110,49.248,110,110
			C660,390.551,610.549,440,550,440z M550,240.184c-49.451,0-89.816,40.367-89.816,89.816c0,49.451,40.365,89.816,89.816,89.816
			c49.449,0,89.816-40.365,89.816-89.816C639.816,280.551,599.449,240.184,550,240.184z"/>
		<circle fill="#FAFAF4" cx="550" cy="330" r="99.908"/>
		<g>
			<path fill="#FAB44A" d="M565.541,378.037h-31.082c-9.486,0-18.166-7.266-19.578-16.752l-2.02-12.109
				c-6.256-8.074-9.688-18.367-9.688-28.66c0-25.836,20.99-46.828,47.027-46.828c25.836,0,46.826,20.992,46.826,46.828
				c0,10.293-3.433,20.386-9.688,28.66l-2.02,12.109C583.705,370.771,575.027,378.037,565.541,378.037z M550,284.387
				c-19.982,0-36.332,16.349-36.332,36.33c0,8.478,3.029,16.549,8.277,23.008l1.008,1.011l2.422,14.733
				c0.605,4.238,5.047,7.871,9.084,7.871h31.082c4.238,0,8.477-3.633,9.082-7.871l2.422-14.733l1.01-1.011
				c5.248-6.459,8.275-14.731,8.275-23.008C586.33,300.734,569.98,284.387,550,284.387z"/>
			<path fill="#FAFAF4" d="M579.871,360.68c-1.008,6.66-7.67,12.312-14.33,12.312h-31.082c-6.863,0-13.322-5.451-14.332-12.312
				l-4.641-28.057c-1.011-6.66,3.633-12.312,10.293-12.312h48.44c6.861,0,11.504,5.449,10.293,12.312L579.871,360.68z"/>
			<path fill="#F5F5F5" d="M550,285.395c-19.578,0-35.32,15.945-35.32,35.322c0,19.578,15.943,35.32,35.32,35.32
				c19.578,0,35.32-15.945,35.32-35.32C585.32,301.34,569.578,285.395,550,285.395z"/>
			<circle fill="#FAFAF4" cx="550" cy="320.717" r="41.578"/>
			<path fill="#FAB44A" d="M574.422,324.955c0.201-0.203,0.404-0.605,0.605-0.809c0,0,0,0,0-0.201
				c0.2-0.201,0.403-0.605,0.604-0.808v-0.203c0.201-0.2,0.404-0.604,0.404-1.008v-0.203c0.201-0.2,0.201-0.604,0.401-0.807
				c0-0.201,0-0.201,0.203-0.402c0-0.203,0.201-0.606,0.201-0.809c0-0.203,0-0.404,0.201-0.404c0-0.201,0.201-0.403,0.201-0.807
				c0-0.203,0-0.404,0-0.605c0-0.2,0-0.403,0-0.604c0-0.404,0-0.808,0-1.211c0-8.275-6.66-14.938-14.935-14.938
				c-5.248,0-10.094,2.826-12.717,7.066c-2.623-4.24-7.266-7.066-12.715-7.066c-8.275,0-14.937,6.662-14.937,14.938
				c0,0.403,0,0.807,0,1.211c0,0.201,0,0.404,0,0.604c0,0.201,0,0.402,0,0.605c0,0.201,0.201,0.402,0.201,0.807
				c0,0.201,0,0.404,0.201,0.404c0,0.201,0.203,0.604,0.203,0.809c0,0.201,0,0.201,0.201,0.402c0.201,0.404,0.201,0.605,0.403,0.807
				v0.203c0.201,0.402,0.201,0.605,0.402,1.008v0.203c0.203,0.402,0.404,0.605,0.605,0.808c0,0,0,0,0,0.201
				c0.203,0.202,0.403,0.604,0.604,0.809l0,0l0,0c0,0,10.295,12.311,18.57,17.559c1.613,1.211,3.229,2.021,5.045,2.222l0,0
				c0.203,0,0.404,0,0.604,0l0,0l0,0c0.203,0,0.404,0,0.605,0l0,0c1.815-0.201,3.432-1.011,5.047-2.222
				C563.926,337.469,574.422,325.156,574.422,324.955L574.422,324.955C574.422,325.156,574.422,325.156,574.422,324.955z"/>
			<g>
				<g>
					<path fill="#FAB44A" d="M553.834,254.312c0,4.438-1.816,8.073-4.238,8.073s-4.237-3.635-4.237-8.073v-4.238
						c0-4.441,1.815-8.074,4.237-8.074s4.238,3.633,4.238,8.074V254.312z"/>
				</g>
				<g>
					<path fill="#FAB44A" d="M573.01,259.762c-1.817,4.037-4.846,6.66-7.065,5.652c-2.22-1.01-2.422-5.047-0.605-9.082l1.615-3.836
						c1.815-4.037,4.844-6.66,7.063-5.652c2.222,1.01,2.423,5.047,0.605,9.084L573.01,259.762z"/>
				</g>
				<g>
					<path fill="#FAB44A" d="M526.99,259.762c1.815,4.037,4.844,6.66,7.063,5.652c2.222-1.01,2.422-5.047,0.605-9.082l-1.615-3.836
						c-1.815-4.037-4.844-6.66-7.063-5.652c-2.22,1.01-2.423,5.047-0.605,9.084L526.99,259.762z"/>
				</g>
			</g>
			<g>
				<path fill="#FAB44A" d="M569.98,384.092c0,2.021-1.816,3.633-4.037,3.633h-31.688c-2.221,0-4.037-1.612-4.037-3.633
					c0-2.018,1.816-3.633,4.037-3.633h31.688C568.164,380.662,569.98,382.275,569.98,384.092z"/>
			</g>
			<g>
				<path fill="#FAB44A" d="M569.98,393.781c0,2.018-1.816,3.631-4.037,3.631h-31.688c-2.221,0-4.037-1.613-4.037-3.631
					c0-2.021,1.816-3.635,4.037-3.635h31.688C568.164,390.146,569.98,391.762,569.98,393.781z"/>
			</g>
			<g>
				<path fill="#FAB44A" d="M569.98,403.469c0,2.019-1.816,3.633-4.037,3.633h-31.688c-2.221,0-4.037-1.614-4.037-3.633
					c0-2.02,1.816-3.633,4.037-3.633h31.688C568.164,399.836,569.98,401.449,569.98,403.469z"/>
			</g>
			<path fill="#FAB44A" d="M550,418c4.844,0,8.879-3.834,8.879-8.477h-17.961C541.119,414.166,544.953,418,550,418z"/>
		</g>
	</g>
	<g>
		<path fill="#FAFAF4" d="M110,440C49.248,440,0,390.551,0,330c0-60.752,49.248-110,110-110s110,49.248,110,110
			C220,390.551,170.55,440,110,440z M110,240.184c-49.449,0-89.816,40.367-89.816,89.816c0,49.451,40.367,89.816,89.816,89.816
			s89.816-40.365,89.816-89.816C199.816,280.551,159.449,240.184,110,240.184z"/>
		<circle fill="#FAFAF4" cx="110" cy="330" r="99.908"/>
		<g>
			<path fill="#7BD1EC" d="M167.522,295.285c-1.413-7.873-4.44-14.533-8.275-19.779c1.01-2.02,0.404-5.248-0.605-6.863
				c-1.816-2.825-6.055-5.448-9.284-7.469c-10.496-6.256-25.432-9.889-42.789-9.082c-9.89,0.404-18.569,1.615-27.046,4.644
				c-3.633,1.412-7.064,3.026-10.496,5.248c-4.642,2.825-10.899,6.459-8.679,13.522c-8.073,9.486-11.505,29.062-7.064,44.604
				c-8.073,4.239-13.926,9.284-18.165,16.955c-3.834,7.266-5.853,18.166-2.422,28.055c4.238,12.514,13.523,21.395,27.248,25.432
				c3.834,1.011,11.302,2.625,16.146,1.414c4.844-1.414,3.634-6.66,3.229-12.11c-1.413-17.763-2.624-34.716-3.835-52.478
				c-0.202-2.826,0-6.459-1.009-8.479c-1.614-3.229-6.458-3.025-10.899-2.019c-3.431-12.715-0.808-28.457,5.853-36.129
				c5.046-0.605,6.863-3.834,10.294-5.854c7.468-4.439,17.963-6.66,29.871-6.66c12.11,0,22.404,2.424,29.872,6.66
				c3.633,2.02,5.854,5.247,10.697,5.854c6.458,7.672,9.083,23.213,5.853,36.129c-2.22-0.402-4.44-1.008-6.458-0.807
				c-5.651,0.403-4.844,6.256-5.449,11.707c-1.413,17.76-2.624,34.715-3.835,52.477c-0.202,2.824-1.009,6.66-0.202,8.678
				c1.413,3.433,6.257,3.636,11.303,3.23c8.275-0.809,14.935-3.633,19.981-6.861c7.064-4.643,12.715-11.102,15.542-19.578
				c5.247-15.744-1.615-30.479-10.092-38.147c-3.028-2.826-6.661-4.844-10.496-7.267
				C168.33,312.643,168.935,303.357,167.522,295.285z M79.926,330.203c0.605,8.477,1.009,15.338,1.816,24.018
				c0.808,9.285,1.211,15.138,1.615,24.019c0.202,2.826,0.202,6.258,1.009,7.67c1.817,3.836,8.478,3.633,9.89-0.201
				c0.807-2.021,0-5.854-0.202-8.275c-1.211-16.348-2.221-31.284-3.633-47.633c-0.202-2.623,0-6.055-1.009-7.67
				c-1.01-1.815-3.633-2.826-5.854-2.625C78.715,320.516,79.522,325.156,79.926,330.203z M129.174,330
				c-1.211,15.34-2.422,32.697-3.633,47.834c-0.202,2.625-0.807,5.854-0.202,7.672c0.808,2.019,2.826,3.229,5.046,3.229
				c5.853,0,5.248-5.248,5.853-10.496c1.211-16.349,2.221-31.688,3.633-48.035c0.202-2.422,0.807-6.459,0.202-8.074
				c-0.807-2.02-3.633-3.229-5.853-2.826C128.972,320.312,129.578,325.156,129.174,330z"/>
			<path fill="#7BD1EC" d="M166.311,320.109c3.835,2.424,7.468,4.44,10.496,7.268c8.477,7.871,15.339,22.404,10.092,38.146
				c-2.826,8.477-8.478,14.936-15.542,19.577c-5.046,3.433-11.707,6.257-19.981,6.863c-5.046,0.402-9.89,0.201-11.303-3.229
				c-0.807-2.019,0-5.854,0.202-8.679c1.211-17.965,2.422-34.918,3.835-52.479c0.404-5.449-0.202-11.101,5.449-11.705
				c2.019-0.203,4.44,0.604,6.458,0.807c3.229-12.717,0.808-28.459-5.853-36.129c-4.844-0.604-7.266-3.834-10.697-5.854
				c-7.468-4.238-17.761-6.66-29.872-6.66c-11.908,0-22.403,2.221-29.871,6.66c-3.431,2.02-5.248,5.248-10.294,5.854
				c-6.661,7.67-9.284,23.412-5.853,36.129c4.44-1.01,9.285-1.211,10.899,2.019c1.009,2.02,0.807,5.651,1.009,8.479
				c1.211,17.76,2.422,34.715,3.835,52.478c0.404,5.246,1.615,10.696-3.229,12.108c-4.642,1.414-12.312-0.203-16.146-1.412
				c-13.725-4.036-23.01-12.717-27.248-25.432c-3.229-9.891-1.413-20.789,2.422-28.055c4.037-7.67,10.092-12.717,18.165-16.955
				c-4.44-15.742-1.009-35.32,7.064-44.605c-2.22-7.063,4.037-10.696,8.679-13.522c3.431-2.019,6.862-3.834,10.496-5.246
				c8.275-3.23,17.156-4.238,27.046-4.644c17.156-0.807,32.092,2.824,42.789,9.082c3.229,1.816,7.468,4.644,9.284,7.468
				c1.211,1.817,1.615,5.047,0.605,6.862c3.835,5.248,6.862,11.908,8.275,19.781C168.935,303.357,168.33,312.643,166.311,320.109z"
				/>
			<g>
				<path fill="#7BD1EC" d="M68.421,313.652c0.807,2.018-0.202,4.237-2.22,5.045l-10.495,3.633c-2.018,0.809-4.44-0.402-5.248-2.422
					l-0.606-1.615c-0.807-2.018,0.202-4.236,2.22-5.045l10.496-3.633c2.019-0.808,4.44,0.403,5.248,2.422L68.421,313.652z"/>
			</g>
			<g>
				<path fill="#7BD1EC" d="M153.192,313.652c-0.807,2.018,0.202,4.237,2.22,5.045l10.496,3.633c2.019,0.809,4.44-0.402,5.248-2.422
					l0.605-1.615c0.808-2.018-0.202-4.236-2.22-5.045l-10.495-3.633c-2.018-0.808-4.44,0.403-5.248,2.422L153.192,313.652z"/>
			</g>
			<g>
				<g>
					<g>
						<path fill="#7BD1EC" d="M133.009,275.102c0-1.01-5.248-2.825-11.504-3.834c-6.257-1.01-16.753-1.01-23.01,0
							c-6.458,1.009-11.504,2.623-11.504,3.834c0,1.212,5.046,1.412,11.504,0.605c6.459-0.809,16.753-0.809,23.01,0
							C127.761,276.514,133.009,276.111,133.009,275.102z"/>
					</g>
				</g>
			</g>
		</g>
	</g>
	<g>
		<path fill="#FAFAF4" d="M330,440c-60.551,0-110-49.248-110-110s49.248-110,110-110s110,49.248,110,110S390.549,440,330,440z
			 M330,240.184c-49.449,0-89.816,40.367-89.816,89.816c0,49.451,40.367,89.816,89.816,89.816s89.816-40.365,89.816-89.816
			C419.816,280.551,379.449,240.184,330,240.184z"/>
		<circle fill="#FAFAF4" cx="330" cy="330" r="99.908"/>
		<g>
			<g>
				<g>
					<defs>
						<circle id="SVGID_1_" cx="330" cy="330" r="99.908"/>
					</defs>
					<clipPath id="SVGID_2_">
						<use xlink:href="#SVGID_1_"  overflow="visible"/>
					</clipPath>
					<g clip-path="url(#SVGID_2_)">
						<g>
							<path fill="#F37573" d="M358.66,377.432h-57.119c-7.266,0-13.321-5.854-13.321-13.321v-85.576
								c0-7.269,5.853-13.322,13.321-13.322h57.119c7.266,0,13.322,5.854,13.322,13.322v85.375
								C371.779,371.377,365.926,377.432,358.66,377.432z M301.541,270.662c-4.44,0-7.871,3.631-7.871,7.871v85.375
								c0,4.44,3.633,7.871,7.871,7.871h57.119c4.438,0,7.871-3.634,7.871-7.871v-85.375c0-4.441-3.633-7.871-7.871-7.871H301.541
								L301.541,270.662z"/>
							<path fill="#FAFAF4" d="M369.156,364.109c0,5.854-4.847,10.698-10.699,10.698h-57.118c-5.854,0-10.697-4.846-10.697-10.698
								v-85.576c0-5.854,4.844-10.699,10.697-10.699h57.118c5.854,0,10.699,4.846,10.699,10.699V364.109z"/>
							<g>
								<path fill="#F37573" d="M362.092,389.744c0,2.221-1.815,4.037-4.037,4.037h-56.716c-2.22,0-4.036-1.816-4.036-4.037v-2.826
									c0-2.221,1.816-4.037,4.036-4.037h56.716c2.222,0,4.037,1.816,4.037,4.037V389.744z"/>
							</g>
						</g>
						<g>
							<path fill="#F37573" d="M460.586,377.432h-57.119c-7.266,0-13.319-5.854-13.319-13.321v-85.576
								c0-7.269,5.854-13.322,13.319-13.322h57.119c7.266,0,13.322,5.854,13.322,13.322v85.375
								C473.705,371.377,467.852,377.432,460.586,377.432z M403.266,270.662c-4.438,0-7.871,3.631-7.871,7.871v85.375
								c0,4.44,3.634,7.871,7.871,7.871h57.119c4.441,0,7.871-3.634,7.871-7.871v-85.375c0-4.441-3.633-7.871-7.871-7.871H403.266
								L403.266,270.662z"/>
							<path fill="#FAFAF4" d="M471.082,364.109c0,5.854-4.844,10.698-10.697,10.698h-57.119c-5.854,0-10.696-4.846-10.696-10.698
								v-85.576c0-5.854,4.844-10.699,10.696-10.699h57.119c5.854,0,10.697,4.846,10.697,10.699V364.109z"/>
							<g>
								<path fill="#F37573" d="M464.018,389.744c0,2.221-1.815,4.037-4.036,4.037h-56.716c-2.221,0-4.036-1.816-4.036-4.037v-2.826
									c0-2.221,1.815-4.037,4.036-4.037h56.716c2.221,0,4.036,1.816,4.036,4.037V389.744z"/>
							</g>
						</g>
						<g>
							<path fill="#F37573" d="M256.733,377.432h-57.321c-7.267,0-13.322-5.854-13.322-13.321v-85.576
								c0-7.269,5.854-13.322,13.322-13.322h57.119c7.266,0,13.321,5.854,13.321,13.322v85.375
								C269.853,371.377,264,377.432,256.733,377.432z M199.413,270.662c-4.441,0-7.872,3.631-7.872,7.871v85.375
								c0,4.44,3.633,7.871,7.872,7.871h57.119c4.441,0,7.872-3.634,7.872-7.871v-85.375c0-4.441-3.633-7.871-7.872-7.871H199.413
								L199.413,270.662z"/>
							<path fill="#FAFAF4" d="M267.229,364.109c0,5.854-4.844,10.698-10.697,10.698h-57.119c-5.854,0-10.698-4.846-10.698-10.698
								v-85.576c0-5.854,4.844-10.699,10.698-10.699h57.119c5.854,0,10.697,4.846,10.697,10.699V364.109z"/>
							<g>
								<path fill="#F37573" d="M260.164,389.744c0,2.221-1.816,4.037-4.036,4.037h-56.715c-2.22,0-4.037-1.816-4.037-4.037v-2.826
									c0-2.221,1.817-4.037,4.037-4.037h56.715c2.22,0,4.036,1.816,4.036,4.037V389.744z"/>
							</g>
						</g>
						<g>
							<ellipse fill="#F37573" cx="331.008" cy="312.845" rx="30.275" ry="28.458"/>
							<circle fill="#F37573" cx="312.036" cy="289.634" r="7.468"/>
							<g>
								<circle fill="#FAFAF4" cx="320.918" cy="311.028" r="2.825"/>
								<circle fill="#FAFAF4" cx="341.102" cy="311.028" r="2.825"/>
							</g>
							<circle fill="#F37573" cx="350.385" cy="289.634" r="7.468"/>
							<path fill="#F37573" d="M342.514,348.57c0,8.477-5.047,11.303-11.506,11.303c-6.256,0-11.504-2.826-11.504-11.303
								c0-8.479,5.047-15.343,11.504-15.343C337.266,333.229,342.514,340.092,342.514,348.57z"/>
							<path fill="#F37573" d="M321.523,339.891c0,0-11.909,4.037-9.487,9.486c2.221,5.65,8.476-3.029,8.476-3.029L321.523,339.891z
								"/>
							<path fill="#F37573" d="M340.496,339.891c0,0,11.906,4.037,9.484,9.486c-2.22,5.65-8.478-3.029-8.478-3.029L340.496,339.891z
								"/>
							<path fill="#F37573" d="M319.705,352.607c0,0-0.605,13.725,4.643,14.731c5.248,1.01,2.625-10.092,2.625-10.092
								L319.705,352.607z"/>
							<path fill="#F37573" d="M341.707,352.607c0,0,0.605,13.725-4.643,14.731c-5.248,1.01-2.625-10.092-2.625-10.092
								L341.707,352.607z"/>
							<g>
								<path fill="#FAFAF4" d="M329.596,316.074c-0.403-0.605-0.201-1.01,0.404-1.01h1.816c0.604,0,0.807,0.403,0.401,1.01
									l-0.604,0.807c-0.402,0.605-1.008,0.605-1.412,0L329.596,316.074z"/>
							</g>
							<path fill="#FAFAF4" d="M338.072,318.697c-0.201-0.404-0.808-0.808-1.211-0.808H325.76c-0.604,0-1.008,0.402-1.412,0.808
								c-0.2,2.02-0.2,7.469,6.66,7.469C337.67,326.166,338.072,320.717,338.072,318.697z"/>
						</g>
					</g>
				</g>
			</g>
		</g>
	</g>
</g>
</svg>
