<?xml version="1.0" encoding="utf-8"?>
<!-- Generator: Adobe Illustrator 16.0.0, SVG Export Plug-In . SVG Version: 6.00 Build 0)  -->
<!DOCTYPE svg PUBLIC "-//W3C//DTD SVG 1.1//EN" "http://www.w3.org/Graphics/SVG/1.1/DTD/svg11.dtd">
<svg version="1.1" id="Layer_1" xmlns="http://www.w3.org/2000/svg" xmlns:xlink="http://www.w3.org/1999/xlink" x="0px" y="0px"
	 width="660px" height="440px" viewBox="-24 176 660 440" enable-background="new -24 176 660 440" xml:space="preserve">
<g>
	<g>
		<path fill="#FAFAF4" d="M86,396c-60.752,0-110-49.449-110-110c0-60.752,49.248-110,110-110c60.551,0,110,49.248,110,110
			C196,346.551,146.55,396,86,396z M86,196.184c-49.449,0-89.816,40.367-89.816,89.816S36.55,375.817,86,375.817
			S175.816,335.45,175.816,286S135.449,196.184,86,196.184z"/>
		<circle fill="#FAFAF4" cx="86" cy="286" r="99.908"/>
		<g>
			<g>
				<g>
					<path fill="#7BD1EC" d="M84.183,308v-24.22c-6.458,0-13.119-0.605-20.385-1.615c-3.229,5.652-6.459,12.917-9.083,23.009
						C65.211,306.992,74.899,308,84.183,308z"/>
					<path fill="#7BD1EC" d="M116.678,305.78c-2.624-10.092-5.853-17.761-9.082-23.413c-5.854,0.807-12.716,1.413-19.982,1.614
						v24.22C98.312,308,108.201,307.193,116.678,305.78z"/>
					<g>
						<path fill="#7BD1EC" d="M139.688,300.735c-3.028-7.872-7.267-15.743-13.322-22.202c-3.835,1.009-8.88,2.22-14.734,3.229
							c3.431,6.055,6.459,13.725,8.881,23.413C127.981,303.762,134.44,302.147,139.688,300.735z"/>
						<path fill="#7BD1EC" d="M121.119,308.606c2.221,9.891,3.633,21.597,4.239,35.725c11.504,0,21.193,0,22,0
							c0,0,0.605-19.981-6.459-40.367C135.651,305.579,128.789,307.193,121.119,308.606z"/>
					</g>
					<path fill="#7BD1EC" d="M83.577,311.432c-9.284-0.202-19.174-1.009-29.468-3.027c-2.22,9.688-3.834,21.395-4.44,35.725
						c4.44,0,9.083,0,13.321,0C64.403,332.221,68.844,313.45,83.577,311.432z"/>
					<path fill="#7BD1EC" d="M108.807,344.331c4.239,0,8.679,0,12.917,0c-0.403-14.128-2.019-25.633-4.238-35.119
						c-8.477,1.413-18.367,2.422-28.862,2.422C103.155,313.652,107.596,332.221,108.807,344.331z"/>
					<path fill="#7BD1EC" d="M61.981,278.331c6.055-9.486,12.513-14.129,17.357-16.349c-13.119,1.413-23.009,6.458-30.679,13.321
						C53.302,276.716,57.743,277.725,61.981,278.331z"/>
					<path fill="#7BD1EC" d="M109.614,278.533c5.449-0.808,10.091-2.019,13.927-3.027c-7.67-7.266-17.963-12.312-31.285-13.523
						C96.898,264.202,103.357,269.046,109.614,278.533z"/>
					<g>
						<path fill="#7BD1EC" d="M51.485,304.569c2.422-9.486,5.45-16.955,8.679-22.807c-4.642-0.808-9.486-2.019-14.33-3.431
							c-5.853,6.257-10.092,13.725-13.119,21.192C39.173,301.542,45.229,303.156,51.485,304.569z"/>
						<path fill="#7BD1EC" d="M31.504,302.753c-7.468,20.789-6.862,41.578-6.862,41.578c0.807,0,10.293,0,21.597,0
							c0.403-14.531,2.018-26.439,4.44-36.532C44.421,306.587,37.963,304.973,31.504,302.753z"/>
					</g>
					<g>
						<path fill="#7BD1EC" d="M87.816,280.349c6.458,0,12.513-0.605,17.963-1.211c-0.807-1.009-1.413-2.019-2.22-3.028
							c-6.257-8.073-12.514-11.101-15.743-12.11V280.349z"/>
						<path fill="#7BD1EC" d="M84.183,263.799c-3.229,1.009-9.688,3.834-16.146,12.312c-0.605,0.808-1.413,1.817-2.018,2.826
							c6.458,1.009,12.514,1.413,18.367,1.413v-16.55H84.183z"/>
					</g>
					<path fill="#7BD1EC" d="M86,320.514L86,320.514L86,320.514L86,320.514L86,320.514c-13.523,0.202-13.119,24.019-13.119,24.019
						c0.403,0,11.505,0,12.917,0H86c1.413,0,12.514,0,12.917,0C98.917,344.533,99.522,320.716,86,320.514z"/>
				</g>
			</g>
			<rect x="84.587" y="218.991" fill="#7BD1EC" width="2.825" height="41.981"/>
			<path fill="#7BD1EC" d="M135.651,285.799c6.257-2.221,10.697-8.074,10.697-15.138c0-8.881-7.064-15.945-15.945-15.945
				c-7.267,0-13.523,4.844-15.339,11.707C121.926,270.056,129.394,276.11,135.651,285.799z"/>
			<path fill="#7BD1EC" d="M36.348,285.799c6.055-9.486,13.523-15.542,20.385-19.376c-1.817-6.862-8.074-11.908-15.339-11.908
				c-8.881,0-15.945,7.064-15.945,15.945C25.247,277.725,29.89,283.78,36.348,285.799z"/>
			<circle fill="#7BD1EC" cx="86" cy="212.331" r="4.642"/>
			<polygon fill="#7BD1EC" points="89.632,223.028 111.431,231.505 89.632,238.569 			"/>
		</g>
	</g>
	<g>
		<path fill="#FAFAF4" d="M306,396c-60.551,0-110-49.248-110-110c0-60.551,49.248-110,110-110c60.549,0,110,49.248,110,110
			C416,346.551,366.549,396,306,396z M306,196.184c-49.449,0-89.816,40.367-89.816,89.816s40.367,89.816,89.816,89.816
			S395.816,335.45,395.816,286S355.449,196.184,306,196.184z"/>
		<circle fill="#FAFAF4" cx="306" cy="286" r="99.908"/>
		<g>
			<path fill="#A2D077" d="M360.494,224.037l-2.824,2.624c13.521,13.926,21.393,33.303,20.385,54.293
				c-2.221,39.964-36.33,70.44-76.092,68.221c-19.376-1.01-36.734-9.688-49.046-23.01l-2.825,2.624
				c12.917,13.927,31.082,23.009,51.668,24.221c41.982,2.219,77.908-29.873,80.332-72.056
				C383.1,258.955,374.623,238.569,360.494,224.037z"/>
			<g>
				<g>
					<path fill="#A2D077" d="M360.092,308.202c0.402-0.605,0.605-1.21,1.01-1.816C360.697,307.193,360.293,307.799,360.092,308.202z
						"/>
					<path fill="#A2D077" d="M362.918,302.551c0.201-0.605,0.605-1.211,0.807-1.816C363.523,301.34,363.32,301.945,362.918,302.551z
						"/>
					<path fill="#A2D077" d="M366.146,293.267c0.201-0.605,0.402-1.211,0.402-1.816
						C366.549,292.056,366.348,292.661,366.146,293.267z"/>
					<path fill="#A2D077" d="M365.338,296.496c0.203-0.605,0.404-1.21,0.605-1.816C365.742,295.285,365.541,295.891,365.338,296.496
						z"/>
					<path fill="#A2D077" d="M361.504,305.376c0.203-0.605,0.605-1.21,0.809-1.816C362.109,304.368,361.908,304.771,361.504,305.376
						z"/>
					<path fill="#A2D077" d="M354.844,237.358c3.027,3.633,5.449,7.669,7.469,12.11C360.293,245.229,357.67,241.193,354.844,237.358
						z"/>
					<path fill="#A2D077" d="M358.678,260.368c1.01,0.807,1.211,1.21,3.029,1.21c0.402,0.404,0.605,0.808,1.008,1.211
						c0.203-0.605,0.809-1.01,1.01-2.019c0.807,0,1.816,0,2.824,0c0.404,1.211,0.605,2.422,0.809,3.633
						c-1.01-5.247-2.625-10.293-4.844-14.935c-1.211-0.605-2.422-1.211-3.836-1.414c0.404,2.221,2.826,4.037,4.643,5.046
						c-1.613,2.018-4.643,3.431-6.055,1.614c1.816,0.404,3.432,0.202,3.432-1.614c-0.809-1.211-2.625-2.22-3.432-3.835
						c-0.807-0.202-1.211-0.403-2.018-0.606c0-0.807-0.404-1.211-0.404-1.614c-0.201,0.202-0.201,0.605-0.404,0.807
						c-0.807,0.202-1.615,0-2.422,0c-0.201-0.404,0-0.807-0.201-1.211c-1.01-0.202-1.615,0-2.422,0.404
						c-0.201,0.403-0.201,1.009-0.201,1.614c-0.605,0.203-1.012,0-1.617,0.203c0,0.403,0,1.21-0.201,1.614
						c-1.613,1.211-3.633,2.22-5.854,1.817c0,0.202,0,1.009,0,1.21c4.441,1.413,9.891,1.009,14.332,2.221
						C354.643,257.945,355.65,260.973,358.678,260.368z"/>
					<path fill="#A2D077" d="M358.275,311.028c0.402-0.605,0.807-1.211,1.008-1.817
						C359.082,310.019,358.678,310.625,358.275,311.028z"/>
					<path fill="#A2D077" d="M355.854,314.661c-0.404,0.605-1.01,1.21-1.414,1.816C355.045,315.872,355.449,315.267,355.854,314.661
						z"/>
					<path fill="#A2D077" d="M356.459,313.854c0.402-0.606,0.807-1.211,1.211-1.817
						C357.266,312.643,356.861,313.248,356.459,313.854z"/>
					<path fill="#A2D077" d="M368.367,276.716c0-1.21,0-2.624-0.203-3.834C368.367,274.294,368.367,275.505,368.367,276.716z"/>
					<path fill="#A2D077" d="M367.762,268.037c-0.201-1.009-0.201-2.018-0.404-2.826
						C367.561,266.019,367.561,267.028,367.762,268.037z"/>
					<path fill="#A2D077" d="M368.166,271.872c0-1.009-0.203-1.816-0.203-2.826C367.963,270.056,368.166,270.863,368.166,271.872z"
						/>
					<path fill="#A2D077" d="M352.219,319.303c0.605-0.807,1.211-1.412,1.816-2.22C353.43,317.891,352.824,318.698,352.219,319.303z
						"/>
					<path fill="#A2D077" d="M347.375,324.147c1.615-1.412,3.23-3.027,4.643-4.643C350.402,321.12,348.99,322.735,347.375,324.147z"
						/>
					<path fill="#A2D077" d="M368.367,276.716c0,1.211,0,2.221,0,3.431C368.367,279.138,368.367,277.927,368.367,276.716z"/>
					<path fill="#A2D077" d="M367.963,283.578c0-0.807,0.203-1.413,0.203-2.22C368.166,281.964,368.166,282.771,367.963,283.578z"/>
					<path fill="#A2D077" d="M364.129,299.523c0.201-0.605,0.402-1.211,0.605-1.816C364.734,298.312,364.33,298.918,364.129,299.523
						z"/>
					<path fill="#A2D077" d="M367.561,286.808c0.201-0.605,0.201-1.413,0.201-2.018
						C367.762,285.395,367.762,286.202,367.561,286.808z"/>
					<path fill="#A2D077" d="M366.953,290.037c0.201-0.605,0.201-1.211,0.404-1.816
						C367.154,288.826,367.154,289.432,366.953,290.037z"/>
					<path fill="#A2D077" d="M354.238,248.863c0.201,0.605,0,1.009,0,1.614c0.201,0,0.807,0,1.211,0
						c0.201-1.413-0.605-1.614-1.615-2.019"/>
					<path fill="#A2D077" d="M304.586,212.936c-35.32,0-63.779,28.661-63.779,63.78c0,35.321,28.661,63.781,63.779,63.781
						c7.67,0,15.139-1.414,22-3.836c-1.412,0.404-2.623,1.01-4.035,1.413c-1.615-1.614-3.029-3.229-3.635-4.844
						c-0.201,0-0.402,0-0.605-0.202c-0.201-1.412-1.412-2.22-3.027-2.018c-0.605-4.643-4.238-6.661-5.246-10.496
						c-0.404-0.201-1.01,0-1.615-0.201c-0.809-2.221-8.477-3.229-10.697-5.046s-3.23-0.807-3.23-4.642
						c-0.201-3.027,0.807-3.633-0.605-6.661c-0.402-0.404-1.211-1.211-1.613-1.615c-0.404,0.202-1.01,0.202-1.414,0.404h-0.201l0,0
						c0,0.403,0,0.403,0,0c-2.826,1.211-7.064-0.808-9.285-2.221c-2.422-1.413-2.623-1.816-5.045-2.421
						c-2.02-0.404-4.037,0.202-6.055-1.01c-4.037-2.018-1.615-2.018-3.23-5.651c-0.605-1.413-3.027-3.633-4.238-4.037
						c-5.854-2.825,1.413,4.643,0.605,7.67c-5.046-2.019-4.844-9.284-7.467-13.119c-1.414-2.019-4.24-3.431-4.24-6.458
						c0-1.211,1.615-2.624,1.817-4.238c0-1.211-1.413-2.019-1.413-3.835c-2.22,0-2.623-2.018-3.432-3.431
						c-1.412,3.027-3.834,5.45-5.449,8.477c-0.605,1.009-1.412,2.221-2.22,3.633c0-1.21,0-2.624,0.202-3.834
						c1.008-3.229,2.422-4.037,4.238-6.661c2.825-4.44,4.037-10.092,7.871-14.734c0.808-1.009,2.221-2.826,3.229-3.432
						c1.614-1.009,3.229-0.605,4.642-1.614c2.02-1.211,3.432-3.027,5.652-4.239c4.642-2.421,10.293-2.421,15.138-4.844
						c0-2.624,3.229-3.633,5.046-4.037c0.201,0.404,0.201,0.807,0.403,1.009c1.816-0.807,3.229-1.816,5.247-1.816
						c0,0.605,0,1.009,0,1.615c-2.018,0.807-4.642,0.605-5.045,3.028c-4.238,1.21-11.303,12.715-1.211,12.109
						c-0.605,0.808-0.404,2.019-0.808,2.826c3.633,0.404,1.614-3.027,2.624-4.844c1.009-2.22,4.439-2.22,1.614-5.046
						c3.835,0.202,1.009-2.826,2.624-4.037c1.211-1.009,4.238-0.404,5.854-0.404c-0.201,0.404-0.404,1.009-0.807,1.615
						c2.018,0.404,7.266-4.238,6.457,1.615c0.809,0.202,1.211,0.605,2.02,0.605c0,0.404,0,1.211,0.201,1.615
						c3.23-1.414,4.238,4.44,4.037,6.862c-1.816,0-3.836,0-5.449,0.403c0.402-1.413,1.412-2.624,1.613-4.037
						c-3.43,3.229-6.66,1.816-10.293,4.642c2.02-1.614,6.256-1.817,5.854,1.615c1.412-0.202,2.422,0.404,3.633,0.605
						c-3.633,4.844-10.496,1.413-10.697,8.679c-0.605,0-1.01,0.202-1.615,0.202c-1.008,1.817-2.422,3.431-3.026,5.45
						c-0.808,2.624-0.202,3.835-1.817,6.257c-1.211,1.817-2.623,2.422-2.825,4.845c-0.202,2.018,1.816,3.834,1.211,6.257
						c-3.028,0.403-1.211-2.019-2.825-2.826c-2.019-1.01-1.413-1.01-4.238-0.404c-3.23,0.807-5.652,2.825-8.881,3.431
						c-0.203,1.816,1.614,6.458,2.422,8.073c0.807,1.615,1.009,3.431,3.431,2.422c1.614-0.807,0-2.826,1.817-3.633
						c4.439-2.22,1.815,4.037,3.633,5.853c2.824,2.826,4.439-0.807,5.65,5.046c0.808,0,2.019,0.202,3.027,0.202
						c0-0.202,0-0.403,0-0.807c1.414,0,2.625,0,3.633,0.807c-0.605-1.211,0-1.614,0.203-2.826c0.604-0.202,1.412-0.202,2.018-0.202
						c0.404-0.807,0.809-1.009,1.211-1.615c0.203,2.018,0,1.816,1.816,2.422c-0.605-0.605-0.402-1.211-0.807-2.018
						c0.605-0.404,2.219-1.211,2.824-1.211c0.203,0.404,0.404,0.808,0.404,1.211c3.23-2.624,6.459-1.01,9.689-0.202
						c2.422,0.605,9.283,0.202,9.889,2.826c0.404,0,1.211,0,1.615,0.202c-0.201,0.404-0.605,0.807-0.807,1.009
						c0.402,0.403,0.807,0,0.807,0.807c2.422-0.404,7.064,0.403,8.074-1.816c7.266,0.807,5.65,1.615,4.238,7.468
						c-0.809,2.826,0,4.642-1.615,7.266c-0.809,1.615-2.422,2.826-3.633,4.037c0.404,0.404,0.605,1.01,1.01,1.211
						c-2.625,1.01-2.02,4.44-4.846,4.643c0.404,0.403,0.404,0.201,0.809,0.605c-0.605,0.807-0.809,1.211-1.211,2.422
						c-1.01,0.201-1.816,1.01-2.422,1.211c0.201,0,0.402,0.202,0.605,0c-1.01,1.211,1.211,4.238,2.824,7.266
						c7.67-2.825,14.533-7.063,20.588-12.514c-1.01-2.221-0.809-5.854,1.01-7.064c-2.221-1.816-1.01-5.045-1.01-7.669
						c0-3.229,0.203-4.44,1.01-6.661c0.807-2.623,1.613-3.633,1.613-6.862c0-2.826-1.814-5.651-1.613-8.073
						c1.613-1.01,1.816-3.229,1.613-5.046c-1.209,0.404-2.623,0.605-4.035,0.807c-0.203-0.403,0-0.807-0.203-1.211
						c-4.439-0.202-10.695,0.808-14.531-1.412c-3.23-1.817-4.037-7.267-7.064-9.083c0-1.816,1.211-2.22,1.615-3.835
						c0.201-1.211,0-3.229,0.402-4.239c0.605-1.614,3.432-3.431,4.846-4.642c2.219-1.615,11.1-7.872,6.66-9.89
						c0.201-1.615,0.402-3.431,0.807-4.844c3.027-0.605,4.844,1.615,7.467,1.211c-0.402-1.615-1.008-3.431-2.018-5.046
						c2.623,0.202,4.441-1.009,7.064-1.009c0.807-1.211,2.221-2.019,3.633-2.422C343.137,222.422,324.973,212.936,304.586,212.936z
						 M322.348,227.267c-0.201,0.404,0,0.807-0.201,1.211c-2.02,0.202-3.633,1.615-3.432,3.834
						c-1.816-0.605-3.836-0.403-5.854-0.403c-0.605-2.22-1.211-4.44-1.412-6.257l0,0c-0.404,0-0.404,0,0,0l0,0
						c0-0.202,0.404-0.807,0.404-1.211c-0.605,0.202-1.414,0.202-2.02,0.202c0.404-0.403,0.809-1.211,1.211-1.614
						c-2.221-1.817-8.68-0.808-8.273-1.01c0.807-0.807,1.613-1.413,2.824-2.018c-4.643,0.808-8.275,4.642-12.916,4.239
						c1.412,0,2.219,0.403,3.229,0.807c-1.615,0.202-3.432,0.403-5.047,0.605c1.01,0.403,2.422,0.403,3.836,0.403l0,0
						c4.037-0.605,5.65,2.422,9.285,3.028c-0.809,0.606-0.203,1.009-2.02,1.211c0,0.605-0.203,1.413-0.203,2.018
						c-0.605,0.202-1.008,0-1.613,0.202c0,0.404,0,1.211-0.201,1.615c-2.02,0.807-3.834,0.605-5.854,0
						c2.02-4.238-0.404-4.037-3.835-4.037c-2.221,0-6.459-1.615-6.862,1.615c-1.211,0.202-2.826,0.202-4.238,0
						c0.201-0.404,0.605-0.808,0.807-1.009c-3.229,0.202-6.459,1.009-9.285,2.019c0.404-3.229,10.697-3.027,17.762-3.835
						c-0.201-0.202-1.211-1.614-1.211-1.614c1.01-0.807,0-1.211,2.221-1.211c-0.202-0.403-0.605-0.403-0.605-0.807
						c0.201-1.009,1.009-0.202,0-1.614c1.816-0.605,3.633-0.605,4.643-2.22c6.256-0.808,32.697-8.881,34.715,1.009
						c0.201,0.202,0.404,0.202,0.605,0.606C328.605,225.046,325.174,227.065,322.348,227.267z M330.826,227.468
						c-0.404-0.403-0.809-1.413-1.01-1.816c1.412,0.403,3.229,0.605,4.238,1.009l-0.404-0.808c0.404,0.404,0.807-0.404,0.807,0.404
						C333.852,227.67,332.439,227.872,330.826,227.468z M343.137,236.349c-1.412,0.404-3.027,0.202-4.037-0.808
						c0.203-0.202,0.809,0,1.01,0c-0.201-1.816,0.404-1.413,0.807-1.614l-0.807-0.404c1.01,0,2.02,0.404,2.826,0.404
						C343.34,234.734,343.34,235.744,343.137,236.349z M344.348,238.973c-0.201-0.202,0.404-0.403,0.404-0.605h-1.01
						c1.211-0.605,1.615-2.018,1.414-3.834c-0.404,0-0.809,0-1.211-0.202c0.605-1.21,0.605-1.413,0.807-2.826
						c0.605,0,1.412-0.202,2.018,0h-0.807c0.807,0.202,1.412,0.404,1.816,1.211c-0.404,0.404-0.809,1.009-1.211,1.413
						c1.414,2.019,1.414,4.238,3.633,5.248C348.385,238.771,346.367,238.973,344.348,238.973z"/>
				</g>
			</g>
			<circle fill="#A2D077" cx="359.283" cy="225.248" r="5.854"/>
			<circle fill="#A2D077" cx="251.101" cy="328.385" r="5.854"/>
			<path fill="#A2D077" d="M318.514,362.698L318.514,362.698L308.623,352c-0.605,0.404-1.412,0.605-2.221,0.605
				c-1.816,0-3.834-0.201-5.65-1.01c-0.404-0.201-0.807-0.403-1.211-0.605L288.439,362.9c-0.807,0.403-1.412,1.614-1.412,2.825
				c0,1.615,1.009,3.027,2.22,3.027c0.202,0,27.651,0,28.056,0c1.211,0,2.219-1.412,2.219-3.027
				C319.725,364.11,319.119,363.102,318.514,362.698z"/>
			<path fill="#A2D077" d="M304.586,342.716c-36.33,0-66-29.67-66-66c0-36.33,29.67-66,66-66s66,29.669,66,66
				C370.586,313.248,340.916,342.716,304.586,342.716z M304.586,214.753c-34.109,0-61.963,27.854-61.963,61.963
				c0,34.11,27.854,61.963,61.963,61.963c34.111,0,61.963-27.853,61.963-61.963C366.549,242.606,338.697,214.753,304.586,214.753z"
				/>
		</g>
	</g>
	<g>
		<path fill="#FAFAF4" d="M526,396c-60.551,0-110-49.248-110-110c0-60.551,49.248-110,110-110c60.549,0,110,49.248,110,110
			C636,346.551,586.549,396,526,396z M526,196.184c-49.451,0-89.816,40.367-89.816,89.816s40.365,89.816,89.816,89.816
			c49.449,0,89.816-40.367,89.816-89.816S575.449,196.184,526,196.184z"/>
		<circle fill="#FAFAF4" cx="526" cy="286" r="99.908"/>
		<g>
			<g>
				<path fill="#FAB44A" d="M570.402,241.395c0.809-12.312-3.229-20.184-12.514-27.248h-0.201c-0.201-0.202-0.201-0.202-0.201-0.202
					c-11.303-2.221-19.982,0-28.662,8.88c4.844,5.854,11.102,10.698,18.57,14.129C554.863,240.184,562.734,241.597,570.402,241.395z
					"/>
				<path fill="#FAB44A" d="M498.953,300.331c0,0,9.688,12.514,34.111,15.34l-9.486,5.651l-22.404-10.092L498.953,300.331z"/>
			</g>
			<path fill="#FAB44A" d="M569.395,247.45c-8.275,0.202-16.752-1.413-24.625-5.046c-7.668-3.432-14.531-8.679-19.98-14.936
				c-19.174,20.385-30.275,55.707-30.275,55.707c1.613,1.817,3.432,3.633,5.045,5.046c-1.613,4.239-1.613,5.046-1.613,5.046
				c6.055,6.862,12.514,10.697,18.367,12.715c5.447,2.826,12.715,5.248,21.797,5.248c0,0,0.605-0.605,2.623-4.441
				c2.221,0.203,4.643,0.404,7.268,0.404C548,307.193,566.971,275.505,569.395,247.45z M527.816,280.752
				c-6.662-3.027-9.486-10.899-6.459-17.761s10.898-9.89,17.559-6.862c6.662,3.028,9.486,10.899,6.459,17.761
				C542.146,280.752,534.275,283.78,527.816,280.752z"/>
			<path fill="#FAB44A" d="M503.799,261.982c0,0-18.973-3.431-36.129,34.917l1.613,1.413c0,0,16.35-18.771,26.238-14.331
				l8.883-23.009"/>
			<path fill="#FAB44A" d="M557.283,286c0,0,15.139,11.908-2.221,50.055l-2.018-0.201c0,0,3.23-24.624-6.66-29.065l11.504-21.797"/>
			<path fill="#FAB44A" d="M509.652,319.303c0,0-23.213,6.257-19.984,46.221C489.668,365.524,521.963,340.092,509.652,319.303z"/>
			<path fill="#FAFAF4" d="M507.229,324.955c0,0-12.109,3.229-10.293,24.019C496.936,349.175,513.688,335.854,507.229,324.955z"/>
		</g>
		<path fill="#FAB44A" d="M492.697,243.211c0,2.018-1.211,2.624-2.826,1.615c-0.809-0.605-1.816-1.615-3.027-1.816
			s-2.422,0.605-3.432,1.009c-1.816,0.605-2.826-0.202-2.221-2.22c0.404-1.009,1.01-2.421,0.809-3.633
			c-0.203-1.009-1.414-2.018-2.02-2.624c-1.211-1.614-0.605-2.825,1.414-2.825c1.008,0,2.219,0.404,3.229-0.202
			c1.01-0.605,1.816-2.018,2.422-2.825c1.01-1.615,2.623-1.413,3.229,0.403c0.406,1.009,0.406,2.22,1.213,3.028
			c0.807,0.807,2.422,1.009,3.43,1.21c1.816,0.605,2.221,2.019,0.605,3.229c-0.807,0.605-2.219,1.009-2.623,2.019
			C492.293,240.587,492.494,242.404,492.697,243.211z"/>
		<path fill="#FAB44A" d="M565.156,360.881c0,1.413-0.809,2.019-2.221,1.211c-0.605-0.404-1.412-1.211-2.221-1.413
			c-0.807-0.202-1.816,0.403-2.623,0.605c-1.414,0.605-2.221-0.202-1.816-1.614c0.201-0.807,0.807-1.816,0.605-2.826
			c-0.203-0.807-1.01-1.412-1.414-2.018c-1.01-1.211-0.404-2.221,1.01-2.221c0.807,0,1.816,0.202,2.422-0.201
			c0.807-0.404,1.412-1.615,1.816-2.221c0.809-1.211,1.816-1.211,2.422,0.403c0.203,0.808,0.404,1.817,1.01,2.423
			s1.816,0.807,2.623,1.008c1.414,0.404,1.615,1.414,0.404,2.423c-0.605,0.403-1.615,0.808-2.018,1.614
			C564.752,358.864,565.156,360.074,565.156,360.881z"/>
		<path fill="#FAB44A" d="M465.045,258.349c-0.605,1.414-1.615,1.414-2.422,0.203c-0.404-0.606-0.807-1.817-1.412-2.22
			c-0.807-0.404-1.816-0.404-2.623-0.404c-1.617-0.202-2.02-1.211-0.809-2.22c0.605-0.605,1.615-1.413,1.816-2.221
			c0.203-0.807-0.402-1.816-0.402-2.421c-0.404-1.413,0.605-2.22,1.814-1.615c0.605,0.403,1.414,1.009,2.422,1.009
			c1.01,0,1.818-0.807,2.625-1.211c1.412-0.807,2.221-0.202,2.018,1.413c0,0.808-0.402,1.817-0.201,2.624
			c0.404,0.808,1.412,1.615,2.018,2.019c1.213,1.009,0.807,2.019-0.605,2.422c-0.807,0.202-1.816,0-2.623,0.605
			C465.65,256.331,465.449,257.744,465.045,258.349z"/>
	</g>
	<g>
		<path fill="#FAFAF4" d="M526,616c-60.551,0-110-49.248-110-110s49.248-110,110-110s110,49.248,110,110
			C636,566.551,586.549,616,526,616z M526,416.184c-49.451,0-89.816,40.367-89.816,89.816c0,49.451,40.365,89.816,89.816,89.816
			c49.449,0,89.816-40.365,89.816-89.816C615.816,456.551,575.449,416.184,526,416.184z"/>
		<circle fill="#FAFAF4" cx="526" cy="506" r="99.908"/>
		<g>
			<path fill="#FAB44A" d="M541.541,554.037h-31.082c-9.486,0-18.166-7.266-19.578-16.752l-2.02-12.109
				c-6.256-8.074-9.688-18.367-9.688-28.66c0-25.836,20.99-46.828,47.027-46.828c25.836,0,46.826,20.992,46.826,46.828
				c0,10.293-3.432,20.385-9.688,28.66l-2.02,12.109C559.705,546.771,551.027,554.037,541.541,554.037z M526,460.387
				c-19.982,0-36.332,16.348-36.332,36.33c0,8.477,3.029,16.549,8.277,23.008l1.008,1.01l2.422,14.734
				c0.605,4.238,5.047,7.871,9.084,7.871h31.082c4.238,0,8.477-3.633,9.082-7.871l2.422-14.734l1.01-1.01
				c5.248-6.459,8.275-14.732,8.275-23.008C562.33,476.734,545.98,460.387,526,460.387z"/>
			<path fill="#FAFAF4" d="M555.871,536.68c-1.008,6.66-7.67,12.312-14.33,12.312h-31.082c-6.863,0-13.322-5.451-14.332-12.312
				l-4.641-28.057c-1.01-6.66,3.633-12.311,10.293-12.311h48.441c6.861,0,11.504,5.449,10.293,12.311L555.871,536.68z"/>
			<path fill="#F5F5F5" d="M526,461.395c-19.578,0-35.32,15.945-35.32,35.322c0,19.578,15.943,35.32,35.32,35.32
				c19.578,0,35.32-15.945,35.32-35.32C561.32,477.34,545.578,461.395,526,461.395z"/>
			<circle fill="#FAFAF4" cx="526" cy="496.717" r="41.578"/>
			<path fill="#FAB44A" d="M550.422,500.955c0.201-0.203,0.404-0.605,0.605-0.809c0,0,0,0,0-0.201
				c0.201-0.201,0.404-0.605,0.605-0.807v-0.203c0.201-0.201,0.404-0.605,0.404-1.008v-0.203c0.201-0.201,0.201-0.605,0.402-0.807
				c0-0.201,0-0.201,0.203-0.402c0-0.203,0.201-0.607,0.201-0.809c0-0.203,0-0.404,0.201-0.404c0-0.201,0.201-0.404,0.201-0.807
				c0-0.203,0-0.404,0-0.605s0-0.404,0-0.605c0-0.404,0-0.807,0-1.211c0-8.275-6.66-14.938-14.934-14.938
				c-5.248,0-10.094,2.826-12.717,7.066c-2.623-4.24-7.266-7.066-12.715-7.066c-8.275,0-14.936,6.662-14.936,14.938
				c0,0.404,0,0.807,0,1.211c0,0.201,0,0.404,0,0.605s0,0.402,0,0.605c0,0.201,0.201,0.402,0.201,0.807c0,0.201,0,0.404,0.201,0.404
				c0,0.201,0.203,0.605,0.203,0.809c0,0.201,0,0.201,0.201,0.402c0.201,0.404,0.201,0.605,0.404,0.807v0.203
				c0.201,0.402,0.201,0.605,0.402,1.008v0.203c0.203,0.402,0.404,0.605,0.605,0.807c0,0,0,0,0,0.201
				c0.203,0.203,0.404,0.605,0.605,0.809l0,0l0,0c0,0,10.295,12.311,18.57,17.559c1.613,1.211,3.229,2.02,5.045,2.221l0,0
				c0.203,0,0.404,0,0.605,0l0,0l0,0c0.203,0,0.404,0,0.605,0l0,0c1.816-0.201,3.432-1.01,5.047-2.221
				C539.926,513.469,550.422,501.156,550.422,500.955L550.422,500.955C550.422,501.156,550.422,501.156,550.422,500.955z"/>
			<g>
				<g>
					<path fill="#FAB44A" d="M529.834,430.312c0,4.439-1.816,8.074-4.238,8.074s-4.238-3.635-4.238-8.074v-4.238
						c0-4.441,1.816-8.074,4.238-8.074s4.238,3.633,4.238,8.074V430.312z"/>
				</g>
				<g>
					<path fill="#FAB44A" d="M549.01,435.762c-1.818,4.037-4.846,6.66-7.066,5.652c-2.219-1.01-2.422-5.047-0.605-9.082l1.615-3.836
						c1.816-4.037,4.844-6.66,7.064-5.652c2.221,1.01,2.422,5.047,0.605,9.084L549.01,435.762z"/>
				</g>
				<g>
					<path fill="#FAB44A" d="M502.99,435.762c1.816,4.037,4.844,6.66,7.064,5.652c2.221-1.01,2.422-5.047,0.605-9.082l-1.615-3.836
						c-1.816-4.037-4.844-6.66-7.064-5.652c-2.219,1.01-2.422,5.047-0.605,9.084L502.99,435.762z"/>
				</g>
			</g>
			<g>
				<path fill="#FAB44A" d="M545.98,560.092c0,2.02-1.816,3.633-4.037,3.633h-31.688c-2.221,0-4.037-1.613-4.037-3.633
					c0-2.018,1.816-3.633,4.037-3.633h31.688C544.164,556.662,545.98,558.275,545.98,560.092z"/>
			</g>
			<g>
				<path fill="#FAB44A" d="M545.98,569.781c0,2.018-1.816,3.631-4.037,3.631h-31.688c-2.221,0-4.037-1.613-4.037-3.631
					c0-2.02,1.816-3.635,4.037-3.635h31.688C544.164,566.146,545.98,567.762,545.98,569.781z"/>
			</g>
			<g>
				<path fill="#FAB44A" d="M545.98,579.469c0,2.018-1.816,3.633-4.037,3.633h-31.688c-2.221,0-4.037-1.615-4.037-3.633
					c0-2.02,1.816-3.633,4.037-3.633h31.688C544.164,575.836,545.98,577.449,545.98,579.469z"/>
			</g>
			<path fill="#FAB44A" d="M526,594c4.844,0,8.879-3.834,8.879-8.477h-17.961C517.119,590.166,520.953,594,526,594z"/>
		</g>
	</g>
	<g>
		<path fill="#FAFAF4" d="M86,616c-60.752,0-110-49.449-110-110c0-60.752,49.248-110,110-110s110,49.248,110,110
			C196,566.551,146.55,616,86,616z M86,416.184c-49.449,0-89.816,40.367-89.816,89.816c0,49.451,40.367,89.816,89.816,89.816
			s89.816-40.365,89.816-89.816C175.816,456.551,135.449,416.184,86,416.184z"/>
		<circle fill="#FAFAF4" cx="86" cy="506" r="99.908"/>
		<g>
			<path fill="#7BD1EC" d="M143.522,471.285c-1.413-7.873-4.44-14.533-8.275-19.779c1.01-2.02,0.404-5.248-0.605-6.863
				c-1.816-2.826-6.055-5.449-9.284-7.469c-10.496-6.256-25.432-9.889-42.789-9.082c-9.89,0.404-18.569,1.615-27.046,4.643
				c-3.633,1.412-7.064,3.027-10.496,5.248c-4.642,2.826-10.899,6.459-8.679,13.523c-8.073,9.486-11.505,29.062-7.064,44.604
				c-8.073,4.24-13.926,9.285-18.165,16.955c-3.834,7.266-5.853,18.166-2.422,28.055c4.238,12.514,13.523,21.395,27.248,25.432
				c3.834,1.01,11.302,2.625,16.146,1.414c4.844-1.414,3.634-6.66,3.229-12.111c-1.413-17.762-2.624-34.715-3.835-52.477
				c-0.202-2.826,0-6.459-1.009-8.479c-1.614-3.229-6.458-3.025-10.899-2.018c-3.431-12.715-0.808-28.457,5.853-36.129
				c5.046-0.605,6.863-3.834,10.294-5.854c7.468-4.439,17.963-6.66,29.871-6.66c12.11,0,22.404,2.424,29.872,6.66
				c3.633,2.02,5.854,5.248,10.697,5.854c6.458,7.672,9.083,23.213,5.853,36.129c-2.22-0.402-4.44-1.008-6.458-0.807
				c-5.651,0.404-4.844,6.256-5.449,11.707c-1.413,17.76-2.624,34.715-3.835,52.477c-0.202,2.824-1.009,6.66-0.202,8.678
				c1.413,3.432,6.257,3.635,11.303,3.23c8.275-0.809,14.935-3.633,19.981-6.861c7.064-4.643,12.715-11.102,15.542-19.578
				c5.247-15.744-1.615-30.479-10.092-38.148c-3.028-2.826-6.661-4.844-10.496-7.266
				C144.33,488.643,144.935,479.357,143.522,471.285z M55.926,506.203c0.605,8.477,1.009,15.338,1.816,24.018
				c0.808,9.285,1.211,15.137,1.615,24.018c0.202,2.826,0.202,6.258,1.009,7.67c1.817,3.836,8.478,3.633,9.89-0.201
				c0.807-2.02,0-5.854-0.202-8.275c-1.211-16.348-2.221-31.285-3.633-47.633c-0.202-2.623,0-6.055-1.009-7.67
				c-1.01-1.816-3.633-2.826-5.854-2.625C54.715,496.516,55.522,501.156,55.926,506.203z M105.174,506
				c-1.211,15.34-2.422,32.697-3.633,47.834c-0.202,2.625-0.807,5.854-0.202,7.672c0.808,2.018,2.826,3.229,5.046,3.229
				c5.853,0,5.248-5.248,5.853-10.496c1.211-16.348,2.221-31.688,3.633-48.035c0.202-2.422,0.807-6.459,0.202-8.074
				c-0.807-2.02-3.633-3.23-5.853-2.826C104.972,496.312,105.578,501.156,105.174,506z"/>
			<path fill="#7BD1EC" d="M142.311,496.109c3.835,2.424,7.468,4.441,10.496,7.268c8.477,7.871,15.339,22.404,10.092,38.146
				c-2.826,8.477-8.478,14.936-15.542,19.578c-5.046,3.432-11.707,6.256-19.981,6.863c-5.046,0.402-9.89,0.201-11.303-3.23
				c-0.807-2.018,0-5.854,0.202-8.678c1.211-17.965,2.422-34.918,3.835-52.479c0.404-5.449-0.202-11.1,5.449-11.705
				c2.019-0.203,4.44,0.605,6.458,0.807c3.229-12.717,0.808-28.459-5.853-36.129c-4.844-0.605-7.266-3.834-10.697-5.854
				c-7.468-4.238-17.761-6.66-29.872-6.66c-11.908,0-22.403,2.221-29.871,6.66c-3.431,2.02-5.248,5.248-10.294,5.854
				c-6.661,7.67-9.284,23.412-5.853,36.129c4.44-1.01,9.285-1.211,10.899,2.018c1.009,2.02,0.807,5.652,1.009,8.479
				c1.211,17.76,2.422,34.715,3.835,52.477c0.404,5.246,1.615,10.697-3.229,12.109c-4.642,1.414-12.312-0.203-16.146-1.412
				c-13.725-4.037-23.01-12.717-27.248-25.432c-3.229-9.891-1.413-20.789,2.422-28.055c4.037-7.67,10.092-12.717,18.165-16.955
				c-4.44-15.742-1.009-35.32,7.064-44.605c-2.22-7.064,4.037-10.697,8.679-13.523c3.431-2.018,6.862-3.834,10.496-5.246
				c8.275-3.23,17.156-4.238,27.046-4.643c17.156-0.807,32.092,2.824,42.789,9.082c3.229,1.816,7.468,4.643,9.284,7.467
				c1.211,1.818,1.615,5.047,0.605,6.863c3.835,5.248,6.862,11.908,8.275,19.781C144.935,479.357,144.33,488.643,142.311,496.109z"
				/>
			<g>
				<path fill="#7BD1EC" d="M44.421,489.652c0.807,2.018-0.202,4.238-2.22,5.045l-10.495,3.633c-2.018,0.809-4.44-0.402-5.248-2.422
					l-0.606-1.615c-0.807-2.018,0.202-4.236,2.22-5.045l10.496-3.633c2.019-0.807,4.44,0.404,5.248,2.422L44.421,489.652z"/>
			</g>
			<g>
				<path fill="#7BD1EC" d="M129.192,489.652c-0.807,2.018,0.202,4.238,2.22,5.045l10.496,3.633c2.019,0.809,4.44-0.402,5.248-2.422
					l0.605-1.615c0.808-2.018-0.202-4.236-2.22-5.045l-10.495-3.633c-2.018-0.807-4.44,0.404-5.248,2.422L129.192,489.652z"/>
			</g>
			<g>
				<g>
					<g>
						<path fill="#7BD1EC" d="M109.009,451.102c0-1.01-5.248-2.826-11.504-3.834c-6.257-1.01-16.753-1.01-23.01,0
							c-6.458,1.008-11.504,2.623-11.504,3.834s5.046,1.412,11.504,0.605c6.459-0.809,16.753-0.809,23.01,0
							C103.761,452.514,109.009,452.111,109.009,451.102z"/>
					</g>
				</g>
			</g>
		</g>
	</g>
	<g>
		<path fill="#FAFAF4" d="M306,616c-60.551,0-110-49.248-110-110s49.248-110,110-110c60.752,0,110,49.248,110,110
			S366.549,616,306,616z M306,416.184c-49.449,0-89.816,40.367-89.816,89.816c0,49.451,40.367,89.816,89.816,89.816
			s89.816-40.365,89.816-89.816C395.816,456.551,355.449,416.184,306,416.184z"/>
		<circle fill="#FAFAF4" cx="306" cy="506" r="99.908"/>
		<g>
			<g>
				<defs>
					<circle id="SVGID_1_" cx="306" cy="506" r="99.908"/>
				</defs>
				<clipPath id="SVGID_2_">
					<use xlink:href="#SVGID_1_"  overflow="visible"/>
				</clipPath>
				<g clip-path="url(#SVGID_2_)">
					<g>
						<path fill="#F37573" d="M334.66,553.432h-57.119c-7.266,0-13.321-5.854-13.321-13.322v-85.576
							c0-7.268,5.853-13.322,13.321-13.322h57.119c7.266,0,13.322,5.854,13.322,13.322v85.375
							C347.779,547.377,341.926,553.432,334.66,553.432z M277.541,446.662c-4.44,0-7.871,3.631-7.871,7.871v85.375
							c0,4.441,3.633,7.871,7.871,7.871h57.119c4.439,0,7.871-3.633,7.871-7.871v-85.375c0-4.441-3.633-7.871-7.871-7.871H277.541z"
							/>
						<path fill="#FAFAF4" d="M345.156,540.109c0,5.854-4.846,10.699-10.699,10.699h-57.118c-5.854,0-10.697-4.846-10.697-10.699
							v-85.576c0-5.854,4.844-10.699,10.697-10.699h57.118c5.854,0,10.699,4.846,10.699,10.699V540.109z"/>
						<g>
							<path fill="#F37573" d="M338.092,565.744c0,2.221-1.816,4.037-4.037,4.037h-56.716c-2.22,0-4.036-1.816-4.036-4.037v-2.826
								c0-2.221,1.816-4.037,4.036-4.037h56.716c2.221,0,4.037,1.816,4.037,4.037V565.744z"/>
						</g>
					</g>
					<g>
						<path fill="#F37573" d="M436.586,553.432h-57.119c-7.266,0-13.32-5.854-13.32-13.322v-85.576
							c0-7.268,5.854-13.322,13.32-13.322h57.119c7.266,0,13.322,5.854,13.322,13.322v85.375
							C449.705,547.377,443.852,553.432,436.586,553.432z M379.266,446.662c-4.439,0-7.871,3.631-7.871,7.871v85.375
							c0,4.441,3.633,7.871,7.871,7.871h57.119c4.441,0,7.871-3.633,7.871-7.871v-85.375c0-4.441-3.633-7.871-7.871-7.871H379.266z"
							/>
						<path fill="#FAFAF4" d="M447.082,540.109c0,5.854-4.844,10.699-10.697,10.699h-57.119c-5.854,0-10.697-4.846-10.697-10.699
							v-85.576c0-5.854,4.844-10.699,10.697-10.699h57.119c5.854,0,10.697,4.846,10.697,10.699V540.109z"/>
						<g>
							<path fill="#F37573" d="M440.018,565.744c0,2.221-1.816,4.037-4.037,4.037h-56.715c-2.221,0-4.037-1.816-4.037-4.037v-2.826
								c0-2.221,1.816-4.037,4.037-4.037h56.715c2.221,0,4.037,1.816,4.037,4.037V565.744z"/>
						</g>
					</g>
					<g>
						<path fill="#F37573" d="M232.733,553.432h-57.321c-7.267,0-13.322-5.854-13.322-13.322v-85.576
							c0-7.268,5.854-13.322,13.322-13.322h57.119c7.266,0,13.321,5.854,13.321,13.322v85.375
							C245.853,547.377,240,553.432,232.733,553.432z M175.413,446.662c-4.441,0-7.872,3.631-7.872,7.871v85.375
							c0,4.441,3.633,7.871,7.872,7.871h57.119c4.441,0,7.872-3.633,7.872-7.871v-85.375c0-4.441-3.633-7.871-7.872-7.871H175.413z"
							/>
						<path fill="#FAFAF4" d="M243.229,540.109c0,5.854-4.844,10.699-10.697,10.699h-57.119c-5.854,0-10.698-4.846-10.698-10.699
							v-85.576c0-5.854,4.844-10.699,10.698-10.699h57.119c5.854,0,10.697,4.846,10.697,10.699V540.109z"/>
						<g>
							<path fill="#F37573" d="M236.164,565.744c0,2.221-1.816,4.037-4.036,4.037h-56.715c-2.22,0-4.037-1.816-4.037-4.037v-2.826
								c0-2.221,1.817-4.037,4.037-4.037h56.715c2.22,0,4.036,1.816,4.036,4.037V565.744z"/>
						</g>
					</g>
					<g>
						<ellipse fill="#F37573" cx="307.008" cy="488.845" rx="30.275" ry="28.458"/>
						<circle fill="#F37573" cx="288.036" cy="465.634" r="7.468"/>
						<g>
							<circle fill="#FAFAF4" cx="296.918" cy="487.028" r="2.825"/>
							<circle fill="#FAFAF4" cx="317.102" cy="487.028" r="2.825"/>
						</g>
						<circle fill="#F37573" cx="326.385" cy="465.634" r="7.468"/>
						<path fill="#F37573" d="M318.514,524.57c0,8.477-5.047,11.303-11.506,11.303c-6.256,0-11.504-2.826-11.504-11.303
							c0-8.479,5.047-15.342,11.504-15.342C313.266,509.229,318.514,516.092,318.514,524.57z"/>
						<path fill="#F37573" d="M297.523,515.891c0,0-11.909,4.037-9.487,9.486c2.221,5.65,8.476-3.029,8.476-3.029L297.523,515.891z"
							/>
						<path fill="#F37573" d="M316.496,515.891c0,0,11.906,4.037,9.484,9.486c-2.219,5.65-8.477-3.029-8.477-3.029L316.496,515.891z
							"/>
						<path fill="#F37573" d="M295.705,528.607c0,0-0.605,13.725,4.643,14.732c5.248,1.01,2.625-10.092,2.625-10.092
							L295.705,528.607z"/>
						<path fill="#F37573" d="M317.707,528.607c0,0,0.605,13.725-4.643,14.732c-5.248,1.01-2.625-10.092-2.625-10.092
							L317.707,528.607z"/>
						<g>
							<path fill="#FAFAF4" d="M305.596,492.074c-0.404-0.605-0.201-1.01,0.404-1.01h1.816c0.605,0,0.807,0.404,0.402,1.01
								l-0.605,0.807c-0.402,0.605-1.008,0.605-1.412,0L305.596,492.074z"/>
						</g>
						<path fill="#FAFAF4" d="M314.072,494.697c-0.201-0.404-0.807-0.807-1.211-0.807H301.76c-0.605,0-1.008,0.402-1.412,0.807
							c-0.201,2.02-0.201,7.469,6.66,7.469C313.67,502.166,314.072,496.717,314.072,494.697z"/>
					</g>
				</g>
			</g>
		</g>
	</g>
</g>
</svg>
