<?xml version="1.0" encoding="utf-8"?>
<!-- Generator: Adobe Illustrator 16.0.0, SVG Export Plug-In . SVG Version: 6.00 Build 0)  -->
<!DOCTYPE svg PUBLIC "-//W3C//DTD SVG 1.1//EN" "http://www.w3.org/Graphics/SVG/1.1/DTD/svg11.dtd">
<svg version="1.1" id="Layer_1" xmlns="http://www.w3.org/2000/svg" xmlns:xlink="http://www.w3.org/1999/xlink" x="0px" y="0px"
	 width="80px" height="140px" viewBox="0 0 80 140" enable-background="new 0 0 80 140" xml:space="preserve">
<g>
	<g>
		<path fill="#FFFFFF" d="M27.67,37.685c3.042-5.409,7.438-8.789,13.859-7.099c0,0,9.465,6.084,11.831,8.789
			c1.352,1.352,3.718,5.069,4.395,7.099c7.774,20.62-32.789,27.719-42.931,11.155C6.712,44.106,23.613,45.121,27.67,37.685z"/>
		<path fill="#FFFFFF" d="M22.6,9.289c10.142-12.507,25.015,5.748,18.593,11.493C37.473,27.543,10.77,23.824,22.6,9.289z"/>
		<path fill="#FFFFFF" d="M22.261,32.613c-1.014,5.071-4.394,9.127-10.479,9.465c-5.746,0.338-10.479-3.041-11.493-8.451
			C-3.091,18.754,24.289,23.824,22.261,32.613z"/>
		<path fill="#FFFFFF" d="M62.149,13.008c0,0,5.407,5.408,3.718,11.492c-1.353,5.748-8.112,5.071-12.846,3.381
			C41.191,23.148,50.656,5.908,62.149,13.008z"/>
		<path fill="#FFFFFF" d="M63.501,32.951c4.396-4.394,10.817-2.703,12.846-1.352c2.029,1.352,5.07,4.732,2.028,10.141
			c-2.705,5.409-7.438,5.07-12.17,2.366C61.812,41.064,58.431,37.685,63.501,32.951z"/>
	</g>
</g>
<g>
	<g>
		<path fill="#DDCCBB" d="M27.67,106.206c3.042-5.408,7.438-8.789,13.859-7.099c0,0,9.465,6.084,11.831,8.788
			c1.352,1.353,3.718,5.071,4.395,7.099c7.774,20.62-32.789,27.72-42.931,11.155C6.712,112.629,23.613,113.643,27.67,106.206z"/>
		<path fill="#DDCCBB" d="M22.6,77.812c10.142-12.509,25.015,5.746,18.593,11.491C37.473,96.402,10.77,92.346,22.6,77.812z"/>
		<path fill="#DDCCBB" d="M22.261,101.474c-1.014,4.731-4.394,8.788-10.479,9.465c-5.746,0.338-10.479-3.043-11.493-8.451
			C-3.091,87.276,24.289,92.346,22.261,101.474z"/>
		<path fill="#DDCCBB" d="M62.149,81.529c0,0,5.407,5.408,3.718,11.493c-1.353,5.746-8.112,5.07-12.846,3.38
			C41.191,91.67,50.656,74.431,62.149,81.529z"/>
		<path fill="#DDCCBB" d="M63.501,101.474c4.732-4.396,10.817-2.705,13.184-1.354c2.028,1.354,5.07,4.732,2.028,10.142
			c-2.704,5.408-7.437,5.07-12.17,2.365C61.812,109.586,58.431,106.206,63.501,101.474z"/>
	</g>
</g>
</svg>
