<?xml version="1.0" encoding="utf-8"?>
<!-- Generator: Adobe Illustrator 16.0.0, SVG Export Plug-In . SVG Version: 6.00 Build 0)  -->
<!DOCTYPE svg PUBLIC "-//W3C//DTD SVG 1.1//EN" "http://www.w3.org/Graphics/SVG/1.1/DTD/svg11.dtd">
<svg version="1.1" id="Layer_1" xmlns="http://www.w3.org/2000/svg" xmlns:xlink="http://www.w3.org/1999/xlink" x="0px" y="0px"
	 width="80px" height="140px" viewBox="266 326 80 140" enable-background="new 266 326 80 140" xml:space="preserve">
<g>
	<g>
		<path fill="#FFFFFF" d="M293.67,362.868c3.042-5.409,7.437-8.789,13.859-7.099c0,0,9.465,6.084,11.831,8.789
			c1.352,1.352,3.718,5.07,4.395,7.099c7.774,20.62-32.789,27.719-42.931,11.155C272.712,369.29,289.613,370.304,293.67,362.868z"/>
		<path fill="#FFFFFF" d="M288.6,334.473c10.141-12.507,25.014,5.747,18.592,11.493C303.473,352.727,276.769,349.008,288.6,334.473z
			"/>
		<path fill="#FFFFFF" d="M288.261,357.797c-1.014,5.071-4.394,9.127-10.479,9.465c-5.746,0.338-10.479-3.042-11.493-8.451
			C262.909,343.938,290.289,349.008,288.261,357.797z"/>
		<path fill="#FFFFFF" d="M328.149,338.191c0,0,5.408,5.409,3.718,11.493c-1.352,5.747-8.112,5.071-12.845,3.38
			C307.191,348.332,316.656,331.092,328.149,338.191z"/>
		<path fill="#FFFFFF" d="M329.501,358.135c4.395-4.394,10.817-2.704,12.846-1.352s5.07,4.732,2.028,10.141
			c-2.705,5.409-7.438,5.07-12.17,2.366C327.812,366.248,324.431,362.868,329.501,358.135z"/>
	</g>
</g>
<g>
	<g>
		<path fill="#DDCCBB" d="M293.67,431.39c3.042-5.409,7.437-8.789,13.859-7.099c0,0,9.465,6.084,11.831,8.788
			c1.352,1.353,3.718,5.071,4.395,7.099c7.774,20.62-32.789,27.719-42.931,11.155C272.712,437.812,289.613,438.826,293.67,431.39z"
			/>
		<path fill="#DDCCBB" d="M288.6,402.995c10.141-12.508,25.014,5.746,18.592,11.492C303.473,421.586,276.769,417.53,288.6,402.995z"
			/>
		<path fill="#DDCCBB" d="M288.261,426.657c-1.014,4.732-4.394,8.788-10.479,9.465c-5.746,0.338-10.479-3.043-11.493-8.451
			C262.909,412.46,290.289,417.53,288.261,426.657z"/>
		<path fill="#DDCCBB" d="M328.149,406.713c0,0,5.408,5.408,3.718,11.493c-1.352,5.746-8.112,5.07-12.845,3.38
			C307.191,416.854,316.656,399.614,328.149,406.713z"/>
		<path fill="#DDCCBB" d="M329.501,426.657c4.732-4.395,10.817-2.705,13.184-1.353c2.028,1.353,5.07,4.732,2.028,10.141
			c-2.704,5.409-7.437,5.071-12.17,2.366C327.812,434.77,324.431,431.39,329.501,426.657z"/>
	</g>
</g>
</svg>
