<?xml version="1.0" encoding="utf-8"?>
<!-- Generator: Adobe Illustrator 16.0.0, SVG Export Plug-In . SVG Version: 6.00 Build 0)  -->
<!DOCTYPE svg PUBLIC "-//W3C//DTD SVG 1.1//EN" "http://www.w3.org/Graphics/SVG/1.1/DTD/svg11.dtd">
<svg version="1.1" id="Layer_1" xmlns="http://www.w3.org/2000/svg" xmlns:xlink="http://www.w3.org/1999/xlink" x="0px" y="0px"
	 width="612px" height="438px" viewBox="0 177 612 438" enable-background="new 0 177 612 438" xml:space="preserve">
<g>
	<g>
		<g>
			<path fill="#133B62" d="M41.917,606.865h-0.858l-27.467-1.717C5.867,604.29-1,597.424-0.142,589.698
				C0.717,554.506,0.717,526.181-1,488.414c0-4.292,1.717-7.726,4.292-11.159c2.575-2.574,6.867-4.291,11.159-4.291h60.942l0,0
				c4.292,0,7.725,1.717,11.159,4.291c2.575,2.575,4.292,6.867,4.292,11.159l-1.717,28.325c0,4.292-1.716,7.725-4.292,10.3
				c0,1.717,0,3.434,0,6.009v25.75c0,8.584-6.867,14.592-14.592,14.592c-4.292,0-8.583,0-12.875,0c0,2.575,0,4.292,0,6.867
				c0,3.434,0,6.866,0,12.017c0,4.292-1.716,7.726-5.15,11.158C49.642,605.148,46.209,606.865,41.917,606.865z M29.9,541.631
				c0,2.575,0,5.15,0,8.584c0.858-1.717,2.575-3.434,4.292-4.292c-0.858-0.858-1.716-0.858-2.575-1.717
				C31.617,543.348,30.759,542.489,29.9,541.631z M29.9,503.006c0,1.717,0,3.434,0,5.149c0.858-1.717,2.575-3.433,4.292-5.149H29.9z
				"/>
			<path fill="#133B62" d="M115.735,606.007c-51.5,0-51.5-41.2-51.5-56.65c0-7.726,0.858-17.167,0.858-25.751
				c0-4.291,0-7.725,0.858-10.3c0-7.725,6.009-13.733,14.592-14.592l24.033-1.717c4.292,0,8.583,1.717,11.159,4.292
				c0.858,0.858,0.858,1.717,1.717,1.717c0,0,0-0.858,0.858-0.858c2.575-2.575,6.867-4.292,10.3-4.292l22.317-0.858
				c8.583,0,14.592,6.009,15.45,14.592v6.867c0.858,10.3,0.858,23.175,0.858,32.617
				C166.377,564.807,166.377,606.007,115.735,606.007z"/>
			<path fill="#133B62" d="M209.294,609.44c-5.15,0-9.442-2.575-12.875-6.867l-1.717-2.574c-2.575,3.433-6.867,6.008-12.017,6.866
				l-21.459,0.858c-4.292,0-7.725-1.717-11.158-4.292c-2.575-2.575-4.292-6.866-4.292-10.3v-78.968
				c0-7.726,5.15-13.733,12.875-14.592l21.458-2.575c6.008-0.858,11.158,1.717,14.592,6.867l3.434,5.149
				c1.716-6.866,8.583-11.158,15.45-10.3l20.6,1.717c4.292,0,7.725,2.575,10.3,5.149c2.575,3.434,3.433,6.867,3.433,11.159
				c-2.575,23.175-2.575,43.775-1.717,66.95v6.009c0,6.867-4.292,12.875-11.158,14.592l-21.458,6.009
				C211.87,609.44,210.153,609.44,209.294,609.44z M209.294,566.523l6.867,10.3l0,0c0-3.434,0-7.726,0-11.158
				c-0.858,0-1.717,0.858-2.575,0.858C211.87,566.523,211.011,566.523,209.294,566.523z M174.961,527.897v12.017
				c0.858,0,1.716-0.858,2.575-0.858c1.717-0.858,3.434-0.858,4.292-0.858L174.961,527.897z"/>
			<path fill="#133B62" d="M269.379,608.582c-8.583,0-18.884-1.717-30.901-4.292c-6.867-1.717-11.158-7.725-11.158-14.592
				l-1.717-76.393c0-7.725,5.15-13.733,12.875-15.45c6.867-0.858,14.592-1.717,22.317-1.717c44.633,0,51.5,24.034,51.5,37.768
				c0,4.291-0.858,8.583-2.575,12.017c4.292,6.009,7.726,13.733,7.726,23.176C317.446,588.84,304.57,608.582,269.379,608.582z"/>
			<path fill="#133B62" d="M357.788,615.449c-1.717,0-4.292-0.858-6.009-1.717c-4.291-1.717-8.583-5.15-12.017-8.584
				c-0.858,0-2.575,0.858-4.292,0.858l-24.892,1.717c-4.292,0-7.725-0.858-11.158-4.292c-2.575-2.575-5.15-6.866-5.15-10.3
				l-1.717-75.534c0-6.867,4.292-12.875,11.159-14.592c10.3-2.575,20.6-4.292,31.758-4.292c36.051,0,52.359,20.601,52.359,41.2
				c0,11.159-4.292,22.317-11.158,30.042c1.717,1.717,2.575,3.434,5.15,4.292c4.291,2.575,6.866,6.867,7.725,12.017
				c0.858,5.15-1.717,9.442-5.15,12.876l-16.309,12.875C364.655,614.591,361.222,615.449,357.788,615.449z"/>
			<path fill="#133B62" d="M509.715,615.449c-1.717,0-4.291-0.858-6.008-1.717c-4.292-1.717-8.584-5.15-12.017-8.584
				c-0.858,0-2.575,0.858-4.292,0.858l-24.893,0.858c-4.291,0-7.725-0.858-11.158-4.292c-2.575-2.574-4.292-6.866-5.15-10.3
				l-1.716-75.534c0-6.867,4.291-12.875,11.158-14.592c10.3-2.575,20.601-4.292,31.759-4.292c36.051,0,52.359,20.601,52.359,41.2
				c0,11.159-4.292,22.317-11.159,30.042c1.717,1.717,2.575,3.434,5.15,4.292c4.292,2.575,6.866,6.867,7.725,12.017
				c0.858,5.15-1.716,9.442-5.149,12.876l-16.309,13.733C516.582,614.591,513.148,615.449,509.715,615.449z"/>
			<path fill="#133B62" d="M562.933,614.591c-18.025,0-33.476-8.584-43.775-23.176c-2.575-3.434-3.434-7.725-2.575-11.158
				c0.858-4.292,3.434-7.726,6.867-9.442l3.433-2.574c-6.008-9.442-9.441-20.601-9.441-32.617c0-6.867,0-15.45,1.717-24.893
				c0.858-7.725,8.583-13.733,15.45-12.875l24.033,1.717c2.575,0,5.15,0.858,7.726,2.575c2.575-1.717,5.149-2.575,7.725-2.575
				h20.601c7.726,0,14.592,6.867,14.592,14.592v13.733c0.858,12.875,0.858,23.176,0.858,36.051
				C611,593.99,591.258,614.591,562.933,614.591z"/>
			<path fill="#133B62" d="M430.747,610.299c-6.866,0-12.875-4.292-14.592-11.158l0,0c-2.574,6.866-9.441,11.158-16.309,10.3
				l-24.892-3.434c-4.292-0.858-8.583-3.434-10.3-6.866c-2.575-3.434-2.575-8.584-1.717-12.876l25.75-77.251
				c1.717-6.008,7.726-10.3,13.733-10.3h26.609c6.866,0,12.875,4.292,14.592,10.3l24.033,78.968
				c0.858,4.292,0.858,8.584-1.717,12.018c-2.575,3.433-6.008,6.008-10.3,6.866l-23.176,3.434
				C431.605,610.299,431.605,610.299,430.747,610.299z"/>
		</g>
		<g>
			<path fill="#FDED1E" d="M73.676,515.881c-14.592-0.858-20.6-0.858-30.9-0.858v18.025c6.867,0,19.742,0,27.467,0v25.75
				c-10.3,0-20.601,0-27.467,0c0,13.733,0,17.167,0,33.476l-27.467-1.717c0.858-35.192,0.858-63.518-0.858-102.143h60.942
				L73.676,515.881z"/>
			<path fill="#FDED1E" d="M115.735,591.415c-30.9,0-36.05-16.309-36.05-41.2c0-10.301,0.858-27.468,1.716-35.192l24.034-1.717
				c-0.858,13.733-1.716,24.892-1.716,41.2c0,14.592,6.867,19.742,12.875,19.742c6.867,0,12.017-6.008,12.875-22.316
				c0-13.734,0-29.185,0-37.768l22.317-0.858c0,8.583,1.717,27.467,1.717,38.626C151.785,575.106,144.918,591.415,115.735,591.415z"
				/>
			<path fill="#FDED1E" d="M230.753,587.981l-21.458,6.009l-27.467-41.2l0.858,37.767l-21.459,0.858v-78.968l21.459-2.575
				l27.467,42.06c0-12.018,0.858-25.751,2.575-40.343l20.6,1.717C229.895,539.056,230.753,562.231,230.753,587.981z"/>
			<path fill="#F2623A" d="M269.379,593.132c-6.867,0-15.45-0.858-26.609-3.434l-2.575-76.393
				c6.867-0.858,13.734-1.717,19.742-1.717c24.034,0,36.05,6.867,36.05,23.176c0,8.583-5.15,13.733-9.442,14.592
				c6.009,0.858,14.592,7.725,14.592,20.6C301.996,587.981,285.687,593.132,269.379,593.132z M265.087,530.473v13.733
				c6.008,0.858,11.159-0.858,11.159-6.009C276.246,533.048,272.812,529.614,265.087,530.473z M265.087,558.798v15.45
				c2.575,0.858,4.292,1.717,6.867,1.717c6.008,0,7.725-4.292,7.725-7.725C279.679,563.09,276.246,557.939,265.087,558.798z"/>
			<path fill="#F2623A" d="M357.788,600.856c-9.441-4.291-18.025-18.024-19.742-30.042c-1.717,0-2.574,0-4.291,0l0.858,20.601
				l-24.893,1.717l-1.717-76.393c9.442-2.575,18.884-3.434,28.325-3.434c24.034,0,36.909,11.158,36.909,26.608
				c0,10.301-4.292,19.742-13.733,25.751c2.575,10.3,8.583,18.025,15.45,21.458L357.788,600.856z M338.046,531.331
				c-1.717,0-3.433,0-6.008,0.858c0,6.008,0,14.592,0.858,21.458c0.858,0,2.574,0,3.433,0c11.159,0,12.876-6.866,12.876-11.158
				C349.205,537.34,347.488,531.331,338.046,531.331z"/>
			<path fill="#F2623A" d="M509.715,600.856c-9.441-4.291-18.024-18.024-19.741-30.042c-1.717,0-2.575,0-4.292,0l0.858,20.601
				l-24.893,1.717l-1.716-75.534c9.441-2.575,18.883-3.434,28.325-3.434c24.033,0,36.908,11.158,36.908,26.608
				c0,10.301-4.291,19.742-13.733,25.751c2.575,10.3,8.584,18.025,15.45,21.458L509.715,600.856z M489.974,531.331
				c-1.717,0-3.434,0-6.009,0.858c0,6.008,0,14.592,0.858,21.458c0.858,0,2.575,0,3.434,0c11.158,0,12.875-6.866,12.875-11.158
				C501.132,537.34,499.415,531.331,489.974,531.331z"/>
			<path fill="#F2623A" d="M594.691,515.022c0.858,19.742,0.858,32.617,0.858,48.926c0,19.742-11.158,35.192-33.476,35.192
				c-14.592,0-24.892-6.867-30.9-16.309l12.017-7.726c3.434,4.292,10.301,8.584,16.309,8.584c10.301,0,18.025-7.726,16.309-12.876
				c0,0-6.008,2.575-11.158,2.575c-21.459,0-31.759-20.601-31.759-37.767c0-7.726,0-14.592,1.717-22.317l24.033,1.717
				c-0.858,7.725-1.717,11.158-1.717,18.884c0,9.441,2.575,17.167,9.442,17.167c6.866,0,8.583-9.442,8.583-13.733
				c0-9.442,0-11.159,0-21.459h19.742V515.022z"/>
			<path fill="#F2623A" d="M430.747,595.707l-4.291-16.309h-20.601l-4.292,15.45l-24.033-4.292l25.75-77.251h26.608l24.034,78.968
				L430.747,595.707z M416.155,537.34l-6.866,27.467l13.733,0.858L416.155,537.34z"/>
		</g>
		<g>
			<g>
				<path fill="#133B62" d="M338.046,380.262c4.292-6.008,5.15-14.592,1.717-21.458c0-0.858-0.858-1.717-1.717-2.575
					c0,0,0,0,0-0.858c3.434,0.858,6.867,1.717,10.301,1.717c18.884,0,33.476-15.45,33.476-33.476
					c0-18.883-15.45-33.476-33.476-33.476c-17.167,0-30.9,12.875-33.476,29.184c-4.292-0.858-8.584-1.717-12.875-1.717
					c-6.867,0-12.017,0.858-17.167,2.575c-1.717-17.167-16.309-30.042-33.476-30.042c-18.884,0-33.476,15.45-33.476,33.476
					c0,18.884,15.45,33.476,33.476,33.476c4.292,0,7.725-0.858,11.158-1.717c0,0.858,0.858,0.858,0.858,1.717
					c-0.858,0.858-0.858,1.717-1.717,2.575c-3.433,7.725-1.716,16.309,3.434,22.317c12.875,14.591,26.609,17.167,35.192,17.167
					C323.454,399.146,336.329,381.979,338.046,380.262z M349.205,315.886c4.291,0,7.725,3.434,7.725,7.725
					c0,4.292-3.434,7.725-7.725,7.725c-4.292,0-7.726-3.433-7.726-7.725C340.621,319.32,344.913,315.886,349.205,315.886z
					 M252.212,332.195c-4.292,0-7.725-3.433-7.725-7.725c0-4.292,3.433-7.725,7.725-7.725c4.292,0,7.725,3.434,7.725,7.725
					C259.937,328.762,256.503,332.195,252.212,332.195z"/>
			</g>
			<g>
				<path fill="#133B62" d="M455.64,365.67c2.575-7.725-1.717-14.592-5.15-18.884c-1.717-17.167-5.149-36.05-8.583-50.642
					c13.733-10.3,22.316-25.75,22.316-43.776c0-30.042-24.033-54.076-53.217-54.076c-14.592,0-28.325,6.009-37.768,16.309
					c-10.3-5.15-24.033-8.583-36.909-11.158c-6.008-10.3-15.45-20.601-24.892-24.034c-8.583-2.575-15.45-0.858-20.6,4.292
					c-6.008,0-12.017,1.717-16.309,6.008c-1.717,1.717-2.575,2.575-3.434,4.292c-6.008,1.716-9.442,5.15-11.158,7.725
					c-0.858,0.858-1.717,2.575-2.575,5.15c-6.867,1.717-14.592,4.292-21.458,7.725c-9.442-9.442-23.175-15.45-36.909-15.45
					c-29.184,0-53.217,24.034-53.217,54.076c0,16.309,6.867,30.9,18.884,41.201c-3.434,12.875-6.867,31.759-9.442,48.926
					c0,0.858,0,0.858-0.858,1.717c0,0.858-0.858,1.716-1.717,1.716c-2.575,4.292-7.725,11.159-5.15,19.742
					c0,0.858-0.858,2.575-0.858,4.292c0,3.434,0.858,6.867,2.575,9.442c0,1.717,0.858,4.292,1.717,6.008
					c2.575,4.292,6.008,7.725,9.441,10.3c18.025,37.768,74.676,62.66,141.627,62.66c68.667,0,125.318-26.609,142.485-65.235
					c3.433-3.433,6.866-7.725,7.725-12.017c0-0.858,0-1.717,0.858-1.717c1.717-2.575,2.575-5.15,2.575-8.583
					C456.498,369.104,456.498,367.387,455.64,365.67C455.64,366.529,455.64,365.67,455.64,365.67z M423.022,372.537
					c-0.858,0.858-0.858,0.858-1.717,1.717l-0.858,0.858c-0.858,1.717-1.717,2.575-2.575,4.292
					c-7.725,24.034-53.217,49.784-115.876,49.784c-62.66,0-108.152-24.892-115.877-49.784c-0.858-3.433-3.433-6.008-6.008-7.725
					c0-1.717,0-3.433,0-5.15c0.858-1.717,0.858-4.292,0-6.008c1.717-2.575,2.575-5.15,3.433-8.583
					c1.717-22.317,8.583-48.926,12.017-60.084c0.858-4.292,0.858-7.725-0.858-11.158c0.858,0,1.717,0,2.575,0
					c6.008,0,11.158-3.434,13.733-8.583c0.858-1.717,1.717-3.434,3.433-4.292c1.717-1.716,3.434-2.575,5.15-3.433
					c6.008-2.575,9.442-8.583,9.442-14.592l0,0c4.292,0.858,9.441,0,12.875-3.434l1.717-0.858c0,0,0.858,0,0.858-0.858
					c2.575-1.716,12.017-6.867,30.9-10.3c4.292-0.858,8.583-4.292,10.3-8.583l0,0c0,0,0,0,0.858,0c4.292,0,9.442-1.717,12.875-4.292
					c1.717,0.858,3.434,2.575,4.292,3.434c3.433,1.717,6.866,2.575,11.158,1.717c2.575,3.433,6.008,5.15,10.3,6.008
					c24.034,3.433,37.768,10.3,40.343,12.017l0,0l1.717,1.717c3.433,3.434,8.583,4.292,12.875,3.434
					c0.858,0,2.575-0.858,3.434-0.858c0,6.008,3.433,12.017,9.441,14.592c1.717,0.858,4.292,1.717,5.15,3.434
					c1.716,1.716,2.574,2.575,3.433,4.292c1.717,4.292,6.009,7.725,11.159,8.583c-2.575,3.433-3.434,7.725-2.575,12.875
					c3.434,12.017,8.583,39.484,10.3,60.084c0,1.717,0.858,3.434,1.717,5.15c-0.858,2.575-0.858,5.15,0,7.725
					C422.164,368.246,422.164,369.962,423.022,372.537z"/>
				<g>
					<path fill="#FFFFFF" d="M435.897,351.937c-1.717-23.175-7.725-50.643-11.158-62.659c14.592-6.009,24.033-19.742,24.033-36.051
						c0-21.458-17.167-38.625-37.767-38.625c-14.592,0-27.468,8.583-33.476,21.459c-1.717-0.858-2.575-1.717-2.575-1.717
						s-16.309-11.159-48.926-15.45c-2.575-8.583-12.875-21.459-18.884-23.175c-14.592-4.292,0.858,14.592,3.434,17.167
						c-5.15-3.433-18.883-18.025-26.608-10.3c-4.292,4.292-0.858,6.867,4.292,9.441c-9.442-1.716-20.6-3.433-18.025,6.867
						c0,0.858,0.858,0.858,0.858,1.716c-26.608,4.292-39.484,13.734-38.625,14.592c0,0-0.858,0-1.717,0.858
						c-6.008-12.017-18.883-20.601-33.475-20.601c-20.601,0-37.767,17.167-37.767,38.625c0,15.45,8.583,28.326,21.458,35.192
						c-3.434,11.158-10.3,39.484-12.017,63.518v-1.717c0,4.292-12.875,15.45-2.575,13.733c-1.717,2.575-3.434,6.008-4.292,9.442
						c0.858-0.858,2.575-0.858,3.434-1.717c-5.15,6.867,0.858,14.592,6.867,13.733c11.158,34.334,65.234,60.084,129.61,60.084
						c65.234,0,118.451-25.75,129.609-60.084c0,0,0,0,0-0.858c4.292-1.716,8.584-8.583,4.292-13.733
						c1.717,0.858,2.575,0.858,3.434,1.717c0-3.434-1.717-6.008-4.292-9.442C445.34,363.095,439.331,356.229,435.897,351.937z"/>
					<path opacity="0.38" fill="#133B62" enable-background="new    " d="M203.286,256.661c2.575-2.575,6.867-5.15,10.3-6.867
						c-0.858-7.725-6.867-12.875-14.592-12.875s-14.592,6.867-14.592,14.592c0,6.867,5.15,12.875,12.017,14.592
						C198.994,261.811,200.711,259.235,203.286,256.661z"/>
					<path opacity="0.38" fill="#133B62" enable-background="new    " d="M409.289,256.661c-2.575-2.575-6.867-5.15-10.301-6.867
						c0.858-7.725,6.867-12.875,14.593-12.875c7.725,0,14.592,6.867,14.592,14.592c0,6.867-5.15,12.875-12.018,14.592
						C413.581,261.811,411.864,259.235,409.289,256.661z"/>
				</g>
				<g>
					<path fill="#E5F4F5" d="M168.952,361.378c0-1.716,0-4.292,1.717-6.008c-0.858,0-1.717,0.858-1.717,0.858
						C167.235,358.804,166.377,361.378,168.952,361.378z"/>
					<path fill="#E5F4F5" d="M433.322,355.37c1.717,1.717,1.717,4.292,1.717,6.009c3.434,0,1.717-2.575,0-5.15
						C435.039,356.229,434.181,356.229,433.322,355.37z"/>
				</g>
				<path fill="#133B62" d="M281.396,344.212c0,0,22.317-12.017,40.342,0c0,0-8.583,11.158-21.458,11.158
					C288.262,355.37,281.396,344.212,281.396,344.212z"/>
				<circle fill="#133B62" cx="252.212" cy="323.612" r="12.875"/>
				<circle fill="#133B62" cx="349.205" cy="323.612" r="12.875"/>
				<polygon fill="#133B62" points="301.996,373.396 301.138,372.537 299.421,352.795 302.854,352.795 				"/>
				<path fill="#133B62" d="M282.254,368.246h38.625C320.879,368.246,303.713,391.421,282.254,368.246z"/>
			</g>
		</g>
		<g>
			<path fill="#133B62" d="M260.795,483.264L260.795,483.264c-4.292,0-7.725-1.717-10.3-3.434
				c-10.3-8.583-11.159-31.759-9.442-43.775s6.008-19.742,12.875-22.316c2.575-1.717,6.009-1.717,9.442-1.717
				c12.875,0,31.759,7.725,37.768,18.883c0.858,1.717,4.291,6.867,2.575,23.176v4.292l-3.434,2.574
				C290.837,468.672,272.812,483.264,260.795,483.264z M264.229,434.338c-1.717,5.15-1.717,17.167,0,24.893
				c4.292-2.575,11.159-7.726,17.167-12.876c0-2.575,0-4.291,0-5.149C278.82,438.63,270.237,434.338,264.229,434.338z"/>
			<path fill="#133B62" d="M349.205,483.264c-12.018,0-30.042-14.592-39.484-23.176l-3.434-2.574v-4.292
				c-1.717-16.309,1.717-21.459,2.575-23.176c6.009-10.3,25.751-18.884,37.768-18.884c3.434,0,6.866,0.859,9.441,1.717
				c6.867,3.434,11.159,11.159,12.875,22.317c1.717,12.017,0.858,35.192-9.441,43.775
				C356.93,482.405,352.638,483.264,349.205,483.264z M328.604,446.354c6.009,5.15,12.875,10.301,17.167,12.876
				c1.717-6.867,1.717-18.884,0-24.893c-6.009,0.858-13.733,4.292-16.309,6.867C328.604,442.063,328.604,443.779,328.604,446.354z"
				/>
			<path fill="#F47521" d="M291.696,435.196c-4.292-6.867-24.892-15.45-32.617-12.017c-9.442,4.291-8.583,40.342-0.858,48.067
				c6.867,6.008,34.333-19.742,34.333-19.742S293.412,438.63,291.696,435.196z"/>
			<path fill="#F47521" d="M318.305,435.196c4.291-6.867,24.892-15.45,32.617-12.017c9.441,4.291,8.583,40.342,0.857,48.067
				c-6.866,6.008-34.333-19.742-34.333-19.742S316.588,438.63,318.305,435.196z"/>
			<path fill="#133B62" d="M304.57,471.247c-16.308,0-29.183-12.018-29.183-26.609s12.875-26.608,29.183-26.608
				c16.309,0,29.185,12.017,29.185,26.608C333.755,459.23,320.879,471.247,304.57,471.247z M304.57,440.347
				c-3.433,0-6.008,1.717-6.008,3.433c0,1.717,2.575,3.434,6.008,3.434c3.434,0,6.009-1.717,6.009-3.434
				C310.579,442.922,308.004,440.347,304.57,440.347z"/>
			<ellipse fill="#F47521" cx="304.57" cy="444.638" rx="17.167" ry="15.45"/>
			<path fill="#133B62" d="M283.112,439.488c0,0-6.867-10.301-20.601-6.867L283.112,439.488z"/>
			<path fill="#133B62" d="M326.888,439.488c0,0,6.867-10.301,20.601-6.867L326.888,439.488z"/>
			<path fill="#133B62" d="M283.112,451.505c0,0-6.867,10.3-20.601,6.867L283.112,451.505z"/>
			<path fill="#133B62" d="M326.888,451.505c0,0,6.867,10.3,20.601,6.867L326.888,451.505z"/>
		</g>
	</g>
</g>
</svg>
