<?xml version="1.0" encoding="utf-8"?>
<!-- Generator: Adobe Illustrator 18.1.1, SVG Export Plug-In . SVG Version: 6.00 Build 0)  -->
<svg version="1.1" id="Layer_1" xmlns="http://www.w3.org/2000/svg" xmlns:xlink="http://www.w3.org/1999/xlink" x="0px" y="0px"
	 viewBox="0 0 71.3 50.9" enable-background="new 0 0 71.3 50.9" xml:space="preserve">
<g>
	<g>
		<g>
			<path fill="#133B62" d="M5,49.9c0,0-0.1,0-0.1,0l-3.2-0.2c-0.9-0.1-1.7-0.9-1.6-1.8c0.1-4.1,0.1-7.4-0.1-11.8
				c0-0.5,0.2-0.9,0.5-1.3c0.3-0.3,0.8-0.5,1.3-0.5l7.1,0c0,0,0,0,0,0c0.5,0,0.9,0.2,1.3,0.5c0.3,0.3,0.5,0.8,0.5,1.3l-0.2,3.3
				c0,0.5-0.2,0.9-0.5,1.2C10,40.8,10,41,10,41.3v3c0,1-0.8,1.7-1.7,1.7c-0.5,0-1,0-1.5,0c0,0.3,0,0.5,0,0.8c0,0.4,0,0.8,0,1.4
				c0,0.5-0.2,0.9-0.6,1.3C5.9,49.7,5.5,49.9,5,49.9z M3.6,42.3c0,0.3,0,0.6,0,1c0.1-0.2,0.3-0.4,0.5-0.5c-0.1-0.1-0.2-0.1-0.3-0.2
				C3.8,42.5,3.7,42.4,3.6,42.3z M3.6,37.8c0,0.2,0,0.4,0,0.6c0.1-0.2,0.3-0.4,0.5-0.6L3.6,37.8z"/>
			<path fill="#133B62" d="M13.6,49.8c-6,0-6-4.8-6-6.6c0-0.9,0.1-2,0.1-3c0-0.5,0-0.9,0.1-1.2c0-0.9,0.7-1.6,1.7-1.7l2.8-0.2
				c0.5,0,1,0.2,1.3,0.5c0.1,0.1,0.1,0.2,0.2,0.2c0,0,0-0.1,0.1-0.1c0.3-0.3,0.8-0.5,1.2-0.5l2.6-0.1c1,0,1.7,0.7,1.8,1.7l0,0.8
				c0.1,1.2,0.1,2.7,0.1,3.8C19.5,45,19.5,49.8,13.6,49.8z"/>
			<path fill="#133B62" d="M24.5,50.2c-0.6,0-1.1-0.3-1.5-0.8l-0.2-0.3c-0.3,0.4-0.8,0.7-1.4,0.8l-2.5,0.1c-0.5,0-0.9-0.2-1.3-0.5
				c-0.3-0.3-0.5-0.8-0.5-1.2l0-9.2c0-0.9,0.6-1.6,1.5-1.7l2.5-0.3c0.7-0.1,1.3,0.2,1.7,0.8l0.4,0.6c0.2-0.8,1-1.3,1.8-1.2l2.4,0.2
				c0.5,0,0.9,0.3,1.2,0.6c0.3,0.4,0.4,0.8,0.4,1.3c-0.3,2.7-0.3,5.1-0.2,7.8l0,0.7c0,0.8-0.5,1.5-1.3,1.7l-2.5,0.7
				C24.8,50.2,24.6,50.2,24.5,50.2z M24.5,45.2l0.8,1.2l0,0c0-0.4,0-0.9,0-1.3c-0.1,0-0.2,0.1-0.3,0.1
				C24.8,45.2,24.7,45.2,24.5,45.2z M20.5,40.7l0,1.4c0.1,0,0.2-0.1,0.3-0.1c0.2-0.1,0.4-0.1,0.5-0.1L20.5,40.7z"/>
			<path fill="#133B62" d="M31.5,50.1c-1,0-2.2-0.2-3.6-0.5c-0.8-0.2-1.3-0.9-1.3-1.7l-0.2-8.9c0-0.9,0.6-1.6,1.5-1.8
				c0.8-0.1,1.7-0.2,2.6-0.2c5.2,0,6,2.8,6,4.4c0,0.5-0.1,1-0.3,1.4c0.5,0.7,0.9,1.6,0.9,2.7C37.1,47.8,35.6,50.1,31.5,50.1z"/>
			<path fill="#133B62" d="M41.8,50.9c-0.2,0-0.5-0.1-0.7-0.2c-0.5-0.2-1-0.6-1.4-1c-0.1,0-0.3,0.1-0.5,0.1l-2.9,0.2
				c-0.5,0-0.9-0.1-1.3-0.5c-0.3-0.3-0.6-0.8-0.6-1.2l-0.2-8.8c0-0.8,0.5-1.5,1.3-1.7c1.2-0.3,2.4-0.5,3.7-0.5
				c4.2,0,6.1,2.4,6.1,4.8c0,1.3-0.5,2.6-1.3,3.5c0.2,0.2,0.3,0.4,0.6,0.5c0.5,0.3,0.8,0.8,0.9,1.4c0.1,0.6-0.2,1.1-0.6,1.5L43,50.5
				C42.6,50.8,42.2,50.9,41.8,50.9z"/>
			<path fill="#133B62" d="M59.5,50.9c-0.2,0-0.5-0.1-0.7-0.2c-0.5-0.2-1-0.6-1.4-1c-0.1,0-0.3,0.1-0.5,0.1L54,49.9
				c-0.5,0-0.9-0.1-1.3-0.5c-0.3-0.3-0.5-0.8-0.6-1.2l-0.2-8.8c0-0.8,0.5-1.5,1.3-1.7c1.2-0.3,2.4-0.5,3.7-0.5
				c4.2,0,6.1,2.4,6.1,4.8c0,1.3-0.5,2.6-1.3,3.5c0.2,0.2,0.3,0.4,0.6,0.5c0.5,0.3,0.8,0.8,0.9,1.4c0.1,0.6-0.2,1.1-0.6,1.5
				l-1.9,1.6C60.3,50.8,59.9,50.9,59.5,50.9z"/>
			<path fill="#133B62" d="M65.7,50.8c-2.1,0-3.9-1-5.1-2.7c-0.3-0.4-0.4-0.9-0.3-1.3c0.1-0.5,0.4-0.9,0.8-1.1l0.4-0.3
				c-0.7-1.1-1.1-2.4-1.1-3.8c0-0.8,0-1.8,0.2-2.9c0.1-0.9,1-1.6,1.8-1.5l2.8,0.2c0.3,0,0.6,0.1,0.9,0.3c0.3-0.2,0.6-0.3,0.9-0.3
				h2.4c0.9,0,1.7,0.8,1.7,1.7l0,1.6c0.1,1.5,0.1,2.7,0.1,4.2C71.3,48.4,69,50.8,65.7,50.8z"/>
			<path fill="#133B62" d="M50.3,50.3c-0.8,0-1.5-0.5-1.7-1.3v0c-0.3,0.8-1.1,1.3-1.9,1.2l-2.9-0.4c-0.5-0.1-1-0.4-1.2-0.8
				c-0.3-0.4-0.3-1-0.2-1.5l3-9c0.2-0.7,0.9-1.2,1.6-1.2l3.1,0c0.8,0,1.5,0.5,1.7,1.2l2.8,9.2c0.1,0.5,0.1,1-0.2,1.4
				c-0.3,0.4-0.7,0.7-1.2,0.8l-2.7,0.4C50.4,50.3,50.4,50.3,50.3,50.3z"/>
		</g>
		<g>
			<path fill="#FDED1E" d="M8.7,39.3c-1.7-0.1-2.4-0.1-3.6-0.1l0,2.1c0.8,0,2.3,0,3.2,0v3c-1.2,0-2.4,0-3.2,0c0,1.6,0,2,0,3.9
				l-3.2-0.2c0.1-4.1,0.1-7.4-0.1-11.9l7.1,0L8.7,39.3z"/>
			<path fill="#FDED1E" d="M13.6,48.1c-3.6,0-4.2-1.9-4.2-4.8c0-1.2,0.1-3.2,0.2-4.1l2.8-0.2c-0.1,1.6-0.2,2.9-0.2,4.8
				c0,1.7,0.8,2.3,1.5,2.3c0.8,0,1.4-0.7,1.5-2.6c0-1.6,0-3.4,0-4.4l2.6-0.1c0,1,0.2,3.2,0.2,4.5C17.8,46.2,17,48.1,13.6,48.1z"/>
			<path fill="#FDED1E" d="M27,47.7l-2.5,0.7l-3.2-4.8l0.1,4.4l-2.5,0.1l0-9.2l2.5-0.3l3.2,4.9c0-1.4,0.1-3,0.3-4.7l2.4,0.2
				C26.9,42,27,44.7,27,47.7z"/>
			<path fill="#F2623A" d="M31.5,48.3c-0.8,0-1.8-0.1-3.1-0.4L28.1,39c0.8-0.1,1.6-0.2,2.3-0.2c2.8,0,4.2,0.8,4.2,2.7
				c0,1-0.6,1.6-1.1,1.7c0.7,0.1,1.7,0.9,1.7,2.4C35.3,47.7,33.4,48.3,31.5,48.3z M31,41v1.6c0.7,0.1,1.3-0.1,1.3-0.7
				C32.3,41.3,31.9,40.9,31,41z M31,44.3v1.8c0.3,0.1,0.5,0.2,0.8,0.2c0.7,0,0.9-0.5,0.9-0.9C32.7,44.8,32.3,44.2,31,44.3z"/>
			<path fill="#F2623A" d="M41.8,49.2c-1.1-0.5-2.1-2.1-2.3-3.5c-0.2,0-0.3,0-0.5,0l0.1,2.4l-2.9,0.2L36,39.4
				c1.1-0.3,2.2-0.4,3.3-0.4c2.8,0,4.3,1.3,4.3,3.1c0,1.2-0.5,2.3-1.6,3c0.3,1.2,1,2.1,1.8,2.5L41.8,49.2z M39.5,41.1
				c-0.2,0-0.4,0-0.7,0.1c0,0.7,0,1.7,0.1,2.5c0.1,0,0.3,0,0.4,0c1.3,0,1.5-0.8,1.5-1.3C40.8,41.8,40.6,41.1,39.5,41.1z"/>
			<path fill="#F2623A" d="M59.5,49.2c-1.1-0.5-2.1-2.1-2.3-3.5c-0.2,0-0.3,0-0.5,0l0.1,2.4l-2.9,0.2l-0.2-8.8
				c1.1-0.3,2.2-0.4,3.3-0.4c2.8,0,4.3,1.3,4.3,3.1c0,1.2-0.5,2.3-1.6,3c0.3,1.2,1,2.1,1.8,2.5L59.5,49.2z M57.2,41.1
				c-0.2,0-0.4,0-0.7,0.1c0,0.7,0,1.7,0.1,2.5c0.1,0,0.3,0,0.4,0c1.3,0,1.5-0.8,1.5-1.3C58.5,41.8,58.3,41.1,57.2,41.1z"/>
			<path fill="#F2623A" d="M69.4,39.2c0.1,2.3,0.1,3.8,0.1,5.7c0,2.3-1.3,4.1-3.9,4.1c-1.7,0-2.9-0.8-3.6-1.9l1.4-0.9
				c0.4,0.5,1.2,1,1.9,1c1.2,0,2.1-0.9,1.9-1.5c0,0-0.7,0.3-1.3,0.3c-2.5,0-3.7-2.4-3.7-4.4c0-0.9,0-1.7,0.2-2.6l2.8,0.2
				c-0.1,0.9-0.2,1.3-0.2,2.2c0,1.1,0.3,2,1.1,2c0.8,0,1-1.1,1-1.6c0-1.1,0-1.3,0-2.5H69.4z"/>
			<path fill="#F2623A" d="M50.3,48.6l-0.5-1.9l-2.4,0l-0.5,1.8L44.1,48l3-9l3.1,0l2.8,9.2L50.3,48.6z M48.6,41.8L47.8,45l1.6,0.1
				L48.6,41.8z"/>
		</g>
		<g>
			<g>
				<path fill="#133B62" d="M39.5,23.5c0.5-0.7,0.6-1.7,0.2-2.5c0-0.1-0.1-0.2-0.2-0.3c0,0,0,0,0-0.1c0.4,0.1,0.8,0.2,1.2,0.2
					c2.2,0,3.9-1.8,3.9-3.9c0-2.2-1.8-3.9-3.9-3.9c-2,0-3.6,1.5-3.9,3.4c-0.5-0.1-1-0.2-1.5-0.2c-0.8,0-1.4,0.1-2,0.3
					c-0.2-2-1.9-3.5-3.9-3.5c-2.2,0-3.9,1.8-3.9,3.9c0,2.2,1.8,3.9,3.9,3.9c0.5,0,0.9-0.1,1.3-0.2c0,0.1,0.1,0.1,0.1,0.2
					c-0.1,0.1-0.1,0.2-0.2,0.3c-0.4,0.9-0.2,1.9,0.4,2.6c1.5,1.7,3.1,2,4.1,2C37.8,25.7,39.3,23.7,39.5,23.5z M40.8,16
					c0.5,0,0.9,0.4,0.9,0.9c0,0.5-0.4,0.9-0.9,0.9c-0.5,0-0.9-0.4-0.9-0.9C39.8,16.4,40.3,16,40.8,16z M29.5,17.9
					c-0.5,0-0.9-0.4-0.9-0.9c0-0.5,0.4-0.9,0.9-0.9c0.5,0,0.9,0.4,0.9,0.9C30.4,17.5,30,17.9,29.5,17.9z"/>
			</g>
			<g>
				<path fill="#133B62" d="M53.2,21.8c0.3-0.9-0.2-1.7-0.6-2.2c-0.2-2-0.6-4.2-1-5.9c1.6-1.2,2.6-3,2.6-5.1c0-3.5-2.8-6.3-6.2-6.3
					c-1.7,0-3.3,0.7-4.4,1.9c-1.2-0.6-2.8-1-4.3-1.3c-0.7-1.2-1.8-2.4-2.9-2.8C35.4-0.2,34.6,0,34,0.6c-0.7,0-1.4,0.2-1.9,0.7
					c-0.2,0.2-0.3,0.3-0.4,0.5C31,2,30.6,2.4,30.4,2.7c-0.1,0.1-0.2,0.3-0.3,0.6c-0.8,0.2-1.7,0.5-2.5,0.9c-1.1-1.1-2.7-1.8-4.3-1.8
					c-3.4,0-6.2,2.8-6.2,6.3c0,1.9,0.8,3.6,2.2,4.8c-0.4,1.5-0.8,3.7-1.1,5.7c0,0.1,0,0.1-0.1,0.2c0,0.1-0.1,0.2-0.2,0.2
					c-0.3,0.5-0.9,1.3-0.6,2.3c0,0.1-0.1,0.3-0.1,0.5c0,0.4,0.1,0.8,0.3,1.1c0,0.2,0.1,0.5,0.2,0.7c0.3,0.5,0.7,0.9,1.1,1.2
					c2.1,4.4,8.7,7.3,16.5,7.3c8,0,14.6-3.1,16.6-7.6c0.4-0.4,0.8-0.9,0.9-1.4c0-0.1,0-0.2,0.1-0.2c0.2-0.3,0.3-0.6,0.3-1
					C53.3,22.2,53.3,22,53.2,21.8C53.2,21.9,53.2,21.8,53.2,21.8z M49.4,22.6c-0.1,0.1-0.1,0.1-0.2,0.2c0,0-0.1,0.1-0.1,0.1
					c-0.1,0.2-0.2,0.3-0.3,0.5c-0.9,2.8-6.2,5.8-13.5,5.8c-7.3,0-12.6-2.9-13.5-5.8c-0.1-0.4-0.4-0.7-0.7-0.9c0-0.2,0-0.4,0-0.6
					c0.1-0.2,0.1-0.5,0-0.7c0.2-0.3,0.3-0.6,0.4-1c0.2-2.6,1-5.7,1.4-7c0.1-0.5,0.1-0.9-0.1-1.3c0.1,0,0.2,0,0.3,0
					c0.7,0,1.3-0.4,1.6-1c0.1-0.2,0.2-0.4,0.4-0.5c0.2-0.2,0.4-0.3,0.6-0.4c0.7-0.3,1.1-1,1.1-1.7c0,0,0,0,0,0
					c0.5,0.1,1.1,0,1.5-0.4l0.2-0.1c0,0,0.1,0,0.1-0.1c0.3-0.2,1.4-0.8,3.6-1.2c0.5-0.1,1-0.5,1.2-1c0,0,0,0,0,0c0,0,0,0,0.1,0
					C34,5.5,34.6,5.3,35,5c0.2,0.1,0.4,0.3,0.5,0.4c0.4,0.2,0.8,0.3,1.3,0.2c0.3,0.4,0.7,0.6,1.2,0.7c2.8,0.4,4.4,1.2,4.7,1.4
					c0,0,0,0,0,0l0.2,0.2c0.4,0.4,1,0.5,1.5,0.4c0.1,0,0.3-0.1,0.4-0.1c0,0.7,0.4,1.4,1.1,1.7c0.2,0.1,0.5,0.2,0.6,0.4
					c0.2,0.2,0.3,0.3,0.4,0.5c0.2,0.5,0.7,0.9,1.3,1c-0.3,0.4-0.4,0.9-0.3,1.5c0.4,1.4,1,4.6,1.2,7c0,0.2,0.1,0.4,0.2,0.6
					c-0.1,0.3-0.1,0.6,0,0.9C49.3,22.1,49.3,22.3,49.4,22.6z"/>
				<g>
					<path fill="#FFFFFF" d="M50.9,20.2c-0.2-2.7-0.9-5.9-1.3-7.3c1.7-0.7,2.8-2.3,2.8-4.2c0-2.5-2-4.5-4.4-4.5
						c-1.7,0-3.2,1-3.9,2.5c-0.2-0.1-0.3-0.2-0.3-0.2c0,0-1.9-1.3-5.7-1.8c-0.3-1-1.5-2.5-2.2-2.7c-1.7-0.5,0.1,1.7,0.4,2
						c-0.6-0.4-2.2-2.1-3.1-1.2c-0.5,0.5-0.1,0.8,0.5,1.1c-1.1-0.2-2.4-0.4-2.1,0.8c0,0.1,0.1,0.1,0.1,0.2c-3.1,0.5-4.6,1.6-4.5,1.7
						c0,0-0.1,0-0.2,0.1c-0.7-1.4-2.2-2.4-3.9-2.4c-2.4,0-4.4,2-4.4,4.5c0,1.8,1,3.3,2.5,4.1c-0.4,1.3-1.2,4.6-1.4,7.4l0-0.2
						c0,0.5-1.5,1.8-0.3,1.6c-0.2,0.3-0.4,0.7-0.5,1.1c0.1-0.1,0.3-0.1,0.4-0.2c-0.6,0.8,0.1,1.7,0.8,1.6c1.3,4,7.6,7,15.1,7
						c7.6,0,13.8-3,15.1-7c0,0,0,0,0-0.1c0.5-0.2,1-1,0.5-1.6c0.2,0.1,0.3,0.1,0.4,0.2c0-0.4-0.2-0.7-0.5-1.1
						C52,21.5,51.3,20.7,50.9,20.2z"/>
					<path opacity="0.38" fill="#133B62" d="M23.8,9.1c0.3-0.3,0.8-0.6,1.2-0.8c-0.1-0.9-0.8-1.5-1.7-1.5c-0.9,0-1.7,0.8-1.7,1.7
						c0,0.8,0.6,1.5,1.4,1.7C23.3,9.7,23.5,9.4,23.8,9.1z"/>
					<path opacity="0.38" fill="#133B62" d="M47.8,9.1c-0.3-0.3-0.8-0.6-1.2-0.8c0.1-0.9,0.8-1.5,1.7-1.5c0.9,0,1.7,0.8,1.7,1.7
						c0,0.8-0.6,1.5-1.4,1.7C48.3,9.7,48.1,9.4,47.8,9.1z"/>
				</g>
				<g>
					<path fill="#E5F4F5" d="M19.8,21.3c0-0.2,0-0.5,0.2-0.7c-0.1,0-0.2,0.1-0.2,0.1C19.6,21,19.5,21.3,19.8,21.3z"/>
					<path fill="#E5F4F5" d="M50.6,20.6c0.2,0.2,0.2,0.5,0.2,0.7c0.4,0,0.2-0.3,0-0.6C50.8,20.7,50.7,20.7,50.6,20.6z"/>
				</g>
				<path fill="#133B62" d="M32.9,19.3c0,0,2.6-1.4,4.7,0c0,0-1,1.3-2.5,1.3C33.7,20.6,32.9,19.3,32.9,19.3z"/>
				<circle fill="#133B62" cx="29.5" cy="16.9" r="1.5"/>
				<circle fill="#133B62" cx="40.8" cy="16.9" r="1.5"/>
				<polygon fill="#133B62" points="35.3,22.7 35.2,22.6 35,20.3 35.4,20.3 				"/>
				<path fill="#133B62" d="M33,22.1h4.5C37.5,22.1,35.5,24.8,33,22.1z"/>
			</g>
		</g>
		<g>
			<path fill="#133B62" d="M30.5,35.5L30.5,35.5c-0.5,0-0.9-0.2-1.2-0.4c-1.2-1-1.3-3.7-1.1-5.1c0.2-1.4,0.7-2.3,1.5-2.6
				c0.3-0.2,0.7-0.2,1.1-0.2c1.5,0,3.7,0.9,4.4,2.2c0.1,0.2,0.5,0.8,0.3,2.7l0,0.5l-0.4,0.3C34,33.8,31.9,35.5,30.5,35.5z
				 M30.9,29.8c-0.2,0.6-0.2,2,0,2.9c0.5-0.3,1.3-0.9,2-1.5c0-0.3,0-0.5,0-0.6C32.6,30.3,31.6,29.8,30.9,29.8z"/>
			<path fill="#133B62" d="M40.8,35.5c-1.4,0-3.5-1.7-4.6-2.7l-0.4-0.3l0-0.5c-0.2-1.9,0.2-2.5,0.3-2.7c0.7-1.2,3-2.2,4.4-2.2
				c0.4,0,0.8,0.1,1.1,0.2c0.8,0.4,1.3,1.3,1.5,2.6c0.2,1.4,0.1,4.1-1.1,5.1C41.7,35.4,41.2,35.5,40.8,35.5z M38.4,31.2
				c0.7,0.6,1.5,1.2,2,1.5c0.2-0.8,0.2-2.2,0-2.9c-0.7,0.1-1.6,0.5-1.9,0.8C38.4,30.7,38.4,30.9,38.4,31.2z"/>
			<path fill="#F47521" d="M34.1,29.9c-0.5-0.8-2.9-1.8-3.8-1.4c-1.1,0.5-1,4.7-0.1,5.6c0.8,0.7,4-2.3,4-2.3S34.3,30.3,34.1,29.9z"
				/>
			<path fill="#F47521" d="M37.2,29.9c0.5-0.8,2.9-1.8,3.8-1.4c1.1,0.5,1,4.7,0.1,5.6c-0.8,0.7-4-2.3-4-2.3S37,30.3,37.2,29.9z"/>
			<path fill="#133B62" d="M35.6,34.1c-1.9,0-3.4-1.4-3.4-3.1c0-1.7,1.5-3.1,3.4-3.1S39,29.3,39,31C39,32.7,37.5,34.1,35.6,34.1z
				 M35.6,30.5c-0.4,0-0.7,0.2-0.7,0.4c0,0.2,0.3,0.4,0.7,0.4c0.4,0,0.7-0.2,0.7-0.4C36.3,30.8,36,30.5,35.6,30.5z"/>
			<ellipse fill="#F47521" cx="35.6" cy="31" rx="2" ry="1.8"/>
			<path fill="#133B62" d="M33.1,30.4c0,0-0.8-1.2-2.4-0.8L33.1,30.4z"/>
			<path fill="#133B62" d="M38.2,30.4c0,0,0.8-1.2,2.4-0.8L38.2,30.4z"/>
			<path fill="#133B62" d="M33.1,31.8c0,0-0.8,1.2-2.4,0.8L33.1,31.8z"/>
			<path fill="#133B62" d="M38.2,31.8c0,0,0.8,1.2,2.4,0.8L38.2,31.8z"/>
		</g>
	</g>
</g>
</svg>
