<?xml version="1.0" encoding="utf-8"?>
<!-- Generator: Adobe Illustrator 16.0.0, SVG Export Plug-In . SVG Version: 6.00 Build 0)  -->
<!DOCTYPE svg PUBLIC "-//W3C//DTD SVG 1.1//EN" "http://www.w3.org/Graphics/SVG/1.1/DTD/svg11.dtd">
<svg version="1.1" id="Layer_1" xmlns="http://www.w3.org/2000/svg" xmlns:xlink="http://www.w3.org/1999/xlink" x="0px" y="0px"
	 width="75px" height="100px" viewBox="0 0 75 100" enable-background="new 0 0 75 100" xml:space="preserve">
<g>
	<g>
		<g>
			<path fill="#77AFC2" d="M49.273,8.721C46.947,3.489,43.459,1.162,37.645,0l0,0l0,0c-5.813,1.162-9.302,3.488-11.628,8.721
				c3.488,1.453,7.559,2.325,11.628,2.325C41.715,11.046,45.494,10.174,49.273,8.721z"/>
			<path fill="#77AFC2" d="M28.053,45.64c0,0,7.267,3.197,19.185,0l-3.195,4.069h-12.5L28.053,45.64z"/>
		</g>
		<path fill="#77AFC2" d="M49.855,11.337c-3.779,1.744-8.141,2.616-12.5,2.616c-4.359,0-8.721-0.872-12.5-2.325
			c-4.65,11.628-2.617,27.906-2.617,27.906c1.163,0.582,2.326,0.872,3.489,1.163c0,2.035,0.291,2.325,0.291,2.325
			c4.36,1.744,8.14,2.035,11.337,1.744c3.198,0.291,6.977-0.291,11.336-1.744c0,0,0.291-0.29,0.291-2.325
			c1.164-0.291,2.326-0.581,3.488-1.163C52.473,39.534,54.797,23.256,49.855,11.337z M37.355,32.558
			c-3.779,0-6.686-2.615-6.686-6.104c0-3.197,2.906-6.104,6.686-6.104c3.78,0,6.688,2.616,6.688,6.104
			C44.332,29.65,41.135,32.558,37.355,32.558z"/>
		<path fill="#77AFC2" d="M22.238,29.069c0,0-9.593,2.034-9.593,20.64L13.808,50c0,0,3.779-10.466,9.303-10.466l-0.873-10.755"/>
		<path fill="#77AFC2" d="M52.473,29.069c0,0,9.592,2.034,9.592,20.64L60.902,50c0,0-3.779-10.466-9.303-10.466l0.873-11.046"/>
	</g>
</g>
<g>
	<g>
		<g>
			<path fill="#FFFFFF" d="M49.564,58.721C47.238,53.489,43.75,51.162,37.936,50l0,0l0,0c-5.813,1.162-9.302,3.488-11.628,8.721
				c3.488,1.453,7.559,2.325,11.628,2.325C42.006,61.046,45.785,60.174,49.564,58.721z"/>
			<path fill="#FFFFFF" d="M28.343,95.64c0,0,7.267,3.197,19.186,0l-3.197,4.069h-12.5L28.343,95.64z"/>
		</g>
		<path fill="#FFFFFF" d="M50.146,61.337c-3.779,1.744-8.141,2.616-12.5,2.616c-4.359,0-8.721-0.872-12.5-2.325
			c-4.65,11.628-2.617,27.906-2.617,27.906c1.163,0.582,2.326,0.872,3.489,1.163c0,2.035,0.291,2.325,0.291,2.325
			c4.36,1.744,8.14,2.035,11.337,1.744c3.198,0.291,6.977-0.291,11.336-1.744c0,0,0.291-0.29,0.291-2.325
			c1.164-0.291,2.326-0.581,3.488-1.163C52.762,89.534,55.088,73.256,50.146,61.337z M37.646,82.558
			c-3.779,0-6.686-2.615-6.686-6.104c0-3.197,2.906-6.105,6.686-6.105c3.78,0,6.688,2.617,6.688,6.105
			C44.623,79.65,41.426,82.558,37.646,82.558z"/>
		<path fill="#FFFFFF" d="M22.529,79.069c0,0-9.593,2.034-9.593,20.64L14.099,100c0,0,3.779-10.466,9.303-10.466l-0.873-10.755"/>
		<path fill="#FFFFFF" d="M52.762,79.069c0,0,9.594,2.034,9.594,20.64L61.191,100c0,0-3.777-10.466-9.301-10.466l0.871-11.046"/>
	</g>
</g>
</svg>
