<?xml version="1.0" encoding="utf-8"?>
<!-- Generator: Adobe Illustrator 14.0.0, SVG Export Plug-In . SVG Version: 6.00 Build 43363)  -->
<!DOCTYPE svg PUBLIC "-//W3C//DTD SVG 1.1//EN" "http://www.w3.org/Graphics/SVG/1.1/DTD/svg11.dtd">
<svg version="1.1" id="Layer_1" xmlns="http://www.w3.org/2000/svg" xmlns:xlink="http://www.w3.org/1999/xlink" x="0px" y="0px"
	 width="40px" height="50px" viewBox="0 0 40 50" enable-background="new 0 0 40 50" xml:space="preserve">
<g>
	<g>
		<g>
			<g>
				<path fill="#77AFC2" d="M20.1,13.798V6.6c-1.949,0-3.898-0.15-6.148-0.45c-0.9,1.649-1.8,3.898-2.55,6.899
					C14.399,13.498,17.402,13.798,20.1,13.798z"/>
				<path fill="#77AFC2" d="M30,13.198c-0.751-3-1.801-5.399-2.697-7.049c-1.8,0.3-3.748,0.45-6,0.45v7.2
					C24.45,13.798,27.3,13.498,30,13.198z"/>
				<g>
					<path fill="#77AFC2" d="M36.898,11.698c-0.9-2.399-2.25-4.649-4.051-6.75c-1.199,0.3-2.699,0.751-4.5,1.05
						c1.051,1.8,1.949,4.05,2.7,7.049C33.299,12.599,35.248,12.148,36.898,11.698z"/>
					<path fill="#77AFC2" d="M31.199,13.948c0.597,3,1.05,6.448,1.197,10.8c3.451,0,6.299,0,6.602,0c0,0,0.148-6-1.95-12.148
						C35.548,13.049,33.6,13.649,31.199,13.948z"/>
				</g>
				<path fill="#77AFC2" d="M19.95,14.849c-2.849,0-5.7-0.3-8.85-0.9c-0.599,2.849-1.2,6.448-1.35,10.799c1.35,0,2.7,0,4.05,0
					C14.251,21.147,15.602,15.448,19.95,14.849z"/>
				<path fill="#77AFC2" d="M27.6,24.749c1.198,0,2.549,0,3.899,0c-0.151-4.2-0.601-7.801-1.201-10.647
					c-2.552,0.45-5.55,0.749-8.698,0.749C25.8,15.598,27.148,21.147,27.6,24.749z"/>
				<path fill="#77AFC2" d="M13.501,4.95c1.8-2.85,3.75-4.2,5.249-4.95c-4.049,0.45-7.049,1.95-9.299,4.05
					C10.801,4.35,12.152,4.649,13.501,4.95z"/>
				<path fill="#77AFC2" d="M27.749,4.95c1.649-0.301,3-0.601,4.2-0.9c-2.251-2.099-5.4-3.749-9.448-4.049
					C23.999,0.75,25.949,2.1,27.749,4.95z"/>
				<g>
					<path fill="#77AFC2" d="M10.352,12.748C11.1,9.899,12,7.649,13.049,5.849C11.55,5.7,10.05,5.25,8.701,4.95
						c-1.799,1.8-3.15,4.049-4.049,6.299C6.602,11.849,8.402,12.448,10.352,12.748z"/>
					<path fill="#77AFC2" d="M4.352,12.299c-2.249,6.148-2.1,12.449-2.1,12.449c0.301,0,3.15,0,6.449,0
						c0.15-4.35,0.601-7.949,1.351-10.95C8.1,13.348,6.302,12.899,4.352,12.299z"/>
				</g>
				<g>
					<path fill="#77AFC2" d="M21.148,5.549c1.951,0,3.75-0.15,5.4-0.45c-0.15-0.3-0.449-0.6-0.6-0.9
						c-1.797-2.398-3.747-3.299-4.799-3.6L21.148,5.549L21.148,5.549z"/>
					<path fill="#77AFC2" d="M20.1,0.6c-0.899,0.3-2.849,1.2-4.8,3.599c-0.149,0.3-0.45,0.6-0.598,0.9
						c1.95,0.299,3.748,0.45,5.548,0.45V0.6H20.1L20.1,0.6z"/>
				</g>
				<path fill="#77AFC2" d="M20.699,17.547L20.699,17.547L20.699,17.547L20.699,17.547L20.699,17.547
					c-4.051,0-3.898,7.201-3.898,7.201c0.149,0,3.449,0,3.898,0l0,0c0.449,0,3.748,0,3.898,0
					C24.6,24.896,24.75,17.698,20.699,17.547z"/>
			</g>
		</g>
	</g>
</g>
<g>
	<g>
		<g>
			<g>
				<path fill="#FFFFFF" d="M20.1,38.748v-7.197c-1.949,0-3.898-0.15-6.148-0.453c-0.9,1.65-1.8,3.898-2.55,6.898
					C14.399,38.451,17.402,38.748,20.1,38.748z"/>
				<path fill="#FFFFFF" d="M30,38.148c-0.751-2.998-1.801-5.396-2.697-7.047c-1.8,0.301-3.748,0.453-6,0.453v7.195
					C24.45,38.748,27.3,38.451,30,38.148z"/>
				<g>
					<path fill="#FFFFFF" d="M36.898,36.648c-0.9-2.4-2.25-4.652-4.051-6.75c-1.199,0.301-2.699,0.75-4.5,1.051
						c1.051,1.799,1.949,4.049,2.7,7.049C33.299,37.551,35.248,37.1,36.898,36.648z"/>
					<path fill="#FFFFFF" d="M31.199,38.898c0.597,3,1.05,6.451,1.197,10.801c3.451,0,6.299,0,6.602,0c0,0,0.148-5.998-1.95-12.148
						C35.548,38,33.6,38.6,31.199,38.898z"/>
				</g>
				<path fill="#FFFFFF" d="M19.95,39.799c-2.849,0-5.7-0.303-8.851-0.9C10.5,41.748,9.9,45.35,9.749,49.699c1.35,0,2.7,0,4.05,0
					C14.251,46.098,15.602,40.4,19.95,39.799z"/>
				<path fill="#FFFFFF" d="M27.6,49.699c1.198,0,2.549,0,3.899,0c-0.151-4.199-0.601-7.801-1.201-10.648
					c-2.552,0.449-5.55,0.75-8.698,0.75C25.8,40.549,27.148,46.098,27.6,49.699z"/>
				<path fill="#FFFFFF" d="M13.501,29.9c1.799-2.846,3.748-4.197,5.249-4.949c-4.049,0.449-7.049,1.953-9.299,4.05
					C10.801,29.301,12.152,29.6,13.501,29.9z"/>
				<path fill="#FFFFFF" d="M27.749,29.9c1.649-0.299,3-0.6,4.2-0.898c-2.251-2.098-5.4-3.748-9.448-4.05
					C23.999,25.701,25.949,27.051,27.749,29.9z"/>
				<g>
					<path fill="#FFFFFF" d="M10.352,37.699c0.748-2.848,1.648-5.098,2.697-6.898c-1.5-0.148-3-0.6-4.349-0.898
						c-1.799,1.801-3.15,4.051-4.049,6.299C6.602,36.799,8.402,37.398,10.352,37.699z"/>
					<path fill="#FFFFFF" d="M4.352,37.248c-2.249,6.152-2.1,12.449-2.1,12.449c0.301,0,3.15,0,6.449,0
						c0.15-4.35,0.601-7.949,1.351-10.949C8.1,38.299,6.302,37.85,4.352,37.248z"/>
				</g>
				<g>
					<path fill="#FFFFFF" d="M21.148,30.5c1.951,0,3.75-0.15,5.4-0.451c-0.15-0.301-0.449-0.6-0.6-0.898
						c-1.797-2.4-3.747-3.301-4.799-3.602L21.148,30.5L21.148,30.5z"/>
					<path fill="#FFFFFF" d="M20.1,25.551c-0.899,0.301-2.849,1.201-4.8,3.6c-0.149,0.303-0.45,0.602-0.598,0.902
						c1.95,0.299,3.748,0.451,5.549,0.451v-4.951L20.1,25.551L20.1,25.551z"/>
				</g>
				<path fill="#FFFFFF" d="M20.699,42.498L20.699,42.498L20.699,42.498L20.699,42.498L20.699,42.498
					c-4.051,0-3.899,7.199-3.899,7.199c0.15,0,3.45,0,3.899,0l0,0c0.449,0,3.748,0,3.898,0C24.6,49.848,24.75,42.648,20.699,42.498z
					"/>
			</g>
		</g>
	</g>
</g>
</svg>
