<?xml version="1.0" encoding="utf-8"?>
<!-- Generator: Adobe Illustrator 16.0.0, SVG Export Plug-In . SVG Version: 6.00 Build 0)  -->
<!DOCTYPE svg PUBLIC "-//W3C//DTD SVG 1.1//EN" "http://www.w3.org/Graphics/SVG/1.1/DTD/svg11.dtd">
<svg version="1.1" id="Layer_1" xmlns="http://www.w3.org/2000/svg" xmlns:xlink="http://www.w3.org/1999/xlink" x="0px" y="0px"
	 width="75px" height="100px" viewBox="268.5 346 75 100" enable-background="new 268.5 346 75 100" xml:space="preserve">
<g>
	<g>
		<g>
			<g>
				<path fill="#77AFC2" d="M304.929,373.65v-14.692c-3.979,0-7.958-0.306-12.549-0.918c-1.837,3.367-3.673,7.958-5.204,14.08
					C293.297,373.038,299.419,373.65,304.929,373.65z"/>
				<path fill="#77AFC2" d="M325.131,372.426c-1.531-6.122-3.674-11.019-5.51-14.386c-3.673,0.612-7.652,0.918-12.244,0.918v14.692
					C313.806,373.65,319.621,373.038,325.131,372.426z"/>
				<g>
					<path fill="#77AFC2" d="M339.21,369.365c-1.836-4.897-4.591-9.489-8.264-13.774c-2.449,0.612-5.51,1.531-9.183,2.143
						c2.143,3.673,3.979,8.265,5.51,14.386C331.864,371.202,335.844,370.284,339.21,369.365z"/>
					<path fill="#77AFC2" d="M327.579,373.956c1.225,6.122,2.143,13.162,2.448,22.039c7.04,0,12.856,0,13.468,0
						c0,0,0.307-12.244-3.979-24.793C336.456,372.12,332.477,373.345,327.579,373.956z"/>
				</g>
				<path fill="#77AFC2" d="M304.623,375.793c-5.815,0-11.631-0.612-18.059-1.837c-1.224,5.816-2.449,13.162-2.755,22.039
					c2.755,0,5.51,0,8.265,0C292.991,388.648,295.746,377.018,304.623,375.793z"/>
				<path fill="#77AFC2" d="M320.233,395.995c2.448,0,5.203,0,7.958,0c-0.307-8.57-1.225-15.917-2.449-21.732
					c-5.203,0.918-11.325,1.53-17.753,1.53C316.56,377.323,319.314,388.648,320.233,395.995z"/>
				<path fill="#77AFC2" d="M291.461,355.591c3.673-5.815,7.652-8.57,10.713-10.101c-8.264,0.918-14.386,3.979-18.977,8.264
					C285.951,354.367,288.706,354.979,291.461,355.591z"/>
				<path fill="#77AFC2" d="M320.539,355.591c3.367-0.612,6.122-1.224,8.57-1.836c-4.591-4.285-11.019-7.652-19.283-8.264
					C312.887,347.021,316.866,349.776,320.539,355.591z"/>
				<g>
					<path fill="#77AFC2" d="M285.033,371.508c1.53-5.815,3.367-10.407,5.509-14.08c-3.061-0.306-6.122-1.224-8.876-1.836
						c-3.673,3.673-6.428,8.264-8.264,12.855C277.381,369.671,281.054,370.896,285.033,371.508z"/>
					<path fill="#77AFC2" d="M272.79,370.59c-4.591,12.549-4.285,25.405-4.285,25.405c0.612,0,6.428,0,13.162,0
						c0.306-8.877,1.225-16.223,2.755-22.345C280.442,372.732,276.769,371.814,272.79,370.59z"/>
				</g>
				<g>
					<path fill="#77AFC2" d="M307.071,356.816c3.979,0,7.652-0.306,11.02-0.918c-0.307-0.612-0.919-1.224-1.225-1.836
						c-3.673-4.897-7.652-6.734-9.795-7.346V356.816L307.071,356.816z"/>
					<path fill="#77AFC2" d="M304.929,346.715c-1.836,0.612-5.815,2.449-9.795,7.346c-0.306,0.612-0.918,1.224-1.224,1.836
						c3.979,0.612,7.652,0.918,11.325,0.918v-10.101H304.929z"/>
				</g>
				<path fill="#77AFC2" d="M306.153,381.303L306.153,381.303L306.153,381.303L306.153,381.303L306.153,381.303
					c-8.265,0-7.958,14.692-7.958,14.692c0.306,0,7.04,0,7.958,0l0,0c0.918,0,7.652,0,7.958,0
					C314.111,396.301,314.417,381.608,306.153,381.303z"/>
			</g>
		</g>
	</g>
</g>
<g>
	<g>
		<g>
			<g>
				<path fill="#FFFFFF" d="M304.929,424.16v-14.691c-3.979,0-7.958-0.307-12.549-0.919c-1.837,3.367-3.673,7.958-5.204,14.08
					C293.297,423.548,299.419,424.16,304.929,424.16z"/>
				<path fill="#FFFFFF" d="M325.131,422.936c-1.531-6.121-3.674-11.019-5.51-14.386c-3.673,0.612-7.652,0.919-12.244,0.919v14.691
					C313.806,424.16,319.621,423.548,325.131,422.936z"/>
				<g>
					<path fill="#FFFFFF" d="M339.21,419.875c-1.836-4.897-4.591-9.488-8.264-13.773c-2.449,0.611-5.51,1.53-9.183,2.143
						c2.143,3.673,3.979,8.264,5.51,14.386C331.864,421.711,335.844,420.793,339.21,419.875z"/>
					<path fill="#FFFFFF" d="M327.579,424.466c1.225,6.122,2.143,13.162,2.448,22.039c7.04,0,12.856,0,13.468,0
						c0,0,0.307-12.244-3.979-24.794C336.456,422.63,332.477,423.854,327.579,424.466z"/>
				</g>
				<path fill="#FFFFFF" d="M304.622,426.303c-5.814,0-11.631-0.612-18.059-1.837c-1.224,5.816-2.449,13.162-2.755,22.039
					c2.755,0,5.51,0,8.265,0C292.991,439.158,295.746,427.527,304.622,426.303z"/>
				<path fill="#FFFFFF" d="M320.233,446.505c2.448,0,5.203,0,7.958,0c-0.307-8.57-1.225-15.917-2.449-21.732
					c-5.203,0.918-11.325,1.53-17.753,1.53C316.56,427.833,319.314,439.158,320.233,446.505z"/>
				<path fill="#FFFFFF" d="M291.461,406.102c3.673-5.816,7.652-8.57,10.713-10.101c-8.264,0.917-14.386,3.979-18.977,8.264
					C285.951,404.877,288.706,405.488,291.461,406.102z"/>
				<path fill="#FFFFFF" d="M320.539,406.102c3.367-0.613,6.122-1.225,8.57-1.837c-4.591-4.285-11.019-7.652-19.283-8.264
					C312.887,397.531,316.866,400.285,320.539,406.102z"/>
				<g>
					<path fill="#FFFFFF" d="M285.033,422.018c1.53-5.815,3.367-10.406,5.509-14.08c-3.061-0.306-6.122-1.225-8.876-1.836
						c-3.673,3.673-6.428,8.264-8.264,12.855C277.381,420.182,281.054,421.405,285.033,422.018z"/>
					<path fill="#FFFFFF" d="M272.79,421.1c-4.591,12.549-4.285,25.405-4.285,25.405c0.612,0,6.428,0,13.162,0
						c0.306-8.877,1.225-16.223,2.755-22.345C280.442,423.242,276.769,422.324,272.79,421.1z"/>
				</g>
				<g>
					<path fill="#FFFFFF" d="M307.071,407.326c3.979,0,7.652-0.307,11.02-0.919c-0.307-0.612-0.919-1.224-1.225-1.837
						c-3.673-4.896-7.652-6.733-9.795-7.346V407.326L307.071,407.326z"/>
					<path fill="#FFFFFF" d="M304.929,397.225c-1.836,0.612-5.815,2.449-9.795,7.346c-0.306,0.613-0.918,1.225-1.224,1.837
						c3.979,0.612,7.652,0.919,11.326,0.919v-10.102H304.929z"/>
				</g>
				<path fill="#FFFFFF" d="M306.153,431.812L306.153,431.812L306.153,431.812L306.153,431.812L306.153,431.812
					c-8.265,0-7.959,14.692-7.959,14.692c0.307,0,7.041,0,7.959,0l0,0c0.918,0,7.652,0,7.958,0
					C314.111,446.811,314.417,432.118,306.153,431.812z"/>
			</g>
		</g>
	</g>
</g>
</svg>
