<?xml version="1.0" encoding="utf-8"?>
<!-- Generator: Adobe Illustrator 16.0.0, SVG Export Plug-In . SVG Version: 6.00 Build 0)  -->
<!DOCTYPE svg PUBLIC "-//W3C//DTD SVG 1.1//EN" "http://www.w3.org/Graphics/SVG/1.1/DTD/svg11.dtd">
<svg version="1.1" id="Layer_1" xmlns="http://www.w3.org/2000/svg" xmlns:xlink="http://www.w3.org/1999/xlink" x="0px" y="0px"
	 width="75px" height="100px" viewBox="268.5 346 75 100" enable-background="new 268.5 346 75 100" xml:space="preserve">
<g>
	<g>
		<path fill="#77AFC2" d="M338.47,347.22c-1.22-0.915-2.744-1.22-4.269-1.22h-56.402c-1.524,0-3.049,0.61-4.573,1.22l32.622,21.646
			L338.47,347.22z"/>
		<path fill="#77AFC2" d="M343.348,383.5v-28.354c0-2.134-0.915-4.268-2.134-5.792l-24.695,16.463L343.348,383.5z"/>
		<g>
			<path fill="#77AFC2" d="M295.787,366.122l-25-16.768c-1.22,1.524-2.134,3.658-2.134,5.792v28.658L295.787,366.122z"/>
			<path fill="#77AFC2" d="M313.774,367.646l-7.012,4.573c-0.305,0.305-0.61,0.305-0.915,0.305c-0.305,0-0.61,0-0.915-0.305
				l-6.403-4.268l-29.878,19.512c0.305,4.573,4.269,8.536,9.146,8.536h56.402c4.878,0,8.842-3.963,9.146-8.842L313.774,367.646z"/>
		</g>
	</g>
</g>
<g>
	<g>
		<path fill="#FFFFFF" d="M338.317,397.221c-1.22-0.915-2.744-1.22-4.269-1.22h-56.402c-1.524,0-3.049,0.61-4.573,1.22
			l32.622,21.646L338.317,397.221z"/>
		<path fill="#FFFFFF" d="M343.195,433.5v-28.354c0-2.134-0.915-4.268-2.134-5.792l-24.695,16.464L343.195,433.5z"/>
		<g>
			<path fill="#FFFFFF" d="M295.634,416.123l-25-16.769c-1.22,1.524-2.134,3.658-2.134,5.792v28.658L295.634,416.123z"/>
			<path fill="#FFFFFF" d="M313.622,417.646l-7.012,4.574c-0.306,0.305-0.61,0.305-0.915,0.305s-0.609,0-0.914-0.305l-6.403-4.269
				L268.5,437.465c0.305,4.572,4.269,8.535,9.146,8.535h56.402c4.878,0,8.842-3.963,9.146-8.842L313.622,417.646z"/>
		</g>
	</g>
</g>
</svg>
