<?xml version="1.0" encoding="utf-8"?>
<!-- Generator: Adobe Illustrator 16.0.0, SVG Export Plug-In . SVG Version: 6.00 Build 0)  -->
<!DOCTYPE svg PUBLIC "-//W3C//DTD SVG 1.1//EN" "http://www.w3.org/Graphics/SVG/1.1/DTD/svg11.dtd">
<svg version="1.1" id="Layer_1" xmlns="http://www.w3.org/2000/svg" xmlns:xlink="http://www.w3.org/1999/xlink" x="0px" y="0px"
	 width="75px" height="100px" viewBox="268.5 346 75 100" enable-background="new 268.5 346 75 100" xml:space="preserve">
<g>
	<g>
		
			<rect x="292.591" y="352.526" transform="matrix(-0.7689 -0.6394 0.6394 -0.7689 299.0543 849.8473)" fill="#77AFC2" width="21.057" height="36.699"/>
		<path fill="#77AFC2" d="M308.05,348.238c0,0,6.316-5.415,13.536,0.602c7.219,6.016,2.707,12.935,2.707,12.935L308.05,348.238z"/>
		<path fill="#77AFC2" d="M283.384,378.017v14.438l-0.301,0.301c-0.902,1.203-1.203,2.708-0.602,3.009
			c0.602,0.602,1.805,0,3.008-1.204c0,0,0-0.301,0.301-0.301l14.138-3.008L283.384,378.017z M286.091,381.928l9.325,7.82
			l-9.325,1.805V381.928z"/>
	</g>
</g>
<g>
	<g>
		
			<rect x="291.784" y="402.526" transform="matrix(-0.7689 -0.6394 0.6394 -0.7689 265.6561 937.7752)" fill="#FFFFFF" width="21.058" height="36.699"/>
		<path fill="#FFFFFF" d="M307.242,398.238c0,0,6.316-5.415,13.537,0.602c7.219,6.016,2.707,12.934,2.707,12.934L307.242,398.238z"
			/>
		<path fill="#FFFFFF" d="M282.577,428.017v14.438l-0.301,0.301c-0.902,1.203-1.203,2.708-0.602,3.009
			c0.602,0.602,1.805,0,3.008-1.204c0,0,0-0.301,0.301-0.301l14.138-3.008L282.577,428.017z M285.284,431.928l9.325,7.82
			l-9.325,1.805V431.928z"/>
	</g>
</g>
</svg>
