<?xml version="1.0" encoding="utf-8"?>
<!-- Generator: Adobe Illustrator 14.0.0, SVG Export Plug-In . SVG Version: 6.00 Build 43363)  -->
<!DOCTYPE svg PUBLIC "-//W3C//DTD SVG 1.1//EN" "http://www.w3.org/Graphics/SVG/1.1/DTD/svg11.dtd">
<svg version="1.1" id="Layer_1" xmlns="http://www.w3.org/2000/svg" xmlns:xlink="http://www.w3.org/1999/xlink" x="0px" y="0px"
	 width="53px" height="70px" viewBox="0 0 53 70" enable-background="new 0 0 53 70" xml:space="preserve">
<g>
	<g>
		<g>
			<g>
				<path fill="#77AFC2" d="M25.75,18.712V8.428c-2.785,0-5.57-0.214-8.785-0.643c-1.286,2.356-2.571,5.57-3.643,9.856
					C17.607,18.283,21.895,18.712,25.75,18.712z"/>
				<path fill="#77AFC2" d="M39.893,17.854c-1.072-4.285-2.572-7.713-3.855-10.07c-2.571,0.429-5.355,0.643-8.571,0.643v10.285
					C31.965,18.712,36.035,18.283,39.893,17.854z"/>
				<g>
					<path fill="#77AFC2" d="M49.747,15.712c-1.285-3.428-3.214-6.642-5.785-9.642c-1.714,0.428-3.856,1.072-6.429,1.5
						c1.501,2.571,2.785,5.786,3.857,10.07C44.605,16.998,47.391,16.355,49.747,15.712z"/>
					<path fill="#77AFC2" d="M41.605,18.926c0.855,4.285,1.5,9.212,1.713,15.428c4.928,0,8.998,0,9.429,0
						c0,0,0.214-8.571-2.786-17.355C47.818,17.641,45.033,18.498,41.605,18.926z"/>
				</g>
				<path fill="#77AFC2" d="M25.536,20.212c-4.07,0-8.142-0.428-12.642-1.286c-0.857,4.07-1.714,9.212-1.929,15.428
					c1.929,0,3.857,0,5.786,0C17.395,29.21,19.322,21.069,25.536,20.212z"/>
				<path fill="#77AFC2" d="M36.463,34.354c1.713,0,3.643,0,5.571,0c-0.216-6-0.858-11.143-1.716-15.212
					c-3.643,0.643-7.928,1.07-12.426,1.07C33.893,21.283,35.82,29.21,36.463,34.354z"/>
				<path fill="#77AFC2" d="M16.323,6.071C18.895,2,21.68,0.072,23.822-1c-5.785,0.643-10.07,2.785-13.284,5.785
					C12.466,5.214,14.395,5.641,16.323,6.071z"/>
				<path fill="#77AFC2" d="M36.678,6.071c2.356-0.429,4.285-0.857,5.999-1.285C39.462,1.787,34.962-0.57,29.18-0.999
					C31.32,0.071,34.105,1.999,36.678,6.071z"/>
				<g>
					<path fill="#77AFC2" d="M11.823,17.212c1.069-4.07,2.356-7.284,3.854-9.856C13.535,7.142,11.393,6.5,9.466,6.071
						c-2.571,2.572-4.5,5.785-5.785,8.999C6.467,15.927,9.039,16.783,11.823,17.212z"/>
					<path fill="#77AFC2" d="M3.253,16.57c-3.213,8.784-3,17.784-3,17.784c0.429,0,4.5,0,9.213,0
						c0.214-6.214,0.858-11.357,1.929-15.642C8.608,18.069,6.039,17.427,3.253,16.57z"/>
				</g>
				<g>
					<path fill="#77AFC2" d="M27.249,6.928c2.786,0,5.356-0.215,7.715-0.643c-0.215-0.429-0.644-0.857-0.856-1.286
						c-2.57-3.427-5.355-4.713-6.856-5.143L27.249,6.928L27.249,6.928z"/>
					<path fill="#77AFC2" d="M25.75-0.143c-1.286,0.428-4.07,1.714-6.857,5.142c-0.213,0.429-0.643,0.857-0.855,1.286
						c2.786,0.428,5.355,0.643,7.927,0.643v-7.071H25.75L25.75-0.143z"/>
				</g>
				<path fill="#77AFC2" d="M26.607,24.068L26.607,24.068L26.607,24.068L26.607,24.068L26.607,24.068
					c-5.787,0-5.57,10.285-5.57,10.285c0.214,0,4.928,0,5.57,0l0,0c0.642,0,5.355,0,5.57,0
					C32.178,34.566,32.393,24.282,26.607,24.068z"/>
			</g>
		</g>
	</g>
</g>
<g>
	<g>
		<g>
			<g>
				<path fill="#FFFFFF" d="M25.75,53.355V43.072c-2.785,0-5.57-0.215-8.785-0.645c-1.286,2.357-2.571,5.57-3.643,9.856
					C17.607,52.93,21.895,53.355,25.75,53.355z"/>
				<path fill="#FFFFFF" d="M39.893,52.499c-1.072-4.283-2.572-7.712-3.855-10.067c-2.571,0.428-5.355,0.643-8.571,0.643v10.283
					C31.965,53.355,36.035,52.93,39.893,52.499z"/>
				<g>
					<path fill="#FFFFFF" d="M49.747,50.355c-1.285-3.428-3.214-6.643-5.785-9.641c-1.714,0.428-3.856,1.07-6.429,1.502
						c1.501,2.569,2.785,5.783,3.857,10.068C44.605,51.643,47.391,50.999,49.747,50.355z"/>
					<path fill="#FFFFFF" d="M41.605,53.57c0.855,4.285,1.5,9.214,1.713,15.428c4.928,0,8.998,0,9.429,0
						c0,0,0.214-8.568-2.786-17.355C47.818,52.286,45.033,53.143,41.605,53.57z"/>
				</g>
				<path fill="#FFFFFF" d="M25.536,54.855c-4.07,0-8.142-0.428-12.643-1.285c-0.856,4.07-1.713,9.214-1.928,15.428
					c1.928,0,3.857,0,5.786,0C17.395,63.854,19.322,55.714,25.536,54.855z"/>
				<path fill="#FFFFFF" d="M36.463,68.998c1.713,0,3.643,0,5.571,0c-0.216-5.999-0.858-11.143-1.716-15.212
					c-3.643,0.644-7.928,1.069-12.426,1.069C33.893,55.927,35.82,63.854,36.463,68.998z"/>
				<path fill="#FFFFFF" d="M16.323,40.716c2.571-4.067,5.356-5.996,7.499-7.07c-5.785,0.641-10.07,2.788-13.284,5.786
					C12.466,39.857,14.395,40.285,16.323,40.716z"/>
				<path fill="#FFFFFF" d="M36.678,40.716c2.356-0.429,4.285-0.856,5.999-1.284c-3.215-2.998-7.715-5.356-13.497-5.786
					C31.32,34.716,34.105,36.645,36.678,40.716z"/>
				<g>
					<path fill="#FFFFFF" d="M11.823,51.855c1.069-4.068,2.356-7.282,3.854-9.854c-2.144-0.214-4.286-0.856-6.213-1.285
						c-2.571,2.572-4.5,5.787-5.785,8.998C6.467,50.57,9.039,51.427,11.823,51.855z"/>
					<path fill="#FFFFFF" d="M3.253,51.214c-3.213,8.787-3,17.784-3,17.784c0.429,0,4.5,0,9.213,0
						c0.214-6.214,0.858-11.355,1.929-15.643C8.608,52.714,6.039,52.07,3.253,51.214z"/>
				</g>
				<g>
					<path fill="#FFFFFF" d="M27.249,41.572c2.786,0,5.356-0.215,7.715-0.645c-0.215-0.428-0.644-0.855-0.856-1.285
						c-2.57-3.428-5.355-4.713-6.856-5.143L27.249,41.572L27.249,41.572z"/>
					<path fill="#FFFFFF" d="M25.75,34.501c-1.286,0.431-4.07,1.715-6.857,5.144c-0.213,0.43-0.643,0.858-0.855,1.287
						c2.786,0.428,5.355,0.645,7.928,0.645v-7.074L25.75,34.501L25.75,34.501z"/>
				</g>
				<path fill="#FFFFFF" d="M26.607,58.714L26.607,58.714L26.607,58.714L26.607,58.714L26.607,58.714
					c-5.787,0-5.571,10.283-5.571,10.283c0.215,0,4.929,0,5.571,0l0,0c0.642,0,5.355,0,5.57,0
					C32.178,69.212,32.393,58.927,26.607,58.714z"/>
			</g>
		</g>
	</g>
</g>
</svg>
