<?xml version="1.0" encoding="utf-8"?>
<!-- Generator: Adobe Illustrator 14.0.0, SVG Export Plug-In . SVG Version: 6.00 Build 43363)  -->
<!DOCTYPE svg PUBLIC "-//W3C//DTD SVG 1.1//EN" "http://www.w3.org/Graphics/SVG/1.1/DTD/svg11.dtd">
<svg version="1.1" id="Layer_1" xmlns="http://www.w3.org/2000/svg" xmlns:xlink="http://www.w3.org/1999/xlink" x="0px" y="0px"
	 width="40px" height="50px" viewBox="6.5 10 40 50" enable-background="new 6.5 10 40 50" xml:space="preserve">
<g>
	<g>
		<g>
			<path fill="#77AFC2" d="M33.269,14.273c-1.14-2.563-2.849-3.704-5.697-4.273l0,0l0,0c-2.849,0.569-4.56,1.709-5.699,4.273
				c1.709,0.712,3.705,1.14,5.699,1.14S31.417,14.985,33.269,14.273z"/>
			<path fill="#77AFC2" d="M22.87,32.364c0,0,3.562,1.565,9.401,0l-1.565,1.993h-6.125L22.87,32.364z"/>
		</g>
		<path fill="#77AFC2" d="M33.554,15.555c-1.853,0.855-3.988,1.282-6.125,1.282c-2.136,0-4.273-0.427-6.125-1.139
			c-2.278,5.698-1.282,13.674-1.282,13.674c0.569,0.285,1.139,0.428,1.71,0.569c0,0.997,0.143,1.14,0.143,1.14
			c2.137,0.854,3.988,0.996,5.555,0.854c1.566,0.143,3.419-0.144,5.556-0.854c0,0,0.143-0.143,0.143-1.14
			c0.57-0.143,1.14-0.284,1.708-0.569C34.836,29.372,35.975,21.396,33.554,15.555z M27.429,25.954c-1.852,0-3.276-1.282-3.276-2.991
			c0-1.566,1.425-2.991,3.276-2.991s3.277,1.282,3.277,2.991C30.848,24.528,29.28,25.954,27.429,25.954z"/>
		<path fill="#77AFC2" d="M20.021,24.244c0,0-4.701,0.996-4.701,10.113l0.57,0.143c0,0,1.851-5.128,4.558-5.128l-0.428-5.27"/>
		<path fill="#77AFC2" d="M34.836,24.244c0,0,4.7,0.996,4.7,10.113L38.967,34.5c0,0-1.852-5.128-4.558-5.128l0.427-5.413"/>
	</g>
</g>
<g>
	<g>
		<g>
			<path fill="#FFFFFF" d="M33.411,38.772c-1.14-2.563-2.849-3.704-5.698-4.272l0,0l0,0c-2.848,0.568-4.558,1.709-5.697,4.272
				c1.709,0.713,3.704,1.141,5.697,1.141C29.708,39.913,31.56,39.485,33.411,38.772z"/>
			<path fill="#FFFFFF" d="M23.013,56.864c0,0,3.561,1.565,9.402,0l-1.567,1.993h-6.125L23.013,56.864z"/>
		</g>
		<path fill="#FFFFFF" d="M33.697,40.055c-1.853,0.856-3.989,1.282-6.125,1.282s-4.273-0.426-6.125-1.139
			c-2.278,5.698-1.282,13.674-1.282,13.674c0.569,0.285,1.139,0.427,1.709,0.569c0,0.998,0.143,1.14,0.143,1.14
			c2.137,0.854,3.989,0.997,5.556,0.854c1.566,0.143,3.418-0.144,5.555-0.854c0,0,0.143-0.142,0.143-1.14
			c0.57-0.143,1.14-0.284,1.709-0.569C34.979,53.872,36.118,45.896,33.697,40.055z M27.572,50.454c-1.853,0-3.277-1.282-3.277-2.992
			c0-1.565,1.425-2.989,3.277-2.989c1.852,0,3.277,1.281,3.277,2.989C30.99,49.028,29.424,50.454,27.572,50.454z"/>
		<path fill="#FFFFFF" d="M20.165,48.743c0,0-4.701,0.998-4.701,10.114L16.034,59c0,0,1.852-5.128,4.558-5.128l-0.427-5.27"/>
		<path fill="#FFFFFF" d="M34.979,48.743c0,0,4.7,0.998,4.7,10.114L39.108,59c0,0-1.851-5.128-4.558-5.128l0.426-5.413"/>
	</g>
</g>
</svg>
