<?xml version="1.0" encoding="utf-8"?>
<!-- Generator: Adobe Illustrator 14.0.0, SVG Export Plug-In . SVG Version: 6.00 Build 43363)  -->
<!DOCTYPE svg PUBLIC "-//W3C//DTD SVG 1.1//EN" "http://www.w3.org/Graphics/SVG/1.1/DTD/svg11.dtd">
<svg version="1.1" id="Layer_1" xmlns="http://www.w3.org/2000/svg" xmlns:xlink="http://www.w3.org/1999/xlink" x="0px" y="0px"
	 width="53px" height="70px" viewBox="11 15 53 70" enable-background="new 11 15 53 70" xml:space="preserve">
<g>
	<g>
		
			<rect x="29.851" y="19.56" transform="matrix(-0.7689 -0.6393 0.6393 -0.7689 45.1218 81.1172)" fill="#77AFC2" width="14.739" height="25.689"/>
		<path fill="#77AFC2" d="M40.668,16.566c0,0,4.421-3.791,9.476,0.421c5.054,4.211,1.896,9.055,1.896,9.055L40.668,16.566z"/>
		<path fill="#77AFC2" d="M23.402,37.412v10.106l-0.21,0.21c-0.63,0.842-0.842,1.896-0.422,2.107c0.422,0.421,1.264,0,2.106-0.844
			c0,0,0-0.211,0.211-0.211l9.896-2.105L23.402,37.412z M25.297,40.149l6.528,5.474l-6.528,1.263V40.149z"/>
	</g>
</g>
<g>
	<g>
		
			<rect x="29.287" y="54.558" transform="matrix(-0.7689 -0.6393 0.6393 -0.7689 21.7511 142.6661)" fill="#FFFFFF" width="14.74" height="25.69"/>
		<path fill="#FFFFFF" d="M40.104,51.565c0,0,4.421-3.79,9.476,0.422c5.053,4.212,1.895,9.054,1.895,9.054L40.104,51.565z"/>
		<path fill="#FFFFFF" d="M22.838,72.411v10.106l-0.211,0.211c-0.63,0.842-0.841,1.896-0.421,2.106c0.421,0.422,1.264,0,2.106-0.843
			c0,0,0-0.211,0.21-0.211l9.897-2.105L22.838,72.411z M24.732,75.148l6.528,5.475l-6.528,1.264V75.148z"/>
	</g>
</g>
</svg>
