<?xml version="1.0" encoding="utf-8"?>
<!-- Generator: Adobe Illustrator 14.0.0, SVG Export Plug-In . SVG Version: 6.00 Build 43363)  -->
<!DOCTYPE svg PUBLIC "-//W3C//DTD SVG 1.1//EN" "http://www.w3.org/Graphics/SVG/1.1/DTD/svg11.dtd">
<svg version="1.1" id="Layer_1" xmlns="http://www.w3.org/2000/svg" xmlns:xlink="http://www.w3.org/1999/xlink" x="0px" y="0px"
	 width="40px" height="50px" viewBox="6.5 10 40 50" enable-background="new 6.5 10 40 50" xml:space="preserve">
<g>
	<g>
		
			<rect x="21.947" y="13.194" transform="matrix(0.769 0.6393 -0.6393 0.769 20.4449 -12.2026)" fill="#77AFC2" width="10.317" height="17.982"/>
		<path fill="#77AFC2" d="M29.52,11.097c0,0,3.094-2.654,6.633,0.295c3.537,2.948,1.328,6.338,1.328,6.338L29.52,11.097z"/>
		<path fill="#77AFC2" d="M17.433,25.689v7.073l-0.147,0.147c-0.44,0.59-0.589,1.327-0.295,1.475c0.295,0.295,0.885,0,1.475-0.591
			c0,0,0-0.147,0.147-0.147l6.927-1.474L17.433,25.689z M18.759,27.604l4.57,3.832l-4.57,0.884V27.604z"/>
	</g>
</g>
<g>
	<g>
		
			<rect x="21.948" y="37.692" transform="matrix(0.7689 0.6393 -0.6393 0.7689 36.1102 -6.543)" fill="#FFFFFF" width="10.316" height="17.983"/>
		<path fill="#FFFFFF" d="M29.52,35.596c0,0,3.096-2.652,6.633,0.295c3.537,2.949,1.326,6.339,1.326,6.339L29.52,35.596z"/>
		<path fill="#FFFFFF" d="M17.434,50.188v7.074l-0.148,0.147c-0.44,0.59-0.588,1.327-0.294,1.475c0.294,0.295,0.885,0,1.474-0.591
			c0,0,0-0.147,0.147-0.147l6.928-1.474L17.434,50.188z M18.759,52.104l4.569,3.832l-4.569,0.885V52.104z"/>
	</g>
</g>
</svg>
