<?xml version="1.0" encoding="utf-8"?>
<!-- Generator: Adobe Illustrator 14.0.0, SVG Export Plug-In . SVG Version: 6.00 Build 43363)  -->
<!DOCTYPE svg PUBLIC "-//W3C//DTD SVG 1.1//EN" "http://www.w3.org/Graphics/SVG/1.1/DTD/svg11.dtd">
<svg version="1.1" id="Layer_1" xmlns="http://www.w3.org/2000/svg" xmlns:xlink="http://www.w3.org/1999/xlink" x="0px" y="0px"
	 width="53px" height="70px" viewBox="11 15 53 70" enable-background="new 11 15 53 70" xml:space="preserve">
<g>
	<g>
		<g>
			<path fill="#77AFC2" d="M45.741,21.104c-1.628-3.662-4.07-5.291-8.14-6.104l0,0l0,0c-4.069,0.813-6.512,2.442-8.14,6.104
				c2.441,1.017,5.292,1.628,8.14,1.628C40.45,22.732,43.096,22.122,45.741,21.104z"/>
			<path fill="#77AFC2" d="M30.887,46.948c0,0,5.087,2.238,13.429,0l-2.236,2.848h-8.75L30.887,46.948z"/>
		</g>
		<path fill="#77AFC2" d="M46.148,22.936c-2.646,1.221-5.698,1.831-8.75,1.831c-3.051,0-6.104-0.61-8.75-1.627
			c-3.255,8.14-1.832,19.534-1.832,19.534c0.814,0.408,1.628,0.611,2.443,0.814c0,1.424,0.204,1.627,0.204,1.627
			c3.052,1.221,5.698,1.424,7.936,1.221c2.238,0.204,4.884-0.204,7.936-1.221c0,0,0.204-0.203,0.204-1.627
			c0.814-0.204,1.628-0.407,2.44-0.814C47.98,42.674,49.607,31.279,46.148,22.936z M37.398,37.791c-2.645,0-4.68-1.831-4.68-4.273
			c0-2.238,2.035-4.273,4.68-4.273s4.682,1.831,4.682,4.273C42.282,35.755,40.044,37.791,37.398,37.791z"/>
		<path fill="#77AFC2" d="M26.816,35.348c0,0-6.715,1.424-6.715,14.448L20.916,50c0,0,2.645-7.326,6.512-7.326l-0.611-7.528"/>
		<path fill="#77AFC2" d="M47.98,35.348c0,0,6.715,1.424,6.715,14.448L53.882,50c0,0-2.646-7.326-6.512-7.326l0.61-7.732"/>
	</g>
</g>
<g>
	<g>
		<g>
			<path fill="#FFFFFF" d="M45.945,56.104c-1.629-3.662-4.07-5.291-8.14-6.104l0,0l0,0c-4.069,0.813-6.511,2.441-8.139,6.104
				c2.441,1.018,5.291,1.628,8.139,1.628C40.654,57.732,43.3,57.122,45.945,56.104z"/>
			<path fill="#FFFFFF" d="M31.09,81.948c0,0,5.087,2.237,13.431,0l-2.238,2.848h-8.75L31.09,81.948z"/>
		</g>
		<path fill="#FFFFFF" d="M46.353,57.936c-2.646,1.222-5.699,1.832-8.75,1.832c-3.051,0-6.105-0.61-8.75-1.628
			c-3.255,8.14-1.832,19.534-1.832,19.534c0.814,0.407,1.628,0.61,2.442,0.814c0,1.425,0.204,1.627,0.204,1.627
			c3.052,1.221,5.698,1.425,7.936,1.221c2.238,0.204,4.884-0.204,7.936-1.221c0,0,0.203-0.202,0.203-1.627
			c0.815-0.204,1.629-0.407,2.441-0.814C48.184,77.674,49.812,66.279,46.353,57.936z M37.603,72.791
			c-2.646,0-4.681-1.831-4.681-4.273c0-2.237,2.035-4.272,4.681-4.272c2.646,0,4.682,1.831,4.682,4.272
			C42.486,70.755,40.248,72.791,37.603,72.791z"/>
		<path fill="#FFFFFF" d="M27.021,70.348c0,0-6.715,1.425-6.715,14.448L21.12,85c0,0,2.645-7.326,6.512-7.326l-0.611-7.528"/>
		<path fill="#FFFFFF" d="M48.184,70.348c0,0,6.715,1.425,6.715,14.448L54.084,85c0,0-2.645-7.326-6.511-7.326l0.609-7.732"/>
	</g>
</g>
</svg>
