<?xml version="1.0" encoding="utf-8"?>
<!-- Generator: Adobe Illustrator 16.0.0, SVG Export Plug-In . SVG Version: 6.00 Build 0)  -->
<!DOCTYPE svg PUBLIC "-//W3C//DTD SVG 1.1//EN" "http://www.w3.org/Graphics/SVG/1.1/DTD/svg11.dtd">
<svg version="1.1" id="Layer_1" xmlns="http://www.w3.org/2000/svg" xmlns:xlink="http://www.w3.org/1999/xlink" x="0px" y="0px"
	 width="75px" height="100px" viewBox="0 0 75 100" enable-background="new 0 0 75 100" xml:space="preserve">
<g>
	<g>
		<g>
			<g>
				<path fill="#77AFC2" d="M36.429,27.142V12.45c-3.979,0-7.958-0.306-12.549-0.918c-1.837,3.367-3.673,7.958-5.204,14.08
					C24.797,26.53,30.919,27.142,36.429,27.142z"/>
				<path fill="#77AFC2" d="M56.631,25.917c-1.531-6.121-3.674-11.019-5.51-14.386c-3.673,0.612-7.652,0.918-12.244,0.918v14.692
					C45.306,27.142,51.121,26.53,56.631,25.917z"/>
				<g>
					<path fill="#77AFC2" d="M70.71,22.857c-1.836-4.897-4.591-9.489-8.264-13.774c-2.449,0.612-5.511,1.531-9.184,2.144
						c2.144,3.673,3.979,8.265,5.511,14.386C63.364,24.694,67.344,23.776,70.71,22.857z"/>
					<path fill="#77AFC2" d="M59.079,27.448c1.225,6.122,2.143,13.162,2.448,22.04c7.04,0,12.855,0,13.468,0
						c0,0,0.307-12.245-3.979-24.793C67.956,25.612,63.977,26.837,59.079,27.448z"/>
				</g>
				<path fill="#77AFC2" d="M36.123,29.285c-5.815,0-11.631-0.611-18.059-1.837c-1.225,5.815-2.449,13.162-2.756,22.04
					c2.756,0,5.51,0,8.266,0C24.491,42.14,27.246,30.509,36.123,29.285z"/>
				<path fill="#77AFC2" d="M51.733,49.487c2.447,0,5.202,0,7.958,0c-0.308-8.571-1.226-15.917-2.449-21.732
					c-5.203,0.918-11.325,1.529-17.753,1.529C48.06,30.815,50.814,42.14,51.733,49.487z"/>
				<path fill="#77AFC2" d="M22.961,9.083c3.673-5.815,7.652-8.569,10.713-10.101C25.41-0.1,19.288,2.96,14.697,7.246
					C17.451,7.859,20.206,8.47,22.961,9.083z"/>
				<path fill="#77AFC2" d="M52.039,9.083c3.367-0.612,6.122-1.224,8.57-1.836c-4.592-4.284-11.02-7.651-19.283-8.264
					C44.387,0.513,48.366,3.267,52.039,9.083z"/>
				<g>
					<path fill="#77AFC2" d="M16.533,25c1.529-5.814,3.367-10.406,5.509-14.08c-3.062-0.306-6.122-1.224-8.876-1.836
						c-3.673,3.674-6.428,8.264-8.264,12.855C8.881,23.163,12.555,24.388,16.533,25z"/>
					<path fill="#77AFC2" d="M4.29,24.082C-0.301,36.63,0.005,49.487,0.005,49.487c0.612,0,6.429,0,13.162,0
						c0.306-8.877,1.226-16.224,2.755-22.345C11.941,26.224,8.27,25.306,4.29,24.082z"/>
				</g>
				<g>
					<path fill="#77AFC2" d="M38.571,10.308c3.979,0,7.651-0.307,11.02-0.918c-0.307-0.612-0.919-1.225-1.225-1.836
						c-3.673-4.897-7.652-6.734-9.795-7.347V10.308L38.571,10.308z"/>
					<path fill="#77AFC2" d="M36.429,0.207c-1.836,0.612-5.814,2.449-9.795,7.346c-0.306,0.612-0.918,1.225-1.224,1.836
						c3.979,0.612,7.651,0.918,11.325,0.918V0.206L36.429,0.207L36.429,0.207z"/>
				</g>
				<path fill="#77AFC2" d="M37.653,34.794L37.653,34.794L37.653,34.794L37.653,34.794L37.653,34.794
					c-8.266,0-7.958,14.693-7.958,14.693c0.306,0,7.04,0,7.958,0l0,0c0.918,0,7.651,0,7.958,0
					C45.611,49.792,45.917,35.099,37.653,34.794z"/>
			</g>
		</g>
	</g>
</g>
<g>
	<g>
		<g>
			<g>
				<path fill="#FFFFFF" d="M36.429,77.651V62.96c-3.979,0-7.958-0.307-12.549-0.918c-1.837,3.367-3.673,7.957-5.204,14.08
					C24.797,77.04,30.919,77.651,36.429,77.651z"/>
				<path fill="#FFFFFF" d="M56.631,76.427c-1.531-6.121-3.674-11.018-5.51-14.385c-3.673,0.611-7.652,0.918-12.244,0.918v14.691
					C45.306,77.651,51.121,77.04,56.631,76.427z"/>
				<g>
					<path fill="#FFFFFF" d="M70.71,73.366c-1.836-4.896-4.591-9.488-8.264-13.773c-2.449,0.611-5.511,1.531-9.184,2.145
						c2.144,3.672,3.979,8.264,5.511,14.385C63.364,75.202,67.344,74.284,70.71,73.366z"/>
					<path fill="#FFFFFF" d="M59.079,77.958c1.225,6.121,2.143,13.162,2.448,22.039c7.04,0,12.855,0,13.468,0
						c0,0,0.307-12.244-3.979-24.795C67.956,76.122,63.977,77.345,59.079,77.958z"/>
				</g>
				<path fill="#FFFFFF" d="M36.122,79.794c-5.814,0-11.631-0.611-18.06-1.836c-1.224,5.816-2.448,13.162-2.754,22.039
					c2.754,0,5.51,0,8.265,0C24.491,92.649,27.246,81.019,36.122,79.794z"/>
				<path fill="#FFFFFF" d="M51.733,99.997c2.447,0,5.202,0,7.958,0c-0.308-8.57-1.226-15.918-2.449-21.732
					c-5.203,0.918-11.325,1.529-17.753,1.529C48.06,81.325,50.814,92.649,51.733,99.997z"/>
				<path fill="#FFFFFF" d="M22.961,59.593c3.673-5.814,7.652-8.568,10.713-10.1c-8.264,0.916-14.386,3.979-18.977,8.264
					C17.451,58.368,20.206,58.979,22.961,59.593z"/>
				<path fill="#FFFFFF" d="M52.039,59.593c3.367-0.613,6.122-1.225,8.57-1.836c-4.592-4.285-11.02-7.652-19.283-8.264
					C44.387,51.022,48.366,53.776,52.039,59.593z"/>
				<g>
					<path fill="#FFFFFF" d="M16.533,75.509c1.529-5.814,3.367-10.406,5.509-14.08c-3.062-0.305-6.122-1.225-8.876-1.836
						c-3.673,3.674-6.428,8.266-8.264,12.855C8.881,73.673,12.555,74.897,16.533,75.509z"/>
					<path fill="#FFFFFF" d="M4.29,74.591c-4.591,12.551-4.285,25.406-4.285,25.406c0.612,0,6.429,0,13.162,0
						c0.306-8.877,1.226-16.223,2.755-22.346C11.941,76.733,8.27,75.815,4.29,74.591z"/>
				</g>
				<g>
					<path fill="#FFFFFF" d="M38.571,60.817c3.979,0,7.651-0.307,11.02-0.918c-0.307-0.613-0.919-1.225-1.225-1.838
						c-3.673-4.896-7.652-6.732-9.795-7.346V60.817L38.571,60.817z"/>
					<path fill="#FFFFFF" d="M36.429,50.716c-1.836,0.613-5.814,2.449-9.795,7.346c-0.306,0.613-0.918,1.227-1.224,1.838
						c3.979,0.611,7.651,0.92,11.326,0.92V50.716H36.429L36.429,50.716z"/>
				</g>
				<path fill="#FFFFFF" d="M37.653,85.304L37.653,85.304L37.653,85.304L37.653,85.304L37.653,85.304
					c-8.266,0-7.959,14.691-7.959,14.691c0.307,0,7.041,0,7.959,0l0,0c0.918,0,7.651,0,7.958,0
					C45.611,100.302,45.917,85.61,37.653,85.304z"/>
			</g>
		</g>
	</g>
</g>
</svg>
