<?xml version="1.0" encoding="utf-8"?>
<!-- Generator: Adobe Illustrator 16.0.0, SVG Export Plug-In . SVG Version: 6.00 Build 0)  -->
<!DOCTYPE svg PUBLIC "-//W3C//DTD SVG 1.1//EN" "http://www.w3.org/Graphics/SVG/1.1/DTD/svg11.dtd">
<svg version="1.1" id="Layer_1" xmlns="http://www.w3.org/2000/svg" xmlns:xlink="http://www.w3.org/1999/xlink" x="0px" y="0px"
	 width="75px" height="100px" viewBox="0 0 75 100" enable-background="new 0 0 75 100" xml:space="preserve">
<g>
	<g>
		
			<rect x="26.571" y="6.515" transform="matrix(0.7689 0.6393 -0.6393 0.7689 24.4705 -17.9739)" fill="#77AFC2" width="21.057" height="36.701"/>
		<path fill="#77AFC2" d="M42.026,2.237c0,0,6.316-5.415,13.536,0.602c7.219,6.016,2.707,12.936,2.707,12.936L42.026,2.237z"/>
		<path fill="#77AFC2" d="M17.36,32.017v14.438l-0.301,0.301c-0.901,1.203-1.203,2.708-0.603,3.01c0.603,0.602,1.806,0,3.009-1.205
			c0,0,0-0.301,0.301-0.301l14.138-3.008L17.36,32.017z M20.067,35.927l9.325,7.82l-9.325,1.805V35.927z"/>
	</g>
</g>
<g>
	<g>
		
			<rect x="25.763" y="56.513" transform="matrix(0.7689 0.6393 -0.6393 0.7689 56.2506 -5.9035)" fill="#FFFFFF" width="21.059" height="36.701"/>
		<path fill="#FFFFFF" d="M41.219,52.237c0,0,6.315-5.415,13.537,0.602c7.219,6.016,2.707,12.934,2.707,12.934L41.219,52.237z"/>
		<path fill="#FFFFFF" d="M16.554,82.016v14.438l-0.302,0.301c-0.901,1.203-1.202,2.708-0.602,3.009
			c0.602,0.603,1.805,0,3.008-1.204c0,0,0-0.301,0.301-0.301l14.139-3.008L16.554,82.016z M19.261,85.927l9.325,7.82l-9.325,1.805
			V85.927z"/>
	</g>
</g>
</svg>
