<?xml version="1.0" encoding="utf-8"?>
<!-- Generator: Adobe Illustrator 14.0.0, SVG Export Plug-In . SVG Version: 6.00 Build 43363)  -->
<!DOCTYPE svg PUBLIC "-//W3C//DTD SVG 1.1//EN" "http://www.w3.org/Graphics/SVG/1.1/DTD/svg11.dtd">
<svg version="1.1" id="Layer_1" xmlns="http://www.w3.org/2000/svg" xmlns:xlink="http://www.w3.org/1999/xlink" x="0px" y="0px"
	 width="53px" height="70px" viewBox="11 15 53 70" enable-background="new 11 15 53 70" xml:space="preserve">
<g>
	<g>
		<path fill="#77AFC2" d="M60.282,15.854C59.429,15.214,58.361,15,57.294,15H17.813c-1.066,0-2.134,0.426-3.201,0.854l22.835,15.153
			L60.282,15.854z"/>
		<path fill="#77AFC2" d="M63.696,41.25V21.402c0-1.495-0.64-2.988-1.493-4.055L44.916,28.871L63.696,41.25z"/>
		<g>
			<path fill="#77AFC2" d="M30.404,29.085l-17.5-11.738c-0.854,1.067-1.494,2.561-1.494,4.055v20.061L30.404,29.085z"/>
			<path fill="#77AFC2" d="M42.996,30.152l-4.909,3.2c-0.213,0.214-0.426,0.214-0.641,0.214c-0.213,0-0.426,0-0.641-0.214
				l-4.481-2.987L11.409,44.024C11.624,47.226,14.398,50,17.811,50h39.482c3.414,0,6.189-2.774,6.401-6.189L42.996,30.152z"/>
		</g>
	</g>
</g>
<g>
	<g>
		<path fill="#FFFFFF" d="M60.176,50.854c-0.854-0.639-1.921-0.854-2.989-0.854h-39.48c-1.067,0-2.135,0.427-3.202,0.854
			L37.34,66.007L60.176,50.854z"/>
		<path fill="#FFFFFF" d="M63.59,76.25V56.402c0-1.495-0.641-2.988-1.495-4.055L44.809,63.873L63.59,76.25z"/>
		<g>
			<path fill="#FFFFFF" d="M30.297,64.086l-17.5-11.738c-0.854,1.066-1.494,2.56-1.494,4.055v20.06L30.297,64.086z"/>
			<path fill="#FFFFFF" d="M42.889,65.152l-4.909,3.201c-0.215,0.214-0.427,0.214-0.64,0.214c-0.214,0-0.426,0-0.64-0.214
				l-4.482-2.988l-20.915,13.66c0.213,3.2,2.989,5.975,6.403,5.975h39.48c3.415,0,6.189-2.774,6.402-6.189L42.889,65.152z"/>
		</g>
	</g>
</g>
</svg>
