<?xml version="1.0" encoding="utf-8"?>
<!-- Generator: Adobe Illustrator 14.0.0, SVG Export Plug-In . SVG Version: 6.00 Build 43363)  -->
<!DOCTYPE svg PUBLIC "-//W3C//DTD SVG 1.1//EN" "http://www.w3.org/Graphics/SVG/1.1/DTD/svg11.dtd">
<svg version="1.1" id="Layer_1" xmlns="http://www.w3.org/2000/svg" xmlns:xlink="http://www.w3.org/1999/xlink" x="0px" y="0px"
	 width="40px" height="50px" viewBox="6.5 10 40 50" enable-background="new 6.5 10 40 50" xml:space="preserve">
<g>
	<g>
		<path fill="#77AFC2" d="M43.11,10.598C42.514,10.15,41.766,10,41.019,10H13.382c-0.746,0-1.494,0.298-2.241,0.598l15.985,10.607
			L43.11,10.598z"/>
		<path fill="#77AFC2" d="M45.499,28.375V14.481c0-1.046-0.446-2.091-1.044-2.838L32.354,19.71L45.499,28.375z"/>
		<g>
			<path fill="#77AFC2" d="M22.195,19.859l-12.25-8.216C9.348,12.39,8.9,13.436,8.9,14.481v14.043L22.195,19.859z"/>
			<path fill="#77AFC2" d="M31.01,20.606l-3.437,2.24c-0.148,0.149-0.298,0.149-0.449,0.149c-0.148,0-0.298,0-0.448-0.149
				l-3.136-2.091L8.899,30.316c0.15,2.242,2.092,4.184,4.481,4.184h27.637c2.39,0,4.333-1.941,4.48-4.333L31.01,20.606z"/>
		</g>
	</g>
</g>
<g>
	<g>
		<path fill="#FFFFFF" d="M43.11,35.098c-0.598-0.447-1.345-0.598-2.092-0.598H13.382c-0.747,0-1.494,0.299-2.241,0.598
			l15.984,10.607L43.11,35.098z"/>
		<path fill="#FFFFFF" d="M45.5,52.875V38.981c0-1.046-0.448-2.092-1.047-2.838l-12.101,8.067L45.5,52.875z"/>
		<g>
			<path fill="#FFFFFF" d="M22.194,44.36l-12.25-8.217c-0.598,0.746-1.046,1.792-1.046,2.838v14.043L22.194,44.36z"/>
			<path fill="#FFFFFF" d="M31.009,45.106l-3.436,2.241c-0.15,0.148-0.3,0.148-0.448,0.148c-0.149,0-0.298,0-0.448-0.148
				l-3.138-2.092L8.898,54.817C9.048,57.058,10.991,59,13.381,59h27.636c2.392,0,4.333-1.941,4.481-4.333L31.009,45.106z"/>
		</g>
	</g>
</g>
</svg>
