<?xml version="1.0" encoding="utf-8"?>
<!-- Generator: Adobe Illustrator 16.0.0, SVG Export Plug-In . SVG Version: 6.00 Build 0)  -->
<!DOCTYPE svg PUBLIC "-//W3C//DTD SVG 1.1//EN" "http://www.w3.org/Graphics/SVG/1.1/DTD/svg11.dtd">
<svg version="1.1" id="Layer_1" xmlns="http://www.w3.org/2000/svg" xmlns:xlink="http://www.w3.org/1999/xlink" x="0px" y="0px"
	 width="75px" height="100px" viewBox="0 0 75 100" enable-background="new 0 0 75 100" xml:space="preserve">
<g>
	<g>
		<path fill="#77AFC2" d="M70.046,1.221C68.826,0.305,67.302,0,65.777,0H9.375C7.852,0,6.326,0.609,4.803,1.221l32.621,21.646
			L70.046,1.221z"/>
		<path fill="#77AFC2" d="M74.924,37.5V9.146c0-2.135-0.915-4.269-2.134-5.793L48.095,19.816L74.924,37.5z"/>
		<g>
			<path fill="#77AFC2" d="M27.363,20.122l-25-16.769C1.143,4.878,0.229,7.012,0.229,9.146v28.658L27.363,20.122z"/>
			<path fill="#77AFC2" d="M45.351,21.646l-7.013,4.572c-0.305,0.305-0.609,0.305-0.915,0.305c-0.305,0-0.609,0-0.915-0.305
				l-6.402-4.268L0.227,41.463c0.306,4.573,4.27,8.536,9.146,8.536h56.402c4.878,0,8.842-3.963,9.146-8.842L45.351,21.646z"/>
		</g>
	</g>
</g>
<g>
	<g>
		<path fill="#FFFFFF" d="M69.894,51.221c-1.221-0.914-2.744-1.22-4.27-1.22H9.223c-1.524,0-3.049,0.61-4.574,1.22l32.623,21.646
			L69.894,51.221z"/>
		<path fill="#FFFFFF" d="M74.771,87.5V59.146c0-2.135-0.915-4.269-2.135-5.793L47.942,69.818L74.771,87.5z"/>
		<g>
			<path fill="#FFFFFF" d="M27.21,70.123l-25-16.77c-1.22,1.524-2.134,3.658-2.134,5.793v28.657L27.21,70.123z"/>
			<path fill="#FFFFFF" d="M45.198,71.646l-7.012,4.573c-0.307,0.306-0.61,0.306-0.915,0.306c-0.306,0-0.609,0-0.914-0.306
				l-6.403-4.269L0.076,91.465C0.381,96.037,4.346,100,9.223,100h56.401c4.878,0,8.842-3.963,9.146-8.842L45.198,71.646z"/>
		</g>
	</g>
</g>
</svg>
