<?xml version="1.0" encoding="utf-8"?>
<!-- Generator: Adobe Illustrator 16.0.0, SVG Export Plug-In . SVG Version: 6.00 Build 0)  -->
<!DOCTYPE svg PUBLIC "-//W3C//DTD SVG 1.1//EN" "http://www.w3.org/Graphics/SVG/1.1/DTD/svg11.dtd">
<svg version="1.1" id="Layer_1" xmlns="http://www.w3.org/2000/svg" xmlns:xlink="http://www.w3.org/1999/xlink" x="0px" y="0px"
	 width="75px" height="100px" viewBox="237.5 392 75 100" enable-background="new 237.5 392 75 100" xml:space="preserve">
<g>
	<g>
		<g>
			<path fill="#77AFC2" d="M286.918,400.721c-2.326-5.232-5.814-7.559-11.628-8.721l0,0l0,0c-5.814,1.162-9.302,3.488-11.628,8.721
				c3.489,1.453,7.558,2.325,11.628,2.325S283.139,402.174,286.918,400.721z"/>
			<path fill="#77AFC2" d="M265.698,437.64c0,0,7.267,3.197,19.186,0l-3.197,4.069h-12.5L265.698,437.64z"/>
		</g>
		<path fill="#77AFC2" d="M287.5,403.337c-3.779,1.744-8.14,2.616-12.5,2.616s-8.721-0.872-12.5-2.325
			c-4.651,11.628-2.617,27.906-2.617,27.906c1.163,0.582,2.326,0.872,3.489,1.163c0,2.035,0.291,2.325,0.291,2.325
			c4.36,1.745,8.14,2.036,11.337,1.745c3.197,0.291,6.977-0.291,11.337-1.745c0,0,0.291-0.29,0.291-2.325
			c1.163-0.291,2.325-0.581,3.488-1.163C290.117,431.534,292.442,415.256,287.5,403.337z M275,424.558
			c-3.779,0-6.686-2.616-6.686-6.104c0-3.197,2.907-6.105,6.686-6.105s6.687,2.617,6.687,6.105
			C281.977,421.65,278.779,424.558,275,424.558z"/>
		<path fill="#77AFC2" d="M259.883,421.069c0,0-9.593,2.035-9.593,20.64l1.163,0.291c0,0,3.779-10.466,9.303-10.466l-0.873-10.755"
			/>
		<path fill="#77AFC2" d="M290.117,421.069c0,0,9.593,2.035,9.593,20.64L298.547,442c0,0-3.779-10.466-9.302-10.466l0.872-11.046"/>
	</g>
</g>
<g>
	<g>
		<g>
			<path fill="#FFFFFF" d="M287.209,450.721c-2.326-5.232-5.814-7.559-11.628-8.721l0,0l0,0c-5.814,1.162-9.302,3.488-11.628,8.721
				c3.489,1.453,7.558,2.325,11.628,2.325S283.43,452.174,287.209,450.721z"/>
			<path fill="#FFFFFF" d="M265.988,487.64c0,0,7.267,3.197,19.186,0l-3.197,4.069h-12.5L265.988,487.64z"/>
		</g>
		<path fill="#FFFFFF" d="M287.791,453.337c-3.779,1.744-8.14,2.616-12.5,2.616s-8.721-0.872-12.5-2.325
			c-4.651,11.628-2.617,27.906-2.617,27.906c1.163,0.582,2.326,0.872,3.489,1.163c0,2.035,0.291,2.325,0.291,2.325
			c4.36,1.745,8.14,2.036,11.337,1.745c3.197,0.291,6.977-0.291,11.337-1.745c0,0,0.291-0.29,0.291-2.325
			c1.163-0.291,2.325-0.581,3.488-1.163C290.407,481.534,292.732,465.256,287.791,453.337z M275.291,474.558
			c-3.779,0-6.686-2.616-6.686-6.104c0-3.197,2.907-6.105,6.686-6.105s6.687,2.617,6.687,6.105
			C282.267,471.65,279.07,474.558,275.291,474.558z"/>
		<path fill="#FFFFFF" d="M260.174,471.069c0,0-9.593,2.035-9.593,20.64l1.163,0.291c0,0,3.779-10.466,9.303-10.466l-0.873-10.755"
			/>
		<path fill="#FFFFFF" d="M290.407,471.069c0,0,9.593,2.035,9.593,20.64L298.837,492c0,0-3.779-10.466-9.302-10.466l0.872-11.046"/>
	</g>
</g>
</svg>
