<?xml version="1.0" encoding="utf-8"?>
<!-- Generator: Adobe Illustrator 16.0.0, SVG Export Plug-In . SVG Version: 6.00 Build 0)  -->
<!DOCTYPE svg PUBLIC "-//W3C//DTD SVG 1.1//EN" "http://www.w3.org/Graphics/SVG/1.1/DTD/svg11.dtd">
<svg version="1.1" id="Layer_1" xmlns="http://www.w3.org/2000/svg" xmlns:xlink="http://www.w3.org/1999/xlink" x="0px" y="0px"
	 width="612px" height="119px" viewBox="0 336.5 612 119" enable-background="new 0 336.5 612 119" xml:space="preserve">
<g>
	<g>
		<g>
			<path fill="#133B62" d="M173.182,446.442c-0.23,0-0.46,0-0.69,0l-21.159-1.38c-6.209-0.46-11.04-5.75-10.81-11.959
				c0.69-27.369,0.69-49.218-0.46-77.966c-0.23-3.22,1.15-6.21,3.22-8.51c2.07-2.3,5.29-3.45,8.279-3.45l47.148-0.23l0,0
				c3.22,0,6.209,1.38,8.279,3.68c2.3,2.3,3.45,5.52,3.22,8.51l-1.15,21.849c-0.23,2.99-1.61,5.75-3.68,7.82
				c0.69,1.38,0.92,2.99,0.92,4.6v19.779c0,6.439-5.29,11.499-11.5,11.499c-3.45,0-6.669,0-9.659,0c0,1.61,0,3.45-0.23,5.29
				c0,2.529-0.23,5.29-0.23,9.199c0,3.22-1.38,6.21-3.68,8.28C178.931,445.522,176.171,446.442,173.182,446.442z M163.982,396.305
				c0,2.07,0,4.141,0,6.439c0.92-1.379,2.07-2.299,3.45-3.219c-0.69-0.461-1.38-0.92-2.07-1.61
				C164.902,397.455,164.442,396.995,163.982,396.305z M163.522,366.406c0,1.15,0,2.53,0,3.68c0.92-1.38,2.07-2.76,3.45-3.68
				H163.522z"/>
			<path fill="#133B62" d="M229.759,446.213c-39.558,0-39.558-31.738-39.558-43.698c0-5.749,0.46-13.569,0.69-20.009
				c0.23-3.22,0.23-5.98,0.46-7.82c0.23-5.979,4.83-10.81,11.04-11.27l18.399-0.92c3.45-0.23,6.44,1.15,8.74,3.45
				c0.46,0.46,0.92,0.92,1.38,1.61c0.23-0.23,0.23-0.46,0.46-0.46c2.07-2.3,5.06-3.45,8.05-3.68l17.019-0.46
				c6.209-0.23,11.5,4.83,11.729,11.04l0.23,5.06c0.46,7.59,0.92,18.169,0.92,25.069
				C269.087,414.475,269.087,446.213,229.759,446.213z"/>
			<path fill="#133B62" d="M301.976,448.513c-3.91,0-7.36-1.84-9.66-5.29l-1.38-2.07c-2.07,2.99-5.52,4.83-9.199,5.061l-16.789,0.46
				c-3.22,0-6.21-1.15-8.28-3.22c-2.3-2.07-3.45-5.061-3.45-8.28l-0.23-60.717c0-5.75,4.37-10.81,10.119-11.5l16.56-2.3
				c4.37-0.69,8.739,1.38,11.269,5.06l2.53,3.91c1.61-5.29,6.67-8.74,12.189-8.28l15.869,1.38c2.989,0.23,5.979,1.84,7.819,4.14
				c2.07,2.3,2.99,5.52,2.53,8.74c-2.07,17.939-1.84,33.808-1.38,51.977v4.37c0.229,5.29-3.45,10.119-8.51,11.5l-16.789,4.6
				C304.045,448.513,303.125,448.513,301.976,448.513z M301.976,415.854l5.06,7.82l0,0c0-2.99-0.23-5.75-0.23-8.74
				c-0.46,0.23-1.149,0.461-1.609,0.69C304.275,415.854,303.125,415.854,301.976,415.854z M275.986,385.496v9.199
				c0.46-0.23,1.15-0.46,1.84-0.69c1.15-0.46,2.3-0.46,3.45-0.46L275.986,385.496z"/>
			<path fill="#133B62" d="M348.203,447.822c-6.899,0-14.72-1.149-23.459-3.22c-5.06-1.149-8.739-5.75-8.739-11.039l-1.15-58.647
				c0-5.75,4.14-10.81,9.89-11.729c5.52-0.92,11.27-1.15,17.249-1.15c34.269,0,39.558,18.399,39.558,29.438
				c0,3.45-0.689,6.44-1.84,9.429c3.45,4.6,5.98,10.58,5.98,17.939C385.461,432.644,375.571,447.822,348.203,447.822z"/>
			<path fill="#133B62" d="M417.199,453.342c-1.609,0-3.22-0.46-4.829-1.149c-3.45-1.61-6.67-4.14-9.43-6.899
				c-0.92,0.229-1.84,0.46-2.99,0.46l-19.319,1.149c-2.989,0.23-6.209-0.92-8.509-2.989c-2.3-2.07-3.681-5.061-3.681-8.28
				l-1.38-58.647c-0.229-5.52,3.45-10.12,8.74-11.5c8.05-2.07,16.099-2.99,24.379-2.99c27.828,0,40.248,16.099,40.248,31.968
				c0,8.74-2.99,17.02-8.28,22.999c1.15,1.38,2.3,2.53,3.91,3.22c3.22,1.84,5.52,5.29,5.75,8.97c0.46,3.68-1.15,7.59-4.141,9.89
				l-12.879,10.81C422.489,452.422,419.729,453.342,417.199,453.342z"/>
			<path fill="#133B62" d="M534.264,453.342c-1.609,0-3.22-0.46-4.83-1.149c-3.449-1.61-6.669-4.14-9.429-6.899
				c-0.92,0.229-2.07,0.46-2.99,0.46l-19.319,1.149c-3.22,0.23-6.209-0.92-8.51-2.989c-2.3-2.07-3.68-5.061-3.68-8.28l-1.38-58.647
				c-0.229-5.52,3.45-10.12,8.74-11.5c8.279-2.07,16.099-2.99,24.378-2.99c27.829,0,40.019,16.099,40.019,31.968
				c0,8.74-2.99,17.02-8.279,22.999c0.92,1.38,2.3,2.53,3.909,3.22c3.22,1.84,5.52,5.29,5.75,8.97s-1.15,7.59-4.14,9.89
				l-12.88,10.81C539.554,452.422,536.794,453.342,534.264,453.342z"/>
			<path fill="#133B62" d="M574.742,452.652c-13.8,0-25.759-6.439-33.579-17.939c-1.84-2.529-2.3-5.75-1.84-8.739
				c0.69-2.99,2.53-5.75,5.06-7.36l2.761-1.84c-4.601-7.359-7.13-16.099-7.13-24.838c0-5.06,0.229-11.959,1.149-19.089
				c0.92-5.98,6.44-10.35,12.189-9.89l18.169,1.15c2.301,0.23,4.141,0.92,5.98,2.07c1.84-1.15,3.909-1.61,5.979-1.61h15.869
				c6.21,0,11.27,5.06,11.499,11.27l0.23,10.35c0.229,10.119,0.689,17.939,0.689,28.059
				C612,437.013,597.051,452.652,574.742,452.652z"/>
			<path fill="#133B62" d="M472.856,449.433c-5.289,0-9.89-3.45-11.27-8.74l0,0c-1.84,5.061-7.129,8.51-12.648,7.59l-19.09-2.76
				c-3.449-0.46-6.439-2.53-8.279-5.29c-1.84-2.989-2.3-6.439-1.15-9.659l20.01-60.027c1.609-4.6,5.979-7.82,10.81-7.82l20.469-0.23
				c5.289,0,9.659,3.22,11.27,8.28l18.629,60.717c0.92,3.22,0.46,6.67-1.15,9.43c-1.84,2.76-4.6,4.83-8.049,5.29l-17.939,2.989
				C474.007,449.433,473.547,449.433,472.856,449.433z"/>
		</g>
		<g>
			<path fill="#FDED1E" d="M197.33,376.526c-11.499-0.46-15.869-0.69-23.918-0.46l-0.23,13.569c5.52-0.23,14.949-0.23,21.389-0.23
				v19.779c-8.279,0-16.099,0.229-21.389,0.229c0.23,10.81-0.23,13.569-0.23,25.529l-21.159-1.38
				c0.69-26.909,0.69-49.218-0.46-78.887l47.148-0.229L197.33,376.526z"/>
			<path fill="#FDED1E" d="M229.759,434.713c-23.919,0-28.059-12.649-28.059-31.969c0-8.279,0.69-21.389,0.92-27.368l18.399-0.92
				c-0.69,10.58-1.38,19.549-1.38,31.968c0,11.27,5.52,15.41,10.12,15.41c5.52,0,9.43-4.37,9.66-17.25
				c0.23-10.349,0-22.769-0.23-29.438l17.019-0.46c0.23,6.44,1.15,20.929,1.15,29.439
				C257.587,422.523,252.528,434.713,229.759,434.713z"/>
			<path fill="#FDED1E" d="M318.994,432.413l-16.789,4.6l-20.929-31.738l0.46,29.438l-16.79,0.46l-0.23-60.717l16.56-2.3
				l21.159,32.198c0.229-9.659,0.689-19.549,2.069-31.508l15.869,1.38C317.845,394.695,318.534,412.174,318.994,432.413z"/>
			<path fill="#F2623A" d="M348.203,436.323c-5.06,0-11.729-0.69-20.699-2.99l-1.15-58.647c5.521-0.92,10.81-1.15,15.41-1.15
				c18.629,0,27.828,5.29,27.828,17.939c0,6.44-4.14,10.58-6.899,11.5c4.6,0.92,11.039,6.21,11.039,15.869
				C373.731,431.953,361.312,436.323,348.203,436.323z M345.213,387.565v10.579c4.83,0.69,8.74-0.92,8.74-4.83
				C353.953,389.635,351.192,386.875,345.213,387.565z M345.213,409.875v11.729c1.84,0.69,3.68,1.15,5.06,1.15
				c4.601,0,6.21-3.221,6.21-5.75C356.253,413.094,354.183,408.954,345.213,409.875z"/>
			<path fill="#F2623A" d="M417.199,441.843c-7.359-3.45-13.569-14.26-14.949-23.229c-1.38,0-2.3,0.23-3.68,0.23l0.69,15.64
				l-19.319,1.149l-1.38-58.647c7.359-1.84,14.489-2.76,21.619-2.76c18.858,0,28.519,8.97,28.519,20.469
				c0,7.82-3.45,15.41-10.58,19.78c1.84,8.279,6.44,13.568,11.96,16.789L417.199,441.843z M401.79,388.715
				c-1.38,0-2.76,0.23-4.369,0.46c0,4.83,0.229,11.5,0.46,16.329c0.92,0,1.84,0,2.529,0c8.51,0,10.12-5.059,10.12-8.738
				C410.53,393.085,409.15,388.715,401.79,388.715z"/>
			<path fill="#F2623A" d="M534.264,441.843c-7.359-3.45-13.569-14.26-14.949-23.229c-1.38,0-2.3,0.23-3.45,0.23l0.69,15.64
				l-19.319,1.149l-1.38-58.647c7.359-1.84,14.489-2.76,21.619-2.76c18.859,0,28.519,8.97,28.519,20.469
				c0,7.82-3.45,15.41-10.579,19.78c1.84,8.279,6.439,13.568,11.959,16.789L534.264,441.843z M519.085,388.715
				c-1.38,0-2.761,0.23-4.37,0.46c0,4.83,0.229,11.5,0.46,16.329c0.92,0,1.84,0,2.53,0c8.509,0,10.119-5.059,10.119-8.738
				C527.594,393.085,526.214,388.715,519.085,388.715z"/>
			<path fill="#F2623A" d="M599.581,376.066c0.46,15.179,0.92,24.838,0.92,37.948c0,15.41-8.74,27.139-25.759,27.139
				c-11.04,0-18.859-5.289-24.149-12.879l9.2-5.75c2.76,3.45,8.049,6.21,12.649,6.439c7.819,0,13.569-5.979,12.649-10.119
				c0,0-4.37,2.3-8.74,2.3c-16.559,0-24.608-15.64-24.608-29.208c0-5.75,0.229-11.5,0.92-17.249l18.169,1.15
				c-0.69,5.75-1.15,8.74-1.15,14.489c0,7.59,2.07,13.109,7.36,13.109c5.289,0,6.899-7.13,6.899-11.04
				c0-7.589-0.23-8.739-0.23-16.329H599.581L599.581,376.066z"/>
			<path fill="#F2623A" d="M472.856,437.933l-3.22-12.419l-15.639-0.23l-3.22,11.729l-19.09-2.76l20.01-60.027l20.469-0.23
				l18.629,60.717L472.856,437.933z M461.817,393.315l-4.83,20.929l10.35,0.46L461.817,393.315z"/>
		</g>
	</g>
	<g>
		<path fill="#133B62" d="M122.124,401.824c-0.69-5.289-1.61-11.039-2.53-15.869c4.83-4.6,7.819-10.81,7.819-17.939
			c0-13.109-10.809-24.149-23.918-24.149c-5.52,0-10.81,1.84-14.949,5.29c-3.68-1.38-7.36-2.3-10.35-2.99
			c-2.53-3.91-6.44-7.82-10.58-9.2c-4.14-1.15-7.82-0.46-10.58,1.61c-2.76,0.23-5.29,1.38-7.359,3.22
			c-0.46,0.46-0.92,0.92-1.15,1.38c-2.53,0.92-4.14,2.53-4.83,3.68c-0.23,0.23-0.46,0.46-0.46,0.69c-1.38,0.46-2.99,0.92-4.6,1.61
			c-4.14-3.22-9.2-5.06-14.719-5.06C10.81,343.868,0,354.907,0,368.246c0,6.44,2.53,12.189,6.669,16.79
			c-1.15,4.6-2.3,10.349-2.99,15.869v0.23c-1.15,1.609-3.45,5.289-2.76,9.66c0,0.229,0,0.689-0.23,0.92
			c-0.23,1.84,0.23,3.68,1.15,5.289c0.23,0.92,0.46,1.84,0.92,2.529c1.15,2.07,2.53,3.681,4.14,5.061
			c8.049,14.719,30.128,24.608,56.117,24.608c26.679,0,49.217-10.579,56.577-25.988c1.61-1.61,2.99-3.681,3.68-5.979c0,0,0,0,0-0.23
			c0.92-1.38,1.38-3.22,1.38-4.83c0-0.689,0-1.379-0.23-2.069C124.884,406.885,123.274,403.664,122.124,401.824z M99.585,367.096
			l4.37,0.46l0.69,4.14c-2.53,0.46-5.06-1.61-5.06-4.14C99.585,367.557,99.585,367.326,99.585,367.096z M103.495,407.574
			c0,0.23,0,0.689,0.23,0.92c0,0.46,0,1.15,0,1.61c0,0.229,0,0.46,0,0.69C103.495,409.875,103.265,408.725,103.495,407.574z
			 M81.876,366.176c-0.46-0.46-0.69-1.15-0.92-2.07C81.186,365.026,81.646,365.716,81.876,366.176z M45.768,364.566
			c-0.23,0.92-0.69,1.61-1.15,2.07C45.078,366.176,45.538,365.256,45.768,364.566z M43.238,368.246c0.92-0.46,4.14-2.07,9.89-3.22
			c2.07-0.46,3.91-1.38,5.52-2.99c0.92,0,2.07-0.23,2.99-0.69c1.38,0.69,2.76,1.15,4.37,1.15c1.38,1.15,2.99,1.84,5.06,2.07
			c7.59,0.92,11.959,2.99,13.109,3.68l0.46,0.46c1.61,1.38,3.68,2.3,5.75,2.53c0.92,2.07,2.76,3.91,5.06,4.83
			c0.23,0,0.46,0.23,0.69,0.46s0.23,0.23,0.46,0.46c0.69,1.38,1.61,2.53,2.76,3.45c-0.23,0.92,0,1.84,0,2.99
			c-3.91-6.44-10.809-10.81-18.859-10.81c-7.36,0-14.029,3.68-17.939,9.199c-4.14-5.75-10.58-9.199-18.169-9.199
			c-2.76,0-5.29,0.46-7.819,1.61c0.92-0.92,1.84-2.07,2.3-3.45c1.61-0.23,2.99-0.92,4.14-2.07L43.238,368.246z M21.619,410.564
			L21.619,410.564c0-0.46,0-0.92,0-1.38c0-0.23,0.23-0.46,0.23-0.69C21.849,409.414,21.849,410.104,21.619,410.564z M46.688,397.225
			c-0.46,0-1.15,0.23-1.61,0.461c-0.46,0.229-0.69,0.229-0.92,0.229c-1.61,0-2.76-1.38-2.76-2.76c0-1.61,1.38-2.76,2.76-2.76
			s2.53,1.15,2.76,2.53c0,0.69,0.23,1.15,0.46,1.841C47.147,396.535,46.917,396.995,46.688,397.225z M77.046,395.846
			c0.23-0.461,0.23-0.921,0.46-1.381c0.23-1.38,1.38-2.53,2.76-2.53c1.61,0,2.76,1.38,2.76,2.76c0,1.61-1.38,2.76-2.76,2.76
			c0,0-0.23,0-0.92-0.23c-0.46-0.229-0.69-0.229-1.15-0.229C77.736,396.766,77.276,396.305,77.046,395.846z M28.749,367.096
			L28.749,367.096c0,0.23,0,0.23,0,0.46c0,2.53-2.53,4.6-5.06,4.14l0.69-4.14L28.749,367.096z M23.689,414.244
			c-0.23-0.92-0.92-1.84-1.38-2.76c0-0.23,0.23-0.689,0.23-0.92c0.92-2.07,0.92-4.141,0.23-6.21c0-0.69,0.23-1.38,0.23-2.069
			c2.53,6.899,8.279,12.419,15.409,14.259c0.69,2.53,2.07,4.83,3.91,6.67c2.07,2.3,4.37,4.14,6.44,5.52
			C35.188,425.974,25.529,419.994,23.689,414.244z M75.896,428.733c4.37-2.76,7.129-6.21,7.819-7.13
			c1.15-1.609,2.07-3.449,2.76-5.289c8.05-2.53,14.259-9.43,15.64-17.939c0.23,1.609,0.46,3.22,0.69,4.6c-0.92,2.3-1.15,5.06,0,7.59
			c0,0.689,0.23,1.38,0.46,1.84c-0.46,0.689-0.69,1.15-0.92,1.84C100.275,419.994,90.386,426.203,75.896,428.733z"/>
		<g>
			<g>
				<path fill="#133B62" d="M76.126,415.854c1.61-2.299,2.07-5.52,0.69-8.049c-0.23-0.23-0.46-0.461-0.69-0.92c0,0,0-0.23,0.23-0.23
					c1.15,0.46,2.53,0.689,3.91,0.689c6.899,0,12.649-5.52,12.649-12.649c0-6.899-5.52-12.649-12.649-12.649
					c-6.44,0-11.5,4.83-12.419,10.809c-1.61-0.46-3.22-0.69-4.83-0.69c-2.53,0-4.6,0.46-6.44,0.92
					c-0.69-6.209-5.979-11.27-12.419-11.27c-6.899,0-12.649,5.52-12.649,12.649c0,6.9,5.52,12.649,12.649,12.649
					c1.61,0,2.99-0.229,4.37-0.69c0.23,0.23,0.23,0.461,0.46,0.69c-0.23,0.229-0.46,0.69-0.69,0.92c-1.15,2.761-0.69,6.21,1.38,8.28
					c4.83,5.289,9.889,6.439,13.109,6.439C70.606,422.983,75.437,416.773,76.126,415.854z M80.036,391.935
					c1.61,0,2.99,1.38,2.99,2.99c0,1.61-1.38,2.99-2.99,2.99s-2.99-1.38-2.99-2.99C77.046,393.315,78.426,391.935,80.036,391.935z
					 M44.158,397.915c-1.61,0-2.99-1.38-2.99-2.99c0-1.61,1.38-2.99,2.99-2.99s2.99,1.38,2.99,2.99
					C46.917,396.535,45.768,397.915,44.158,397.915z"/>
			</g>
			<g>
				<g>
					<path fill="#FFFFFF" d="M112.694,405.274c-0.69-8.509-2.99-19.089-4.14-23.459c5.29-2.07,8.97-7.359,8.97-13.569
						c0-8.049-6.44-14.489-14.259-14.489c-5.52,0-10.35,3.22-12.649,8.05c-0.46-0.46-0.92-0.69-0.92-0.69
						c0.23-0.23-5.98-4.37-18.169-5.75c-0.92-3.22-4.83-8.05-7.129-8.74c-5.52-1.61,0.23,5.29,1.38,6.439
						c-2.07-1.15-7.13-6.669-9.89-3.91c-1.61,1.61-0.23,2.76,1.61,3.45c-3.45-0.69-7.819-1.38-6.669,2.53
						c0,0.23,0.23,0.46,0.23,0.69c-9.66,1.38-14.259,5.06-14.259,5.06s-0.23,0.23-0.46,0.46c-2.3-4.6-7.13-7.82-12.419-7.82
						c-7.82,0-14.259,6.44-14.259,14.49c0,5.75,3.22,10.579,7.819,13.109c-1.15,4.14-3.91,14.72-4.6,23.458l-0.23-0.689
						c0,1.609-4.83,5.75-0.92,5.06c-0.46,1.15-1.15,2.3-1.38,3.45c0.46-0.23,0.92-0.23,1.38-0.46c-1.84,2.3,0.46,5.29,2.53,5.29
						c4.14,12.649,24.379,22.309,48.528,22.309c24.148,0,44.388-9.659,48.527-22.309c0,0,0-0.23,0.23-0.23
						c1.61-0.689,3.22-2.99,1.61-5.06c0.46,0.229,0.92,0.229,1.38,0.46c0-1.15-0.69-2.3-1.38-3.45
						C116.145,409.645,113.844,407.114,112.694,405.274z"/>
					<path opacity="0.38" fill="#133B62" enable-background="new    " d="M25.759,369.626c1.15-1.15,2.53-2.07,3.91-2.53
						c-0.23-2.76-2.53-4.83-5.29-4.83c-2.99,0-5.29,2.53-5.29,5.52c0,2.76,1.84,4.83,4.37,5.29
						C23.919,371.696,24.839,370.546,25.759,369.626z"/>
					<path opacity="0.38" fill="#133B62" enable-background="new    " d="M102.575,369.626c-1.15-1.15-2.53-2.07-3.91-2.53
						c0.23-2.76,2.53-4.83,5.29-4.83c2.99,0,5.29,2.53,5.29,5.52c0,2.76-1.84,4.83-4.37,5.29
						C104.415,371.696,103.495,370.546,102.575,369.626z"/>
				</g>
				<g>
					<path fill="#E5F4F5" d="M12.879,408.954c0-0.689,0-1.38,0.69-2.3c-0.23,0.23-0.46,0.23-0.69,0.23
						C12.189,408.034,11.729,408.954,12.879,408.954z"/>
					<path fill="#E5F4F5" d="M111.544,406.654c0.46,0.689,0.69,1.38,0.69,2.3c1.15,0,0.69-0.92,0-1.84
						C112.234,406.885,112.004,406.885,111.544,406.654z"/>
				</g>
				<path fill="#133B62" d="M54.737,402.515c0,0,8.28-4.37,14.949,0c0,0-3.22,4.14-7.819,4.14
					C57.267,406.654,54.737,402.515,54.737,402.515z"/>
				<path fill="#133B62" d="M48.758,394.925c0,2.53-2.07,4.83-4.83,4.83c-2.53,0-4.83-2.069-4.83-4.83c0-2.53,2.07-4.83,4.83-4.83
					S48.758,392.395,48.758,394.925z"/>
				<path fill="#133B62" d="M84.866,394.925c0,2.53-2.07,4.83-4.83,4.83c-2.53,0-4.83-2.069-4.83-4.83c0-2.53,2.07-4.83,4.83-4.83
					S84.866,392.395,84.866,394.925z"/>
				<polygon fill="#133B62" points="62.557,413.324 62.327,413.094 61.637,405.734 63.017,405.734 				"/>
				<path fill="#133B62" d="M55.197,411.254h14.489C69.687,411.254,63.247,420.224,55.197,411.254z"/>
			</g>
		</g>
		<g>
			<path fill="#133B62" d="M47.147,454.492L47.147,454.492c-1.38,0-2.76-0.46-3.91-1.38c-3.91-3.45-4.14-11.96-3.68-16.56
				c0.69-4.369,2.3-7.129,4.83-8.51c0.92-0.46,2.3-0.689,3.68-0.689c4.6,0,11.959,2.99,14.259,6.899c0.46,0.69,1.38,2.53,0.92,8.51
				v1.84l-1.15,1.15C58.417,448.973,51.748,454.492,47.147,454.492z M48.528,436.093c-0.69,2.07-0.69,6.67,0,9.2
				c1.61-0.92,4.14-2.76,6.209-4.601c0-0.689,0-1.609,0-2.069C53.817,437.703,50.598,436.323,48.528,436.093z"/>
			<path fill="#133B62" d="M80.036,454.492c-4.6,0-11.27-5.52-14.719-8.739l-1.15-1.15l-0.23-1.61
				c-0.46-6.209,0.46-8.049,0.92-8.509c2.3-3.91,9.429-6.9,14.259-6.9c1.38,0,2.53,0.23,3.68,0.69c2.53,1.15,4.14,4.14,4.83,8.51
				c0.69,4.6,0.23,13.109-3.68,16.559C83.026,454.032,81.646,454.492,80.036,454.492z M72.446,440.692
				c2.3,2.07,4.83,3.681,6.44,4.601c0.69-2.53,0.69-7.13,0-9.2c-2.07,0.23-5.06,1.61-6.21,2.53
				C72.446,439.083,72.446,439.772,72.446,440.692z"/>
			<path fill="#F47521" d="M58.647,436.553c-1.61-2.76-9.429-5.979-12.189-4.6c-3.68,1.84-3.22,15.18-0.23,17.939
				c2.53,2.3,12.879-7.359,12.879-7.359S59.567,437.933,58.647,436.553z"/>
			<path fill="#F47521" d="M68.767,436.553c1.61-2.76,9.43-5.979,12.189-4.6c3.68,1.84,3.22,15.18,0.23,17.939
				c-2.53,2.3-12.879-7.359-12.879-7.359S67.847,437.933,68.767,436.553z"/>
			<path fill="#133B62" d="M63.477,449.893c-5.98,0-10.81-4.37-10.81-9.89s4.83-9.89,10.81-9.89c5.979,0,10.809,4.37,10.809,9.89
				S69.457,449.893,63.477,449.893z M63.477,438.623c-1.15,0-2.3,0.689-2.3,1.38c0,0.689,0.92,1.38,2.3,1.38
				c1.15,0,2.3-0.69,2.3-1.38C65.777,439.312,64.857,438.623,63.477,438.623z"/>
			<ellipse fill="#F47521" cx="63.477" cy="440.003" rx="6.439" ry="5.75"/>
			<path fill="#133B62" d="M55.427,437.933c0,0-2.53-3.68-7.82-2.529L55.427,437.933z"/>
			<path fill="#133B62" d="M71.986,437.933c0,0,2.53-3.68,7.59-2.529L71.986,437.933z"/>
			<path fill="#133B62" d="M55.427,442.533c0,0-2.53,3.68-7.82,2.529L55.427,442.533z"/>
			<path fill="#133B62" d="M71.986,442.533c0,0,2.53,3.68,7.59,2.529L71.986,442.533z"/>
		</g>
	</g>
</g>
</svg>
