<?xml version="1.0" encoding="utf-8"?>
<!-- Generator: Adobe Illustrator 16.0.0, SVG Export Plug-In . SVG Version: 6.00 Build 0)  -->
<!DOCTYPE svg PUBLIC "-//W3C//DTD SVG 1.1//EN" "http://www.w3.org/Graphics/SVG/1.1/DTD/svg11.dtd">
<svg version="1.1" id="Layer_1" xmlns="http://www.w3.org/2000/svg" xmlns:xlink="http://www.w3.org/1999/xlink" x="0px" y="0px"
	 width="612px" height="119px" viewBox="0 0 612 119" enable-background="new 0 0 612 119" xml:space="preserve">
<g>
	<g>
		<g>
			<path fill="#133B62" d="M173.297,110.49c-0.23,0-0.46,0-0.69,0l-21.159-1.381c-6.209-0.46-11.04-5.75-10.81-11.959
				c0.69-27.368,0.69-49.218-0.46-77.966c-0.23-3.22,1.15-6.21,3.22-8.51c2.07-2.3,5.29-3.45,8.279-3.45l47.148-0.229l0,0
				c3.22,0,6.209,1.38,8.279,3.68c2.3,2.3,3.45,5.52,3.22,8.51l-1.15,21.85c-0.23,2.99-1.61,5.75-3.68,7.82
				c0.69,1.379,0.92,2.989,0.92,4.6v19.779c0,6.438-5.29,11.498-11.5,11.498c-3.45,0-6.669,0-9.659,0c0,1.61,0,3.45-0.23,5.29
				c0,2.529-0.23,5.29-0.23,9.199c0,3.22-1.38,6.21-3.68,8.28C179.046,109.57,176.286,110.49,173.297,110.49z M164.097,60.353
				c0,2.07,0,4.141,0,6.439c0.92-1.379,2.07-2.299,3.45-3.219c-0.69-0.461-1.38-0.92-2.07-1.61
				C165.017,61.503,164.557,61.043,164.097,60.353z M163.637,30.454c0,1.15,0,2.529,0,3.68c0.92-1.38,2.07-2.76,3.45-3.68H163.637z"
				/>
			<path fill="#133B62" d="M229.874,110.261c-39.558,0-39.558-31.738-39.558-43.697c0-5.75,0.46-13.57,0.69-20.01
				c0.23-3.22,0.23-5.98,0.46-7.82c0.23-5.979,4.83-10.81,11.04-11.27l18.399-0.92c3.45-0.23,6.44,1.15,8.74,3.449
				c0.46,0.461,0.92,0.921,1.38,1.611c0.23-0.23,0.23-0.461,0.46-0.461c2.07-2.3,5.06-3.449,8.05-3.68l17.019-0.46
				c6.209-0.229,11.5,4.83,11.729,11.04l0.23,5.061c0.46,7.59,0.92,18.168,0.92,25.068
				C269.202,78.522,269.202,110.261,229.874,110.261z"/>
			<path fill="#133B62" d="M302.091,112.561c-3.909,0-7.359-1.84-9.66-5.29l-1.38-2.069c-2.07,2.989-5.52,4.83-9.199,5.061
				l-16.789,0.46c-3.22,0-6.21-1.149-8.28-3.22c-2.3-2.07-3.45-5.062-3.45-8.28l-0.23-60.717c0-5.75,4.37-10.811,10.119-11.5
				l16.56-2.3c4.37-0.69,8.739,1.38,11.269,5.06l2.53,3.91c1.61-5.29,6.67-8.74,12.189-8.279l15.869,1.379
				c2.988,0.23,5.979,1.84,7.818,4.141c2.07,2.3,2.99,5.52,2.53,8.74c-2.07,17.938-1.84,33.808-1.38,51.977v4.37
				c0.229,5.29-3.45,10.119-8.51,11.5l-16.789,4.6C304.16,112.561,303.24,112.561,302.091,112.561z M302.091,79.901l5.061,7.82l0,0
				c0-2.99-0.23-5.75-0.23-8.74c-0.46,0.23-1.148,0.461-1.608,0.69C304.391,79.901,303.24,79.901,302.091,79.901z M276.101,49.544
				v9.199c0.46-0.23,1.15-0.461,1.84-0.69c1.15-0.46,2.3-0.46,3.45-0.46L276.101,49.544z"/>
			<path fill="#133B62" d="M348.318,111.87c-6.899,0-14.72-1.149-23.459-3.221c-5.061-1.148-8.739-5.75-8.739-11.039l-1.149-58.646
				c0-5.75,4.14-10.811,9.89-11.729c5.52-0.92,11.27-1.15,17.249-1.15c34.269,0,39.558,18.398,39.558,29.438
				c0,3.45-0.688,6.44-1.84,9.43c3.45,4.6,5.98,10.58,5.98,17.938C385.576,96.691,375.687,111.87,348.318,111.87z"/>
			<path fill="#133B62" d="M417.314,117.39c-1.609,0-3.221-0.46-4.829-1.148c-3.45-1.61-6.67-4.141-9.43-6.899
				c-0.921,0.229-1.841,0.46-2.99,0.46l-19.319,1.149c-2.989,0.229-6.209-0.92-8.509-2.989c-2.3-2.07-3.681-5.062-3.681-8.28
				l-1.381-58.647c-0.229-5.52,3.45-10.119,8.74-11.5c8.05-2.069,16.1-2.989,24.379-2.989c27.828,0,40.248,16.099,40.248,31.968
				c0,8.74-2.99,17.02-8.279,22.999c1.149,1.38,2.3,2.53,3.909,3.22c3.221,1.841,5.521,5.29,5.75,8.971
				c0.46,3.68-1.149,7.59-4.141,9.89l-12.879,10.81C422.604,116.47,419.844,117.39,417.314,117.39z"/>
			<path fill="#133B62" d="M534.379,117.39c-1.608,0-3.22-0.46-4.83-1.148c-3.448-1.61-6.669-4.141-9.429-6.899
				c-0.92,0.229-2.07,0.46-2.99,0.46l-19.318,1.149c-3.221,0.229-6.209-0.92-8.511-2.989c-2.3-2.07-3.68-5.062-3.68-8.28
				l-1.38-58.647c-0.229-5.52,3.45-10.119,8.74-11.5c8.278-2.069,16.099-2.989,24.378-2.989c27.829,0,40.019,16.099,40.019,31.968
				c0,8.74-2.989,17.02-8.278,22.999c0.92,1.38,2.3,2.53,3.908,3.22c3.221,1.841,5.521,5.29,5.75,8.971
				c0.23,3.68-1.149,7.59-4.14,9.89l-12.88,10.81C539.669,116.47,536.909,117.39,534.379,117.39z"/>
			<path fill="#133B62" d="M574.857,116.7c-13.8,0-25.759-6.439-33.579-17.939c-1.84-2.529-2.3-5.75-1.84-8.739
				c0.689-2.989,2.53-5.749,5.06-7.359l2.761-1.841c-4.601-7.358-7.13-16.099-7.13-24.838c0-5.06,0.229-11.959,1.149-19.088
				c0.92-5.98,6.439-10.351,12.188-9.891l18.17,1.15c2.301,0.229,4.141,0.92,5.979,2.069c1.84-1.149,3.909-1.61,5.979-1.61h15.868
				c6.21,0,11.271,5.061,11.499,11.271l0.23,10.351c0.229,10.119,0.688,17.938,0.688,28.059
				C612.115,101.061,597.166,116.7,574.857,116.7z"/>
			<path fill="#133B62" d="M472.972,113.48c-5.289,0-9.891-3.449-11.271-8.739l0,0c-1.84,5.061-7.129,8.51-12.648,7.59l-19.09-2.76
				c-3.448-0.46-6.438-2.53-8.278-5.29c-1.841-2.989-2.301-6.439-1.15-9.659l20.01-60.027c1.609-4.6,5.979-7.82,10.811-7.82
				l20.469-0.229c5.289,0,9.659,3.22,11.27,8.28l18.63,60.717c0.92,3.22,0.46,6.67-1.15,9.43c-1.84,2.76-4.6,4.83-8.049,5.29
				l-17.939,2.989C474.122,113.48,473.662,113.48,472.972,113.48z"/>
		</g>
		<g>
			<path fill="#FDED1E" d="M197.445,40.573c-11.499-0.459-15.869-0.689-23.918-0.459l-0.23,13.568
				c5.52-0.23,14.949-0.23,21.389-0.23v19.779c-8.279,0-16.099,0.229-21.389,0.229c0.23,10.81-0.23,13.569-0.23,25.529
				l-21.159-1.381c0.69-26.909,0.69-49.218-0.46-78.887l47.148-0.229L197.445,40.573z"/>
			<path fill="#FDED1E" d="M229.874,98.761c-23.919,0-28.059-12.648-28.059-31.969c0-8.279,0.69-21.389,0.92-27.368l18.399-0.92
				c-0.69,10.58-1.38,19.549-1.38,31.968c0,11.27,5.52,15.41,10.12,15.41c5.52,0,9.43-4.37,9.66-17.25
				c0.23-10.35,0-22.77-0.23-29.438l17.019-0.461c0.23,6.44,1.15,20.93,1.15,29.439C257.702,86.571,252.643,98.761,229.874,98.761z"
				/>
			<path fill="#FDED1E" d="M319.109,96.461l-16.789,4.6l-20.929-31.737l0.46,29.438l-16.79,0.46l-0.23-60.717l16.56-2.3
				l21.159,32.197c0.229-9.658,0.689-19.549,2.069-31.508l15.869,1.381C317.96,58.743,318.649,76.222,319.109,96.461z"/>
			<path fill="#F2623A" d="M348.318,100.371c-5.061,0-11.729-0.69-20.699-2.99l-1.15-58.647c5.521-0.92,10.811-1.149,15.41-1.149
				c18.629,0,27.828,5.29,27.828,17.938c0,6.44-4.14,10.58-6.898,11.5c4.6,0.92,11.039,6.211,11.039,15.869
				C373.847,96.001,361.428,100.371,348.318,100.371z M345.328,51.612v10.58c4.83,0.689,8.74-0.92,8.74-4.83
				C354.068,53.683,351.308,50.923,345.328,51.612z M345.328,73.923v11.729c1.84,0.69,3.68,1.15,5.061,1.15
				c4.601,0,6.21-3.221,6.21-5.75C356.368,77.142,354.298,73.002,345.328,73.923z"/>
			<path fill="#F2623A" d="M417.314,105.891c-7.359-3.45-13.569-14.26-14.949-23.229c-1.38,0-2.3,0.23-3.68,0.23l0.689,15.641
				l-19.318,1.148l-1.381-58.646c7.359-1.84,14.489-2.76,21.619-2.76c18.858,0,28.52,8.969,28.52,20.469
				c0,7.82-3.45,15.41-10.58,19.779c1.84,8.279,6.439,13.568,11.96,16.789L417.314,105.891z M401.905,52.763
				c-1.38,0-2.76,0.23-4.369,0.46c0,4.83,0.229,11.5,0.46,16.329c0.92,0,1.84,0,2.529,0c8.51,0,10.12-5.059,10.12-8.738
				C410.646,57.133,409.266,52.763,401.905,52.763z"/>
			<path fill="#F2623A" d="M534.379,105.891c-7.358-3.45-13.568-14.26-14.948-23.229c-1.381,0-2.301,0.23-3.45,0.23l0.689,15.641
				l-19.318,1.148l-1.38-58.646c7.358-1.84,14.488-2.76,21.618-2.76c18.859,0,28.52,8.969,28.52,20.469
				c0,7.82-3.45,15.41-10.579,19.779c1.84,8.279,6.438,13.568,11.959,16.789L534.379,105.891z M519.2,52.763
				c-1.38,0-2.761,0.23-4.37,0.46c0,4.83,0.229,11.5,0.46,16.329c0.92,0,1.84,0,2.53,0c8.509,0,10.119-5.059,10.119-8.738
				C527.709,57.133,526.329,52.763,519.2,52.763z"/>
			<path fill="#F2623A" d="M599.696,40.114c0.46,15.179,0.92,24.838,0.92,37.947c0,15.41-8.74,27.14-25.759,27.14
				c-11.04,0-18.859-5.289-24.149-12.879l9.2-5.75c2.76,3.449,8.049,6.21,12.649,6.438c7.818,0,13.568-5.979,12.648-10.119
				c0,0-4.37,2.3-8.74,2.3c-16.559,0-24.607-15.64-24.607-29.208c0-5.75,0.229-11.5,0.92-17.248l18.169,1.149
				c-0.69,5.75-1.15,8.74-1.15,14.489c0,7.59,2.07,13.109,7.36,13.109c5.289,0,6.899-7.131,6.899-11.041
				c0-7.588-0.23-8.738-0.23-16.328H599.696L599.696,40.114z"/>
			<path fill="#F2623A" d="M472.972,101.98l-3.221-12.419l-15.639-0.229l-3.22,11.729l-19.091-2.76l20.011-60.026l20.469-0.23
				l18.629,60.717L472.972,101.98z M461.933,57.362l-4.83,20.93l10.35,0.46L461.933,57.362z"/>
		</g>
	</g>
	<g>
		<path fill="#133B62" d="M122.239,65.872c-0.69-5.289-1.61-11.039-2.53-15.869c4.83-4.6,7.819-10.811,7.819-17.939
			c0-13.108-10.809-24.148-23.918-24.148c-5.52,0-10.81,1.84-14.949,5.29c-3.68-1.38-7.36-2.3-10.35-2.99
			c-2.53-3.91-6.44-7.819-10.58-9.2c-4.14-1.15-7.82-0.46-10.58,1.61c-2.76,0.229-5.29,1.38-7.359,3.22
			c-0.46,0.46-0.92,0.92-1.15,1.381c-2.53,0.92-4.14,2.529-4.83,3.68c-0.23,0.229-0.46,0.459-0.46,0.689
			c-1.38,0.46-2.99,0.92-4.6,1.61c-4.14-3.22-9.2-5.06-14.719-5.06C10.925,7.916,0.115,18.955,0.115,32.294
			c0,6.439,2.53,12.189,6.669,16.79c-1.15,4.601-2.3,10.349-2.99,15.868v0.23c-1.15,1.609-3.45,5.289-2.76,9.66
			c0,0.229,0,0.689-0.23,0.92c-0.23,1.84,0.23,3.68,1.15,5.289c0.23,0.92,0.46,1.84,0.92,2.529c1.15,2.07,2.53,3.681,4.14,5.061
			c8.049,14.72,30.128,24.608,56.117,24.608c26.679,0,49.217-10.579,56.577-25.988c1.61-1.609,2.99-3.681,3.68-5.979
			c0,0,0,0,0-0.229c0.92-1.38,1.38-3.22,1.38-4.83c0-0.688,0-1.379-0.23-2.069C124.999,70.933,123.389,67.712,122.239,65.872z
			 M99.7,31.144l4.37,0.461l0.69,4.139c-2.53,0.461-5.06-1.609-5.06-4.139C99.7,31.604,99.7,31.374,99.7,31.144z M103.61,71.622
			c0,0.23,0,0.689,0.23,0.92c0,0.46,0,1.15,0,1.609c0,0.229,0,0.461,0,0.69C103.61,73.923,103.38,72.772,103.61,71.622z
			 M81.991,30.224c-0.46-0.46-0.69-1.15-0.92-2.07C81.301,29.073,81.761,29.764,81.991,30.224z M45.883,28.614
			c-0.23,0.92-0.69,1.609-1.15,2.07C45.193,30.224,45.653,29.304,45.883,28.614z M43.353,32.294c0.92-0.46,4.14-2.07,9.89-3.221
			c2.07-0.459,3.91-1.379,5.52-2.989c0.92,0,2.07-0.229,2.99-0.69c1.38,0.69,2.76,1.15,4.37,1.15c1.38,1.15,2.99,1.84,5.06,2.07
			c7.59,0.92,11.959,2.99,13.109,3.68l0.46,0.46c1.61,1.38,3.68,2.3,5.75,2.53c0.92,2.07,2.76,3.91,5.06,4.83
			c0.23,0,0.46,0.229,0.69,0.459c0.23,0.23,0.23,0.23,0.46,0.461c0.69,1.38,1.61,2.529,2.76,3.449c-0.23,0.92,0,1.84,0,2.99
			c-3.91-6.439-10.809-10.81-18.859-10.81c-7.36,0-14.029,3.68-17.939,9.198c-4.14-5.75-10.58-9.198-18.169-9.198
			c-2.76,0-5.29,0.46-7.819,1.61c0.92-0.92,1.84-2.07,2.3-3.451c1.61-0.229,2.99-0.92,4.14-2.069L43.353,32.294z M21.734,74.612
			L21.734,74.612c0-0.461,0-0.92,0-1.381c0-0.229,0.23-0.459,0.23-0.689C21.964,73.462,21.964,74.151,21.734,74.612z M46.803,61.272
			c-0.46,0-1.15,0.23-1.61,0.461c-0.46,0.229-0.69,0.229-0.92,0.229c-1.61,0-2.76-1.38-2.76-2.761c0-1.609,1.38-2.76,2.76-2.76
			c1.38,0,2.53,1.15,2.76,2.53c0,0.69,0.23,1.15,0.46,1.841C47.262,60.583,47.032,61.043,46.803,61.272z M77.161,59.894
			c0.23-0.461,0.23-0.921,0.46-1.381c0.23-1.38,1.38-2.529,2.76-2.529c1.61,0,2.76,1.379,2.76,2.76c0,1.609-1.38,2.76-2.76,2.76
			c0,0-0.23,0-0.92-0.23c-0.46-0.229-0.69-0.229-1.15-0.229C77.851,60.813,77.391,60.353,77.161,59.894z M28.864,31.144
			L28.864,31.144c0,0.23,0,0.23,0,0.461c0,2.529-2.53,4.6-5.06,4.139l0.69-4.139L28.864,31.144z M23.804,78.292
			c-0.23-0.92-0.92-1.84-1.38-2.76c0-0.23,0.23-0.689,0.23-0.92c0.92-2.07,0.92-4.142,0.23-6.211c0-0.689,0.23-1.379,0.23-2.068
			c2.53,6.898,8.279,12.419,15.409,14.259c0.69,2.53,2.07,4.83,3.91,6.67c2.07,2.3,4.37,4.14,6.44,5.521
			C35.303,90.021,25.644,84.042,23.804,78.292z M76.011,92.781c4.37-2.761,7.129-6.21,7.819-7.131c1.15-1.608,2.07-3.448,2.76-5.288
			c8.05-2.53,14.259-9.431,15.64-17.939c0.23,1.609,0.46,3.221,0.69,4.6c-0.92,2.301-1.15,5.061,0,7.59
			c0,0.689,0.23,1.381,0.46,1.84c-0.46,0.689-0.69,1.15-0.92,1.841C100.39,84.042,90.501,90.251,76.011,92.781z"/>
		<g>
			<g>
				<path fill="#133B62" d="M76.241,79.901c1.61-2.299,2.07-5.52,0.69-8.049c-0.23-0.229-0.46-0.461-0.69-0.92c0,0,0-0.23,0.23-0.23
					c1.15,0.461,2.53,0.689,3.91,0.689c6.899,0,12.649-5.52,12.649-12.648c0-6.899-5.52-12.649-12.649-12.649
					c-6.44,0-11.5,4.83-12.419,10.81c-1.61-0.461-3.22-0.69-4.83-0.69c-2.53,0-4.6,0.46-6.44,0.92
					c-0.69-6.209-5.979-11.271-12.419-11.271c-6.899,0-12.649,5.521-12.649,12.649c0,6.899,5.52,12.649,12.649,12.649
					c1.61,0,2.99-0.229,4.37-0.69c0.23,0.229,0.23,0.461,0.46,0.69c-0.23,0.229-0.46,0.689-0.69,0.92
					c-1.15,2.761-0.69,6.21,1.38,8.279c4.83,5.289,9.889,6.439,13.109,6.439C70.721,87.031,75.552,80.821,76.241,79.901z
					 M80.151,55.983c1.61,0,2.99,1.379,2.99,2.989s-1.38,2.99-2.99,2.99c-1.61,0-2.99-1.38-2.99-2.99S78.541,55.983,80.151,55.983z
					 M44.273,61.963c-1.61,0-2.99-1.38-2.99-2.99s1.38-2.989,2.99-2.989c1.61,0,2.99,1.379,2.99,2.989
					C47.032,60.583,45.883,61.963,44.273,61.963z"/>
			</g>
			<g>
				<g>
					<path fill="#FFFFFF" d="M112.809,69.321c-0.69-8.508-2.99-19.088-4.14-23.459c5.29-2.069,8.97-7.358,8.97-13.568
						c0-8.049-6.44-14.489-14.259-14.489c-5.52,0-10.35,3.22-12.649,8.05c-0.46-0.459-0.92-0.689-0.92-0.689
						c0.23-0.23-5.98-4.37-18.169-5.75c-0.92-3.221-4.83-8.051-7.129-8.74c-5.52-1.609,0.23,5.29,1.38,6.439
						c-2.07-1.15-7.13-6.67-9.89-3.91c-1.61,1.609-0.23,2.76,1.61,3.449c-3.45-0.689-7.819-1.379-6.669,2.53
						c0,0.23,0.23,0.46,0.23,0.69c-9.66,1.38-14.259,5.06-14.259,5.06s-0.23,0.23-0.46,0.46c-2.3-4.6-7.13-7.82-12.419-7.82
						c-7.82,0-14.259,6.44-14.259,14.49c0,5.75,3.22,10.579,7.819,13.109c-1.15,4.141-3.91,14.72-4.6,23.458l-0.23-0.688
						c0,1.608-4.83,5.75-0.92,5.06c-0.46,1.149-1.15,2.3-1.38,3.45c0.46-0.23,0.92-0.23,1.38-0.461
						c-1.84,2.301,0.46,5.291,2.53,5.291c4.14,12.648,24.379,22.309,48.528,22.309c24.148,0,44.388-9.659,48.527-22.309
						c0,0,0-0.23,0.23-0.23c1.61-0.689,3.22-2.99,1.61-5.061c0.46,0.229,0.92,0.229,1.38,0.461c0-1.15-0.69-2.301-1.38-3.45
						C116.26,73.692,113.959,71.162,112.809,69.321z"/>
					<path opacity="0.38" fill="#133B62" enable-background="new    " d="M25.874,33.674c1.15-1.149,2.53-2.069,3.91-2.53
						c-0.23-2.76-2.53-4.83-5.29-4.83c-2.99,0-5.29,2.53-5.29,5.521c0,2.76,1.84,4.83,4.37,5.29
						C24.034,35.743,24.954,34.594,25.874,33.674z"/>
					<path opacity="0.38" fill="#133B62" enable-background="new    " d="M102.69,33.674c-1.15-1.149-2.53-2.069-3.91-2.53
						c0.23-2.76,2.53-4.83,5.29-4.83c2.99,0,5.29,2.53,5.29,5.521c0,2.76-1.84,4.83-4.37,5.29
						C104.53,35.743,103.61,34.594,102.69,33.674z"/>
				</g>
				<g>
					<path fill="#E5F4F5" d="M12.994,73.002c0-0.688,0-1.38,0.69-2.3c-0.23,0.229-0.46,0.229-0.69,0.229
						C12.304,72.082,11.844,73.002,12.994,73.002z"/>
					<path fill="#E5F4F5" d="M111.659,70.702c0.46,0.688,0.69,1.38,0.69,2.3c1.15,0,0.69-0.92,0-1.841
						C112.349,70.933,112.119,70.933,111.659,70.702z"/>
				</g>
				<path fill="#133B62" d="M54.852,66.563c0,0,8.28-4.371,14.949,0c0,0-3.22,4.14-7.819,4.14
					C57.382,70.702,54.852,66.563,54.852,66.563z"/>
				<path fill="#133B62" d="M48.873,58.973c0,2.53-2.07,4.83-4.83,4.83c-2.53,0-4.83-2.069-4.83-4.83c0-2.53,2.07-4.829,4.83-4.829
					C46.803,54.144,48.873,56.442,48.873,58.973z"/>
				<path fill="#133B62" d="M84.981,58.973c0,2.53-2.07,4.83-4.83,4.83c-2.53,0-4.83-2.069-4.83-4.83c0-2.53,2.07-4.829,4.83-4.829
					C82.911,54.144,84.981,56.442,84.981,58.973z"/>
				<polygon fill="#133B62" points="62.672,77.372 62.442,77.142 61.752,69.782 63.132,69.782 				"/>
				<path fill="#133B62" d="M55.312,75.302h14.489C69.802,75.302,63.362,84.272,55.312,75.302z"/>
			</g>
		</g>
		<g>
			<path fill="#133B62" d="M47.262,118.54L47.262,118.54c-1.38,0-2.76-0.46-3.91-1.38c-3.91-3.45-4.14-11.96-3.68-16.561
				c0.69-4.369,2.3-7.129,4.83-8.51c0.92-0.46,2.3-0.689,3.68-0.689c4.6,0,11.959,2.99,14.259,6.899c0.46,0.69,1.38,2.53,0.92,8.51
				v1.84l-1.15,1.15C58.532,113.021,51.863,118.54,47.262,118.54z M48.643,100.141c-0.69,2.07-0.69,6.67,0,9.2
				c1.61-0.92,4.14-2.76,6.209-4.601c0-0.689,0-1.609,0-2.069C53.932,101.751,50.713,100.371,48.643,100.141z"/>
			<path fill="#133B62" d="M80.151,118.54c-4.6,0-11.27-5.521-14.719-8.739l-1.15-1.15l-0.23-1.609
				c-0.46-6.209,0.46-8.049,0.92-8.509c2.3-3.91,9.429-6.9,14.259-6.9c1.38,0,2.53,0.23,3.68,0.69c2.53,1.149,4.14,4.14,4.83,8.51
				c0.69,4.6,0.23,13.108-3.68,16.559C83.141,118.08,81.761,118.54,80.151,118.54z M72.561,104.74c2.3,2.069,4.83,3.681,6.44,4.601
				c0.69-2.53,0.69-7.13,0-9.2c-2.07,0.23-5.06,1.61-6.21,2.53C72.561,103.131,72.561,103.82,72.561,104.74z"/>
			<path fill="#F47521" d="M58.762,100.601c-1.61-2.76-9.429-5.979-12.189-4.6c-3.68,1.84-3.22,15.18-0.23,17.938
				c2.53,2.301,12.879-7.358,12.879-7.358S59.682,101.98,58.762,100.601z"/>
			<path fill="#F47521" d="M68.882,100.601c1.61-2.76,9.43-5.979,12.189-4.6c3.68,1.84,3.22,15.18,0.23,17.938
				c-2.53,2.301-12.879-7.358-12.879-7.358S67.962,101.98,68.882,100.601z"/>
			<path fill="#133B62" d="M63.592,113.94c-5.98,0-10.81-4.369-10.81-9.89c0-5.52,4.83-9.89,10.81-9.89
				c5.979,0,10.809,4.37,10.809,9.89C74.401,109.571,69.572,113.94,63.592,113.94z M63.592,102.671c-1.15,0-2.3,0.688-2.3,1.38
				c0,0.689,0.92,1.38,2.3,1.38c1.15,0,2.3-0.689,2.3-1.38S64.972,102.671,63.592,102.671z"/>
			<ellipse fill="#F47521" cx="63.592" cy="104.051" rx="6.439" ry="5.75"/>
			<path fill="#133B62" d="M55.542,101.98c0,0-2.53-3.68-7.82-2.528L55.542,101.98z"/>
			<path fill="#133B62" d="M72.101,101.98c0,0,2.53-3.68,7.59-2.528L72.101,101.98z"/>
			<path fill="#133B62" d="M55.542,106.581c0,0-2.53,3.68-7.82,2.528L55.542,106.581z"/>
			<path fill="#133B62" d="M72.101,106.581c0,0,2.53,3.68,7.59,2.528L72.101,106.581z"/>
		</g>
	</g>
</g>
</svg>
