<?xml version="1.0" encoding="utf-8"?>
<!-- Generator: Adobe Illustrator 16.0.0, SVG Export Plug-In . SVG Version: 6.00 Build 0)  -->
<!DOCTYPE svg PUBLIC "-//W3C//DTD SVG 1.1//EN" "http://www.w3.org/Graphics/SVG/1.1/DTD/svg11.dtd">
<svg version="1.1" id="Layer_1" xmlns="http://www.w3.org/2000/svg" xmlns:xlink="http://www.w3.org/1999/xlink" x="0px" y="0px"
	 width="60px" height="40px" viewBox="0 0 60 40" enable-background="new 0 0 60 40" xml:space="preserve">
<g>
	<polygon fill="#FAFAF4" points="12.449,33.586 13.95,23.678 40.671,11.667 15.751,25.178 	"/>
	<polygon fill="#FAFAF4" points="17.253,26.98 19.954,29.082 13.649,33.586 	"/>
	<path fill="#FAFAF4" d="M58.084,1.761l-13.21,2.401L2.843,11.968l0,0l-1.502,0.301c-1.5,0.3-1.801,1.201-0.6,2.102l9.008,6.305
		c0.299,0.301,0.899,0.602,1.2,0.602l1.501,0.9l0,0c0,0,1.201-0.602,2.702-1.201l18.615-8.106l18.614-8.105
		c1.501-0.601,1.501-0.601,0,0.3l-17.414,9.007l-17.113,9.006l0,0l-2.702,1.201l0.601,0.602l2.703-1.502l0,0l16.812-9.007
		L52.08,5.365c1.502-0.602,1.502-0.602,0,0l-16.212,9.607l-15.611,9.606l0,0l-2.703,1.502l15.612,10.809l0,0l1.201,0.9
		c1.501,0.9,3.302,0.602,4.203-0.9l0.602-1.201l0,0L59.286,4.164l0,0l0.3-0.3C60.486,2.361,59.886,1.46,58.084,1.761z"/>
</g>
</svg>
