<?xml version="1.0" encoding="utf-8"?>
<!-- Generator: Adobe Illustrator 16.0.0, SVG Export Plug-In . SVG Version: 6.00 Build 0)  -->
<!DOCTYPE svg PUBLIC "-//W3C//DTD SVG 1.1//EN" "http://www.w3.org/Graphics/SVG/1.1/DTD/svg11.dtd">
<svg version="1.1" id="Layer_1" xmlns="http://www.w3.org/2000/svg" xmlns:xlink="http://www.w3.org/1999/xlink" x="0px" y="0px"
	 width="60px" height="40px" viewBox="276 376 60 40" enable-background="new 276 376 60 40" xml:space="preserve">
<g>
	<polygon fill="#ABABAB" points="287.843,409.345 289.344,399.438 316.064,387.428 291.145,400.938 	"/>
	<polygon fill="#ABABAB" points="292.646,402.74 295.348,404.842 289.043,409.345 	"/>
	<path fill="#ABABAB" d="M333.478,377.521l-13.21,2.402l-42.032,7.806l0,0l-1.501,0.3c-1.501,0.3-1.801,1.201-0.6,2.102l9.007,6.305
		c0.3,0.301,0.9,0.601,1.201,0.601l1.501,0.901l0,0c0,0,1.201-0.601,2.702-1.201l18.615-8.106l18.614-8.106
		c1.501-0.6,1.501-0.6,0,0.3l-17.414,9.007l-17.113,9.007l0,0l-2.702,1.201l0.601,0.601l2.702-1.502l0,0l16.813-9.007l16.812-9.007
		c1.502-0.601,1.502-0.601,0,0l-16.212,9.607l-15.612,9.607l0,0l-2.702,1.501l15.612,10.809l0,0l1.201,0.9
		c1.501,0.901,3.302,0.601,4.203-0.9l0.601-1.201l0,0l20.115-31.524l0,0l0.3-0.3C335.88,378.121,335.279,377.22,333.478,377.521z"/>
</g>
</svg>
