<?xml version="1.0" encoding="utf-8"?>
<!-- Generator: Adobe Illustrator 16.0.0, SVG Export Plug-In . SVG Version: 6.00 Build 0)  -->
<!DOCTYPE svg PUBLIC "-//W3C//DTD SVG 1.1//EN" "http://www.w3.org/Graphics/SVG/1.1/DTD/svg11.dtd">
<svg version="1.1" id="Layer_1" xmlns="http://www.w3.org/2000/svg" xmlns:xlink="http://www.w3.org/1999/xlink" x="0px" y="0px"
	 width="612px" height="398px" viewBox="0 0 612 398" enable-background="new 0 0 612 398" xml:space="preserve">
<g>
	<g>
		<path fill="#FFFFFF" d="M62.854,309.116c-15.989-0.553-22.054-1.104-33.081-0.553v18.746c7.167-0.552,20.4-0.552,29.222,0v27.018
			c-11.027,0-22.054,0-29.222,0.551c0.551,14.335,0,18.746-0.551,34.734l-28.67-1.653C1.654,350.467,1.654,320.142,0,279.342h63.957
			L62.854,309.116z"/>
		<path fill="#FFFFFF" d="M106.411,388.51c-32.53,0-38.043-17.092-38.043-43.557c0-11.027,1.103-29.223,1.103-37.492l25.362-1.104
			c-1.103,14.335-1.654,26.465-1.654,43.558c0,15.438,7.167,20.95,13.784,20.95c7.168,0,12.681-6.063,13.232-23.155
			c0-14.336,0-30.876,0-40.249l23.157-0.553c0.551,8.822,1.654,28.672,1.654,40.249C144.454,371.969,137.838,388.51,106.411,388.51z
			"/>
		<path fill="#FFFFFF" d="M228.259,385.201l-23.157,6.064l-28.67-43.006l0.551,40.249l-22.605,0.551l-0.551-82.702l22.605-3.309
			l28.67,44.108c0.552-13.232,1.103-26.466,2.757-43.006l21.503,2.205C226.605,333.926,227.708,357.634,228.259,385.201z"/>
		<path fill="#FFFFFF" d="M268.508,390.715c-7.168,0-15.989-1.104-28.119-3.859l-1.654-79.945
			c7.719-1.104,14.886-1.653,20.951-1.653c25.362,0,38.043,7.167,38.043,24.259c0,8.822-5.514,14.336-9.374,15.438
			c6.065,1.103,14.886,8.271,14.886,21.503C303.243,384.65,286.151,390.715,268.508,390.715z M264.097,324.001v14.336
			c6.616,1.103,12.13-1.104,12.13-6.616C275.676,327.31,272.368,323.45,264.097,324.001z M264.097,354.877v15.989
			c2.757,1.103,4.962,1.653,6.616,1.653c6.065,0,8.271-4.411,8.271-8.271C278.984,358.736,276.227,353.223,264.097,354.877z"/>
		<path fill="#FFFFFF" d="M362.238,397.883c-9.925-4.411-18.746-19.298-20.4-31.428c-1.654,0-2.757,0-4.962,0l1.103,21.503
			l-26.465,1.653l-2.206-79.945c9.926-2.757,19.85-3.859,29.773-3.859c25.913,0,39.146,12.13,39.146,27.567
			c0,10.477-4.409,20.952-14.335,27.017c2.758,11.027,8.822,18.746,16.541,22.605L362.238,397.883z M341.286,325.655
			c-1.653,0-3.859,0-6.064,0.553c0,6.615,0,15.438,0.553,22.054c1.103,0,2.204,0,3.308,0c11.578,0,13.784-7.167,13.784-12.13
			C352.865,331.721,351.211,325.655,341.286,325.655z"/>
		<path fill="#FFFFFF" d="M521.578,397.883c-9.924-4.411-18.746-19.298-20.399-31.428c-1.653,0-2.757,0-4.963,0l1.104,21.503
			l-26.465,1.653l-2.206-79.945c9.925-2.757,19.849-3.859,29.772-3.859c25.913,0,39.146,12.13,39.146,27.567
			c0,10.477-4.411,20.952-14.335,27.017c2.757,11.027,8.82,18.746,16.541,22.605L521.578,397.883z M501.179,325.655
			c-1.653,0-3.858,0-6.064,0.553c0,6.615,0,15.438,0.552,22.054c1.103,0,2.205,0,3.308,0c11.579,0,13.784-7.167,13.784-12.13
			C512.757,331.721,510.552,325.655,501.179,325.655z"/>
		<path fill="#FFFFFF" d="M610.896,308.563c0.552,20.951,1.104,33.633,1.104,51.827c0,20.951-12.13,36.94-35.286,36.94
			c-14.887,0-25.914-7.167-32.53-17.644l12.683-7.72c3.858,4.411,11.025,8.822,17.092,8.822c10.476,0,18.746-8.271,17.092-13.784
			c0,0-6.064,3.309-12.13,3.309c-22.605,0-33.633-21.503-33.633-39.696c0-7.721,0-15.989,1.103-23.709l24.812,1.653
			c-1.104,7.72-1.654,12.13-1.654,19.85c0,10.476,2.757,17.644,9.925,17.644c7.167,0,9.372-9.373,9.372-14.887
			c0-10.477-0.551-12.13,0-22.055H610.9v-0.551H610.896z"/>
		<path fill="#FFFFFF" d="M437.773,392.921l-4.411-17.093l-21.503-0.552L408,391.817l-25.913-3.858l27.016-81.601h28.119
			l25.362,82.702L437.773,392.921z M422.887,332.271l-6.615,28.671l14.335,0.552L422.887,332.271z"/>
	</g>
	<g>
		<g>
			<path fill="#F7F7F7" d="M163.2,176.239c0-2.205,0-4.41,1.654-6.064c-0.551,0.551-1.103,0.551-2.206,0.551
				C160.995,174.034,159.892,176.79,163.2,176.239z"/>
			<path fill="#F7F7F7" d="M441.081,170.175c1.654,2.206,2.205,4.411,1.654,6.064c3.308,0,2.205-2.205,0.551-5.514
				C442.184,170.726,441.633,170.726,441.081,170.175z"/>
		</g>
		<path fill="#FFFFFF" d="M444.39,165.764c-2.206-24.259-8.271-53.481-11.579-66.162c14.888-6.065,25.362-20.95,25.362-38.043
			c0-22.604-17.644-40.8-39.697-40.8c-15.438,0-29.222,9.373-35.838,22.605c-1.653-1.104-2.205-2.207-2.205-2.207
			c0.552-0.551-25.361-17.643-76.087-17.643c-50.724,0-73.881,17.643-73.33,17.643c0,0-0.551,0.552-1.654,1.104
			c-6.616-12.682-19.849-21.502-35.287-21.502c-22.054,0-39.697,18.193-39.697,40.8c0,15.989,8.822,29.773,22.054,36.39
			c-3.308,11.578-11.027,41.352-12.681,66.162l-0.551-2.205c-0.552,4.41-13.232,16.541-2.757,14.334
			c-2.206,2.758-3.859,6.065-3.859,9.373c1.103-0.551,2.756-0.551,3.859-1.653c-4.962,6.616,1.103,15.438,7.167,14.887
			c11.578,35.838,68.368,62.854,136.735,62.854c68.368,0,125.157-27.018,136.735-62.854c0,0,0-0.551,0.552-0.551
			c4.962-1.655,8.821-8.822,4.41-14.336c1.103,1.103,2.757,1.103,3.859,1.653c-0.552-3.308-2.205-6.615-3.859-9.373
			C453.762,178.444,447.146,171.278,444.39,165.764z M199.038,65.97c-2.756,2.756-4.962,6.064-6.616,9.373
			c-7.167-1.104-12.129-7.719-12.129-14.887c0-8.271,6.616-15.438,14.886-15.438c7.719,0,14.335,6.065,14.887,13.784
			C206.206,60.456,202.346,62.661,199.038,65.97z M250.865,150.325c-7.167,0-13.232-6.064-13.232-13.231
			c0-7.72,6.065-13.231,13.232-13.231s13.232,6.064,13.232,13.231S258.032,150.325,250.865,150.325z M323.092,183.407
			c0,0-18.193,24.811-40.8,0h19.297l-1.103-13.232c-12.681-0.551-19.849-12.129-19.849-12.129s23.708-12.131,42.454,0
			c0,0-8.271,10.477-19.297,11.578l-0.552,13.783H323.092L323.092,183.407z M352.312,150.325c-7.168,0-13.231-6.064-13.231-13.231
			c0-7.72,6.063-13.231,13.231-13.231c7.169,0,13.232,6.064,13.232,13.231S360.032,150.325,352.312,150.325z M422.335,75.342
			c-1.654-3.308-3.859-6.616-6.616-9.373c-3.308-3.308-6.616-5.515-11.026-7.168c0.552-7.719,7.168-13.784,14.887-13.784
			c8.271,0,14.887,6.616,14.887,15.438C434.465,67.622,429.503,74.239,422.335,75.342z"/>
		<path fill="#FFFFFF" d="M330.26,29.579c0.551-7.719-13.231-26.465-20.951-28.67c-15.438-4.961,0.552,14.887,3.859,18.194
			c-5.514-3.308-19.849-18.745-27.568-11.026c-8.271,7.719,9.374,12.129,14.886,12.129c-5.513-0.551-33.632-11.026-29.222,4.963
			c3.86,14.887,45.21,9.924,53.481,7.167"/>
	</g>
	<path fill="#FFFFFF" d="M326.951,187.817v-3.859l-1.104-2.756c0,0-1.653-1.104-2.205-1.654c-0.552,0-3.309-0.551-3.309-0.551
		l-3.308,1.654v2.204c1.103,0,2.205,1.103,2.205,2.206c0,0.551-0.553,1.654-1.104,1.654L326.951,187.817z"/>
	<path fill="#FFFFFF" d="M287.254,183.407c-1.103,0-2.205,1.103-2.205,2.205c0,0.551,0,1.104,0.551,1.654l-2.206,0.551
		c-0.551,0-3.308-0.551-3.859-1.103c-0.551,0-3.308-4.962-3.308-4.962l1.654-2.758c0,0,4.962,0,5.514,0L287.254,183.407z"/>
	<g>
		<path fill="#586C7A" d="M259.135,292.023L259.135,292.023c-3.308,0-5.514-1.103-6.616-2.206c-8.271-7.167-9.373-28.67-7.719-40.8
			c1.654-9.924,4.962-16.54,9.924-18.746c2.206-1.103,4.411-1.652,7.168-1.652c11.027,0,29.221,7.719,34.735,16.54
			c2.757,4.41,2.205,14.887,1.654,20.399v2.205l-1.654,1.654C290.562,273.828,270.713,292.023,259.135,292.023z M262.443,239.094
			c-1.654,0-2.206,0.551-2.757,0.551c-0.551,0.552-2.757,2.757-3.859,10.477c-1.654,13.231,1.103,27.017,3.859,30.323
			c4.962-0.551,17.643-9.373,28.119-18.744c0.552-4.964,0-10.478-0.551-11.579C284.497,246.261,270.713,239.094,262.443,239.094z"/>
		<path fill="#586C7A" d="M352.865,292.023c-11.579,0-31.429-17.644-37.492-23.157l-1.654-1.653v-2.205
			c-0.551-5.514-1.103-15.989,1.654-20.4c4.962-8.82,23.708-16.54,34.735-16.54c2.757,0,5.514,0.553,7.167,1.654
			c4.963,2.205,8.821,8.821,9.925,18.746c1.653,12.129,0.551,33.632-7.72,40.8C357.827,290.369,356.173,292.023,352.865,292.023z
			 M324.746,262.25c9.924,8.82,23.156,18.193,28.119,18.746c2.757-3.309,5.513-17.645,3.858-30.324
			c-1.103-7.719-3.309-9.925-3.858-10.477c0,0-1.104-0.552-2.757-0.552c-8.822,0-22.605,6.616-24.812,11.027
			C324.194,251.774,324.194,256.736,324.746,262.25z"/>
		<path fill="#FFFFFF" d="M291.665,247.363c-4.411-7.719-26.465-16.54-34.735-12.681c-10.476,4.962-9.373,43.006-0.551,50.726
			c7.167,6.063,36.39-20.4,36.39-20.4S293.87,251.223,291.665,247.363z"/>
		<path fill="#FFFFFF" d="M320.335,247.363c4.411-7.719,26.465-16.54,34.735-12.681c10.476,4.962,9.373,43.006,0.552,50.726
			c-7.168,6.063-36.39-20.4-36.39-20.4S318.13,251.223,320.335,247.363z"/>
		<path fill="#586C7A" d="M305.448,278.791c-13.232,0-24.259-9.925-24.259-21.503c0-12.13,11.027-21.503,24.259-21.503
			c13.231,0,24.26,9.925,24.26,21.503S318.681,278.791,305.448,278.791z M305.448,246.261c-7.167,0-13.232,4.962-13.232,10.476
			c0,6.065,6.065,10.477,13.232,10.477c7.168,0,13.231-4.962,13.231-10.477C318.68,251.223,312.616,246.261,305.448,246.261z"/>
		<ellipse fill="#FFFFFF" cx="305.448" cy="257.288" rx="18.746" ry="15.989"/>
		<path fill="#586C7A" d="M283.395,254.532l-22.054-8.271C261.34,246.261,278.984,246.812,283.395,254.532z"/>
		<path fill="#586C7A" d="M326.951,254.532l22.055-8.271C349.006,246.261,330.811,246.812,326.951,254.532z"/>
		<g>
			<path fill="#586C7A" d="M283.395,261.698l-22.054,8.271C261.34,269.969,278.984,269.418,283.395,261.698z"/>
			<path fill="#586C7A" d="M326.951,261.698l22.055,8.271C349.006,269.969,330.811,269.418,326.951,261.698z"/>
		</g>
	</g>
</g>
</svg>
