<?xml version="1.0" encoding="utf-8"?>
<!-- Generator: Adobe Illustrator 16.0.0, SVG Export Plug-In . SVG Version: 6.00 Build 0)  -->
<!DOCTYPE svg PUBLIC "-//W3C//DTD SVG 1.1//EN" "http://www.w3.org/Graphics/SVG/1.1/DTD/svg11.dtd">
<svg version="1.1" id="Layer_1" xmlns="http://www.w3.org/2000/svg" xmlns:xlink="http://www.w3.org/1999/xlink" x="0px" y="0px"
	 width="612px" height="398px" viewBox="0 197 612 398" enable-background="new 0 197 612 398" xml:space="preserve">
<g>
	<g>
		<path fill="#FFFFFF" d="M61.854,508.271c-15.989-0.552-22.054-1.103-33.081-0.552v18.746c7.167-0.552,20.4-0.552,29.222,0v27.017
			c-11.027,0-22.054,0-29.222,0.551c0.551,14.335,0,18.746-0.551,34.735l-28.67-1.654C0.654,549.622,0.654,519.297-1,478.497h63.957
			L61.854,508.271z"/>
		<path fill="#FFFFFF" d="M105.411,587.665c-32.53,0-38.043-17.092-38.043-43.557c0-11.027,1.103-29.222,1.103-37.492l25.362-1.103
			c-1.103,14.335-1.654,26.465-1.654,43.557c0,15.438,7.167,20.951,13.784,20.951c7.168,0,12.681-6.064,13.232-23.156
			c0-14.336,0-30.876,0-40.249l23.157-0.552c0.551,8.822,1.654,28.671,1.654,40.249
			C143.454,571.124,136.838,587.665,105.411,587.665z"/>
		<path fill="#FFFFFF" d="M227.259,584.356l-23.157,6.065l-28.67-43.006l0.551,40.249l-22.605,0.551l-0.551-82.702l22.605-3.309
			l28.67,44.108c0.552-13.232,1.103-26.465,2.757-43.005l21.503,2.205C225.605,533.081,226.708,556.789,227.259,584.356z"/>
		<path fill="#FFFFFF" d="M267.508,589.87c-7.168,0-15.989-1.103-28.119-3.859l-1.654-79.946c7.719-1.103,14.886-1.653,20.951-1.653
			c25.362,0,38.043,7.167,38.043,24.259c0,8.822-5.513,14.336-9.373,15.438c6.065,1.103,14.886,8.271,14.886,21.503
			C302.243,583.806,285.151,589.87,267.508,589.87z M263.097,523.156v14.336c6.616,1.103,12.13-1.104,12.13-6.616
			C274.676,526.465,271.368,522.605,263.097,523.156z M263.097,554.032v15.989c2.757,1.103,4.962,1.654,6.616,1.654
			c6.065,0,8.271-4.411,8.271-8.271C277.984,557.892,275.227,552.378,263.097,554.032z"/>
		<path fill="#FFFFFF" d="M361.238,597.038c-9.925-4.411-18.746-19.298-20.4-31.428c-1.654,0-2.757,0-4.962,0l1.103,21.503
			l-26.465,1.654l-2.206-79.946c9.925-2.757,19.849-3.859,29.773-3.859c25.913,0,39.146,12.13,39.146,27.567
			c0,10.477-4.41,20.952-14.335,27.017c2.757,11.027,8.822,18.746,16.541,22.605L361.238,597.038z M340.286,524.811
			c-1.653,0-3.859,0-6.064,0.552c0,6.616,0,15.438,0.552,22.054c1.103,0,2.205,0,3.308,0c11.578,0,13.784-7.167,13.784-12.13
			C351.865,530.876,350.211,524.811,340.286,524.811z"/>
		<path fill="#FFFFFF" d="M520.578,597.038c-9.924-4.411-18.746-19.298-20.399-31.428c-1.654,0-2.757,0-4.963,0l1.104,21.503
			l-26.465,1.654l-2.206-79.946c9.925-2.757,19.849-3.859,29.773-3.859c25.913,0,39.146,12.13,39.146,27.567
			c0,10.477-4.411,20.952-14.335,27.017c2.757,11.027,8.821,18.746,16.541,22.605L520.578,597.038z M500.179,524.811
			c-1.654,0-3.859,0-6.065,0.552c0,6.616,0,15.438,0.552,22.054c1.103,0,2.205,0,3.308,0c11.579,0,13.784-7.167,13.784-12.13
			C511.757,530.876,509.552,524.811,500.179,524.811z"/>
		<path fill="#FFFFFF" d="M609.897,507.719c0.551,20.951,1.103,33.633,1.103,51.827c0,20.951-12.13,36.94-35.286,36.94
			c-14.887,0-25.914-7.167-32.53-17.643l12.682-7.72c3.859,4.411,11.026,8.822,17.092,8.822c10.476,0,18.746-8.271,17.092-13.784
			c0,0-6.065,3.309-12.13,3.309c-22.605,0-33.633-21.503-33.633-39.697c0-7.72,0-15.989,1.103-23.709l24.812,1.654
			c-1.103,7.719-1.654,12.13-1.654,19.849c0,10.476,2.757,17.644,9.925,17.644c7.167,0,9.372-9.373,9.372-14.887
			c0-10.476-0.551-12.13,0-22.054h22.055V507.719z"/>
		<path fill="#FFFFFF" d="M436.773,592.076l-4.411-17.093l-21.503-0.551L407,590.973l-25.913-3.859l27.016-81.6h28.119
			l25.362,82.702L436.773,592.076z M421.887,531.427l-6.616,28.671l14.335,0.551L421.887,531.427z"/>
	</g>
	<g>
		<g>
			<path fill="#F7F7F7" d="M162.2,375.395c0-2.205,0-4.411,1.654-6.065c-0.551,0.551-1.103,0.551-2.206,0.551
				C159.995,373.189,158.892,375.946,162.2,375.395z"/>
			<path fill="#F7F7F7" d="M440.081,369.33c1.654,2.206,2.205,4.411,1.654,6.065c3.308,0,2.205-2.205,0.551-5.514
				C441.184,369.881,440.633,369.881,440.081,369.33z"/>
		</g>
		<path fill="#FFFFFF" d="M443.39,364.919c-2.206-24.259-8.271-53.481-11.579-66.162c14.887-6.065,25.362-20.951,25.362-38.043
			c0-22.605-17.644-40.8-39.697-40.8c-15.438,0-29.222,9.373-35.838,22.605c-1.654-1.103-2.205-2.206-2.205-2.206
			c0.551-0.551-25.362-17.643-76.087-17.643c-50.724,0-73.881,17.643-73.33,17.643c0,0-0.551,0.551-1.654,1.103
			c-6.616-12.681-19.849-21.502-35.287-21.502c-22.054,0-39.697,18.194-39.697,40.8c0,15.989,8.822,29.773,22.054,36.389
			c-3.308,11.579-11.027,41.352-12.681,66.162l-0.551-2.205c-0.552,4.411-13.232,16.541-2.757,14.335
			c-2.206,2.757-3.859,6.065-3.859,9.373c1.103-0.551,2.756-0.551,3.859-1.654c-4.962,6.616,1.103,15.438,7.167,14.887
			c11.578,35.838,68.368,62.854,136.735,62.854c68.368,0,125.157-27.017,136.735-62.854c0,0,0-0.551,0.552-0.551
			c4.962-1.655,8.821-8.822,4.41-14.336c1.103,1.103,2.757,1.103,3.859,1.654c-0.551-3.308-2.205-6.616-3.859-9.373
			C452.762,377.6,446.146,370.433,443.39,364.919z M198.038,265.125c-2.756,2.756-4.962,6.065-6.616,9.373
			c-7.167-1.103-12.129-7.719-12.129-14.886c0-8.271,6.616-15.438,14.886-15.438c7.719,0,14.335,6.065,14.887,13.784
			C205.206,259.611,201.346,261.816,198.038,265.125z M249.865,349.481c-7.167,0-13.232-6.065-13.232-13.232
			c0-7.719,6.065-13.232,13.232-13.232s13.232,6.065,13.232,13.232S257.032,349.481,249.865,349.481z M322.092,382.562
			c0,0-18.194,24.811-40.8,0h19.297l-1.103-13.232c-12.681-0.551-19.849-12.129-19.849-12.129s23.708-12.13,42.454,0
			c0,0-8.271,10.476-19.297,11.578l-0.552,13.784H322.092z M351.313,349.481c-7.168,0-13.232-6.065-13.232-13.232
			c0-7.719,6.064-13.232,13.232-13.232s13.232,6.065,13.232,13.232S359.032,349.481,351.313,349.481z M421.335,274.497
			c-1.654-3.308-3.859-6.616-6.616-9.373c-3.308-3.308-6.616-5.514-11.027-7.168c0.552-7.719,7.168-13.784,14.887-13.784
			c8.271,0,14.887,6.616,14.887,15.438C433.465,266.778,428.503,273.395,421.335,274.497z"/>
		<path fill="#FFFFFF" d="M329.26,228.735c0.551-7.719-13.232-26.465-20.951-28.67c-15.438-4.962,0.551,14.886,3.859,18.194
			c-5.514-3.308-19.849-18.746-27.568-11.027c-8.271,7.719,9.373,12.13,14.886,12.13c-5.513-0.552-33.632-11.027-29.222,4.962
			c3.86,14.887,45.211,9.924,53.481,7.167"/>
	</g>
	<path fill="#FFFFFF" d="M325.951,386.973v-3.86l-1.103-2.756c0,0-1.654-1.103-2.205-1.654c-0.552,0-3.309-0.551-3.309-0.551
		l-3.308,1.654v2.205c1.103,0,2.205,1.103,2.205,2.206c0,0.551-0.552,1.654-1.103,1.654L325.951,386.973z"/>
	<path fill="#FFFFFF" d="M286.254,382.562c-1.103,0-2.205,1.103-2.205,2.206c0,0.551,0,1.103,0.551,1.654l-2.206,0.551
		c-0.551,0-3.308-0.551-3.859-1.103c-0.551,0-3.308-4.962-3.308-4.962l1.654-2.757c0,0,4.962,0,5.514,0L286.254,382.562z"/>
	<g>
		<path fill="#586C7A" d="M258.135,491.179L258.135,491.179c-3.308,0-5.514-1.103-6.616-2.206c-8.271-7.167-9.373-28.67-7.719-40.8
			c1.654-9.924,4.962-16.54,9.924-18.746c2.206-1.103,4.411-1.653,7.168-1.653c11.027,0,29.221,7.719,34.735,16.54
			c2.757,4.411,2.205,14.887,1.654,20.4v2.205l-1.654,1.654C289.562,472.983,269.713,491.179,258.135,491.179z M261.443,438.249
			c-1.654,0-2.206,0.551-2.757,0.551c-0.551,0.552-2.757,2.757-3.859,10.476c-1.654,13.232,1.103,27.017,3.859,30.324
			c4.962-0.551,17.643-9.373,28.119-18.745c0.552-4.963,0-10.477-0.551-11.579C283.497,445.416,269.713,438.249,261.443,438.249z"/>
		<path fill="#586C7A" d="M351.865,491.179c-11.579,0-31.428-17.644-37.492-23.157l-1.654-1.654v-2.205
			c-0.551-5.514-1.103-15.989,1.654-20.4c4.962-8.821,23.708-16.54,34.735-16.54c2.757,0,5.514,0.552,7.167,1.654
			c4.963,2.205,8.822,8.821,9.925,18.746c1.654,12.129,0.551,33.632-7.719,40.8C356.827,489.524,355.173,491.179,351.865,491.179z
			 M323.746,461.405c9.924,8.821,23.156,18.194,28.119,18.746c2.757-3.308,5.513-17.644,3.859-30.324
			c-1.103-7.719-3.309-9.925-3.859-10.476c0,0-1.104-0.552-2.757-0.552c-8.822,0-22.605,6.616-24.812,11.027
			C323.194,450.93,323.194,455.892,323.746,461.405z"/>
		<path fill="#FFFFFF" d="M290.665,446.519c-4.411-7.719-26.465-16.54-34.735-12.681c-10.476,4.962-9.373,43.006-0.551,50.725
			c7.167,6.064,36.389-20.4,36.389-20.4S292.87,450.378,290.665,446.519z"/>
		<path fill="#FFFFFF" d="M319.335,446.519c4.411-7.719,26.465-16.54,34.735-12.681c10.476,4.962,9.373,43.006,0.552,50.725
			c-7.168,6.064-36.39-20.4-36.39-20.4S317.13,450.378,319.335,446.519z"/>
		<path fill="#586C7A" d="M304.448,477.946c-13.232,0-24.259-9.925-24.259-21.503c0-12.13,11.027-21.503,24.259-21.503
			c13.232,0,24.26,9.925,24.26,21.503S317.681,477.946,304.448,477.946z M304.448,445.416c-7.167,0-13.232,4.962-13.232,10.476
			c0,6.065,6.065,10.476,13.232,10.476c7.168,0,13.232-4.962,13.232-10.476S311.616,445.416,304.448,445.416z"/>
		<ellipse fill="#FFFFFF" cx="304.448" cy="456.443" rx="18.746" ry="15.989"/>
		<path fill="#586C7A" d="M282.395,453.687l-22.054-8.271C260.34,445.416,277.984,445.968,282.395,453.687z"/>
		<path fill="#586C7A" d="M325.951,453.687l22.055-8.271C348.006,445.416,329.811,445.968,325.951,453.687z"/>
		<g>
			<path fill="#586C7A" d="M282.395,460.854l-22.054,8.27C260.34,469.124,277.984,468.573,282.395,460.854z"/>
			<path fill="#586C7A" d="M325.951,460.854l22.055,8.27C348.006,469.124,329.811,468.573,325.951,460.854z"/>
		</g>
	</g>
</g>
</svg>
